%TF.GenerationSoftware,KiCad,Pcbnew,8.0.4-8.0.4-0~ubuntu22.04.1*%
%TF.CreationDate,2024-07-18T16:31:12+02:00*%
%TF.ProjectId,DevBoardESP32XIAO,44657642-6f61-4726-9445-535033325849,1.3*%
%TF.SameCoordinates,Original*%
%TF.FileFunction,Copper,L1,Top*%
%TF.FilePolarity,Positive*%
%FSLAX46Y46*%
G04 Gerber Fmt 4.6, Leading zero omitted, Abs format (unit mm)*
G04 Created by KiCad (PCBNEW 8.0.4-8.0.4-0~ubuntu22.04.1) date 2024-07-18 16:31:12*
%MOMM*%
%LPD*%
G01*
G04 APERTURE LIST*
G04 Aperture macros list*
%AMRoundRect*
0 Rectangle with rounded corners*
0 $1 Rounding radius*
0 $2 $3 $4 $5 $6 $7 $8 $9 X,Y pos of 4 corners*
0 Add a 4 corners polygon primitive as box body*
4,1,4,$2,$3,$4,$5,$6,$7,$8,$9,$2,$3,0*
0 Add four circle primitives for the rounded corners*
1,1,$1+$1,$2,$3*
1,1,$1+$1,$4,$5*
1,1,$1+$1,$6,$7*
1,1,$1+$1,$8,$9*
0 Add four rect primitives between the rounded corners*
20,1,$1+$1,$2,$3,$4,$5,0*
20,1,$1+$1,$4,$5,$6,$7,0*
20,1,$1+$1,$6,$7,$8,$9,0*
20,1,$1+$1,$8,$9,$2,$3,0*%
G04 Aperture macros list end*
%TA.AperFunction,ComponentPad*%
%ADD10R,1.700000X1.700000*%
%TD*%
%TA.AperFunction,ComponentPad*%
%ADD11O,1.700000X1.700000*%
%TD*%
%TA.AperFunction,SMDPad,CuDef*%
%ADD12RoundRect,0.250000X-0.262500X-0.450000X0.262500X-0.450000X0.262500X0.450000X-0.262500X0.450000X0*%
%TD*%
%TA.AperFunction,SMDPad,CuDef*%
%ADD13RoundRect,0.243750X-0.243750X-0.456250X0.243750X-0.456250X0.243750X0.456250X-0.243750X0.456250X0*%
%TD*%
%TA.AperFunction,SMDPad,CuDef*%
%ADD14R,1.400000X1.600000*%
%TD*%
%TA.AperFunction,ComponentPad*%
%ADD15R,1.800000X1.800000*%
%TD*%
%TA.AperFunction,ComponentPad*%
%ADD16C,1.800000*%
%TD*%
%TA.AperFunction,ComponentPad*%
%ADD17RoundRect,0.750000X-1.250000X-0.750000X1.250000X-0.750000X1.250000X0.750000X-1.250000X0.750000X0*%
%TD*%
%TA.AperFunction,ComponentPad*%
%ADD18C,10.160000*%
%TD*%
%TA.AperFunction,ViaPad*%
%ADD19C,0.800000*%
%TD*%
%TA.AperFunction,Conductor*%
%ADD20C,0.500000*%
%TD*%
%TA.AperFunction,Conductor*%
%ADD21C,0.250000*%
%TD*%
G04 APERTURE END LIST*
D10*
%TO.P,J12,1,Pin_1*%
%TO.N,D7*%
X87121000Y-57311000D03*
D11*
%TO.P,J12,2,Pin_2*%
%TO.N,D6*%
X89661000Y-57311000D03*
%TO.P,J12,3,Pin_3*%
%TO.N,GND*%
X92201000Y-57311000D03*
%TO.P,J12,4,Pin_4*%
%TO.N,+3.3V*%
X94741000Y-57311000D03*
%TD*%
D10*
%TO.P,J14,1,Pin_1*%
%TO.N,D10*%
X66571000Y-72566000D03*
D11*
%TO.P,J14,2,Pin_2*%
%TO.N,Net-(J14-Pin_2)*%
X69111000Y-72566000D03*
%TO.P,J14,3,Pin_3*%
%TO.N,D9*%
X66571000Y-75106000D03*
%TO.P,J14,4,Pin_4*%
%TO.N,Net-(J14-Pin_4)*%
X69111000Y-75106000D03*
%TO.P,J14,5,Pin_5*%
%TO.N,D8*%
X66571000Y-77646000D03*
%TO.P,J14,6,Pin_6*%
%TO.N,Net-(J14-Pin_6)*%
X69111000Y-77646000D03*
%TO.P,J14,7,Pin_7*%
%TO.N,D7*%
X66571000Y-80186000D03*
%TO.P,J14,8,Pin_8*%
%TO.N,Net-(J14-Pin_8)*%
X69111000Y-80186000D03*
%TD*%
D10*
%TO.P,J9,1,Pin_1*%
%TO.N,+3.3V*%
X88336000Y-28946000D03*
D11*
%TO.P,J9,2,Pin_2*%
%TO.N,Net-(J9-Pin_2)*%
X88336000Y-31486000D03*
%TD*%
D10*
%TO.P,J2,1,Pin_1*%
%TO.N,D0*%
X39418000Y-80973000D03*
D11*
%TO.P,J2,2,Pin_2*%
%TO.N,D1*%
X39418000Y-83513000D03*
%TO.P,J2,3,Pin_3*%
%TO.N,Button1*%
X39418000Y-86053000D03*
%TO.P,J2,4,Pin_4*%
%TO.N,Button2*%
X39418000Y-88593000D03*
%TO.P,J2,5,Pin_5*%
%TO.N,D4*%
X39418000Y-91133000D03*
%TO.P,J2,6,Pin_6*%
%TO.N,D5*%
X39418000Y-93673000D03*
%TO.P,J2,7,Pin_7*%
%TO.N,D6*%
X39418000Y-96213000D03*
%TD*%
D10*
%TO.P,J3,1,Pin_1*%
%TO.N,D7*%
X55436000Y-62366000D03*
D11*
%TO.P,J3,2,Pin_2*%
%TO.N,D8*%
X55436000Y-59826000D03*
%TO.P,J3,3,Pin_3*%
%TO.N,D9*%
X55436000Y-57286000D03*
%TO.P,J3,4,Pin_4*%
%TO.N,D10*%
X55436000Y-54746000D03*
%TO.P,J3,5,Pin_5*%
%TO.N,+3.3V*%
X55436000Y-52206000D03*
%TO.P,J3,6,Pin_6*%
%TO.N,GND*%
X55436000Y-49666000D03*
%TO.P,J3,7,Pin_7*%
%TO.N,+5V*%
X55436000Y-47126000D03*
%TD*%
D10*
%TO.P,J4,1,Pin_1*%
%TO.N,D7*%
X55418000Y-95973000D03*
D11*
%TO.P,J4,2,Pin_2*%
%TO.N,D8*%
X55418000Y-93433000D03*
%TO.P,J4,3,Pin_3*%
%TO.N,D9*%
X55418000Y-90893000D03*
%TO.P,J4,4,Pin_4*%
%TO.N,D10*%
X55418000Y-88353000D03*
%TO.P,J4,5,Pin_5*%
%TO.N,+3.3V*%
X55418000Y-85813000D03*
%TO.P,J4,6,Pin_6*%
%TO.N,GND*%
X55418000Y-83273000D03*
%TO.P,J4,7,Pin_7*%
%TO.N,+5V*%
X55418000Y-80733000D03*
%TD*%
D12*
%TO.P,R9,1*%
%TO.N,+3.3V*%
X38741000Y-26801000D03*
%TO.P,R9,2*%
%TO.N,Net-(D5-A)*%
X40566000Y-26801000D03*
%TD*%
D10*
%TO.P,J6,1,Pin_1*%
%TO.N,GND*%
X88336000Y-48186000D03*
D11*
%TO.P,J6,2,Pin_2*%
%TO.N,+3.3V*%
X88336000Y-45646000D03*
%TO.P,J6,3,Pin_3*%
%TO.N,D5*%
X88336000Y-43106000D03*
%TO.P,J6,4,Pin_4*%
%TO.N,D4*%
X88336000Y-40566000D03*
%TD*%
D13*
%TO.P,D3,1,K*%
%TO.N,GND*%
X77248500Y-77036000D03*
%TO.P,D3,2,A*%
%TO.N,Net-(D3-A)*%
X79123500Y-77036000D03*
%TD*%
D12*
%TO.P,R5,1*%
%TO.N,Net-(J14-Pin_2)*%
X72461000Y-68661000D03*
%TO.P,R5,2*%
%TO.N,Net-(D1-A)*%
X74286000Y-68661000D03*
%TD*%
D13*
%TO.P,D5,1,K*%
%TO.N,GND*%
X42826000Y-26846000D03*
%TO.P,D5,2,A*%
%TO.N,Net-(D5-A)*%
X44701000Y-26846000D03*
%TD*%
D12*
%TO.P,R8,1*%
%TO.N,Net-(J14-Pin_8)*%
X72461000Y-81211000D03*
%TO.P,R8,2*%
%TO.N,Net-(D4-A)*%
X74286000Y-81211000D03*
%TD*%
D10*
%TO.P,J11,1,Pin_1*%
%TO.N,Button1*%
X76711000Y-101386000D03*
D11*
%TO.P,J11,2,Pin_2*%
%TO.N,+3.3V*%
X76711000Y-98846000D03*
%TO.P,J11,3,Pin_3*%
%TO.N,GND*%
X76711000Y-96306000D03*
%TD*%
D10*
%TO.P,J17,1,Pin_1*%
%TO.N,D0*%
X90736000Y-67586000D03*
D11*
%TO.P,J17,2,Pin_2*%
%TO.N,Net-(J17-Pin_2)*%
X93276000Y-67586000D03*
%TD*%
D14*
%TO.P,S2,1*%
%TO.N,+3.3V*%
X74186000Y-50873500D03*
%TO.P,S2,2*%
%TO.N,unconnected-(S2-Pad2)*%
X74186000Y-58073500D03*
%TO.P,S2,3*%
%TO.N,Net-(R3-Pad1)*%
X77186000Y-50873500D03*
%TO.P,S2,4*%
%TO.N,Net-(J13-Pin_4)*%
X77186000Y-58073500D03*
%TD*%
D10*
%TO.P,J1,1,Pin_1*%
%TO.N,D0*%
X39436000Y-47366000D03*
D11*
%TO.P,J1,2,Pin_2*%
%TO.N,D1*%
X39436000Y-49906000D03*
%TO.P,J1,3,Pin_3*%
%TO.N,Button1*%
X39436000Y-52446000D03*
%TO.P,J1,4,Pin_4*%
%TO.N,Button2*%
X39436000Y-54986000D03*
%TO.P,J1,5,Pin_5*%
%TO.N,D4*%
X39436000Y-57526000D03*
%TO.P,J1,6,Pin_6*%
%TO.N,D5*%
X39436000Y-60066000D03*
%TO.P,J1,7,Pin_7*%
%TO.N,D6*%
X39436000Y-62606000D03*
%TD*%
D15*
%TO.P,RV1,1,1*%
%TO.N,+3.3V*%
X85086000Y-74511000D03*
D16*
%TO.P,RV1,2,2*%
%TO.N,Net-(J17-Pin_2)*%
X85086000Y-77011000D03*
%TO.P,RV1,3,3*%
%TO.N,GND*%
X85086000Y-79511000D03*
D17*
%TO.P,RV1,MP*%
%TO.N,N/C*%
X92086000Y-72611000D03*
X92086000Y-81411000D03*
%TD*%
D12*
%TO.P,R3,1*%
%TO.N,Net-(R3-Pad1)*%
X68736000Y-56461000D03*
%TO.P,R3,2*%
%TO.N,GND*%
X70561000Y-56461000D03*
%TD*%
%TO.P,R4,1*%
%TO.N,Net-(R4-Pad1)*%
X68736000Y-52511000D03*
%TO.P,R4,2*%
%TO.N,GND*%
X70561000Y-52511000D03*
%TD*%
D18*
%TO.P,J16,1,Pin_1*%
%TO.N,GND*%
X70261000Y-30361000D03*
%TD*%
D13*
%TO.P,D1,1,K*%
%TO.N,GND*%
X77248500Y-68736000D03*
%TO.P,D1,2,A*%
%TO.N,Net-(D1-A)*%
X79123500Y-68736000D03*
%TD*%
D14*
%TO.P,S1,1*%
%TO.N,+3.3V*%
X62211000Y-50761000D03*
%TO.P,S1,2*%
%TO.N,unconnected-(S1-Pad2)*%
X62211000Y-57961000D03*
%TO.P,S1,3*%
%TO.N,Net-(R4-Pad1)*%
X65211000Y-50761000D03*
%TO.P,S1,4*%
%TO.N,Net-(J13-Pin_2)*%
X65211000Y-57961000D03*
%TD*%
D10*
%TO.P,J8,1,Pin_1*%
%TO.N,D1*%
X67161000Y-101386000D03*
D11*
%TO.P,J8,2,Pin_2*%
%TO.N,+3.3V*%
X67161000Y-98846000D03*
%TO.P,J8,3,Pin_3*%
%TO.N,GND*%
X67161000Y-96306000D03*
%TD*%
D13*
%TO.P,D2,1,K*%
%TO.N,GND*%
X77248500Y-72886000D03*
%TO.P,D2,2,A*%
%TO.N,Net-(D2-A)*%
X79123500Y-72886000D03*
%TD*%
D18*
%TO.P,J15,1,Pin_1*%
%TO.N,+5V*%
X52836000Y-30361000D03*
%TD*%
D12*
%TO.P,R2,1*%
%TO.N,Net-(J9-Pin_2)*%
X94886000Y-32311000D03*
%TO.P,R2,2*%
%TO.N,D5*%
X96711000Y-32311000D03*
%TD*%
D10*
%TO.P,J10,1,Pin_1*%
%TO.N,GND*%
X94536000Y-96336000D03*
D11*
%TO.P,J10,2,Pin_2*%
%TO.N,+3.3V*%
X94536000Y-98876000D03*
%TO.P,J10,3,Pin_3*%
%TO.N,D9*%
X94536000Y-101416000D03*
%TD*%
D13*
%TO.P,D4,1,K*%
%TO.N,GND*%
X77248500Y-81186000D03*
%TO.P,D4,2,A*%
%TO.N,Net-(D4-A)*%
X79123500Y-81186000D03*
%TD*%
D12*
%TO.P,R7,1*%
%TO.N,Net-(J14-Pin_6)*%
X72461000Y-77027700D03*
%TO.P,R7,2*%
%TO.N,Net-(D3-A)*%
X74286000Y-77027700D03*
%TD*%
%TO.P,R1,1*%
%TO.N,Net-(J9-Pin_2)*%
X94861000Y-28461000D03*
%TO.P,R1,2*%
%TO.N,D4*%
X96686000Y-28461000D03*
%TD*%
D10*
%TO.P,J5,1,Pin_1*%
%TO.N,GND*%
X95886000Y-48186000D03*
D11*
%TO.P,J5,2,Pin_2*%
%TO.N,+3.3V*%
X95886000Y-45646000D03*
%TO.P,J5,3,Pin_3*%
%TO.N,D5*%
X95886000Y-43106000D03*
%TO.P,J5,4,Pin_4*%
%TO.N,D4*%
X95886000Y-40566000D03*
%TD*%
D12*
%TO.P,R6,1*%
%TO.N,Net-(J14-Pin_4)*%
X72461000Y-72844300D03*
%TO.P,R6,2*%
%TO.N,Net-(D2-A)*%
X74286000Y-72844300D03*
%TD*%
D10*
%TO.P,J7,1,Pin_1*%
%TO.N,GND*%
X85536000Y-96336000D03*
D11*
%TO.P,J7,2,Pin_2*%
%TO.N,+3.3V*%
X85536000Y-98876000D03*
%TO.P,J7,3,Pin_3*%
%TO.N,D10*%
X85536000Y-101416000D03*
%TD*%
D10*
%TO.P,J13,1,Pin_1*%
%TO.N,Button1*%
X68546000Y-44021000D03*
D11*
%TO.P,J13,2,Pin_2*%
%TO.N,Net-(J13-Pin_2)*%
X71086000Y-44021000D03*
%TO.P,J13,3,Pin_3*%
%TO.N,Button2*%
X68546000Y-46561000D03*
%TO.P,J13,4,Pin_4*%
%TO.N,Net-(J13-Pin_4)*%
X71086000Y-46561000D03*
%TD*%
D19*
%TO.N,+5V*%
X57618000Y-37113000D03*
%TO.N,GND*%
X76443000Y-36288000D03*
%TO.N,+3.3V*%
X72343900Y-51563900D03*
%TO.N,GND*%
X70561000Y-50046000D03*
%TO.N,D9*%
X49318000Y-73513000D03*
%TO.N,D10*%
X60967800Y-69478000D03*
%TD*%
D20*
%TO.N,GND*%
X55436000Y-49666000D02*
X41618000Y-35848000D01*
X41618000Y-35848000D02*
X41618000Y-28054000D01*
X41618000Y-28054000D02*
X42826000Y-26846000D01*
%TO.N,+3.3V*%
X85793000Y-31489000D02*
X88336000Y-28946000D01*
D21*
%TO.N,Net-(J17-Pin_2)*%
X89168000Y-70213000D02*
X87980500Y-71400500D01*
X85086000Y-77011000D02*
X87980500Y-74116500D01*
X87980500Y-74116500D02*
X87980500Y-71400500D01*
%TO.N,D6*%
X39418000Y-96213000D02*
X40783000Y-94848000D01*
X38931299Y-94848000D02*
X38243000Y-94159701D01*
X39436000Y-63782700D02*
X39436000Y-62606000D01*
X40783000Y-94848000D02*
X38931299Y-94848000D01*
X38243000Y-94159701D02*
X38243000Y-93186299D01*
X38243000Y-93186299D02*
X38268951Y-93160347D01*
X38268951Y-93160347D02*
X36118000Y-91009396D01*
X36118000Y-91009396D02*
X36118000Y-79480208D01*
X36118000Y-79480208D02*
X41668000Y-73930208D01*
X41668000Y-73930208D02*
X41668000Y-66014700D01*
X41668000Y-66014700D02*
X39436000Y-63782700D01*
%TO.N,D5*%
X39418000Y-93673000D02*
X36568000Y-90823000D01*
X42118000Y-62748000D02*
X39436000Y-60066000D01*
X36568000Y-90823000D02*
X36568000Y-79666604D01*
X36568000Y-79666604D02*
X42118000Y-74116604D01*
X42118000Y-74116604D02*
X42118000Y-62748000D01*
%TO.N,D10*%
X55436000Y-54746000D02*
X60967800Y-60277800D01*
X60967800Y-60277800D02*
X60967800Y-69478000D01*
%TO.N,Net-(D5-A)*%
X44701000Y-26846000D02*
X44701000Y-26171000D01*
X44701000Y-26171000D02*
X43818000Y-25288000D01*
X43818000Y-25288000D02*
X42079000Y-25288000D01*
X42079000Y-25288000D02*
X40566000Y-26801000D01*
D20*
%TO.N,GND*%
X76443000Y-36288000D02*
X76188000Y-36288000D01*
X76188000Y-36288000D02*
X70261000Y-30361000D01*
%TO.N,+5V*%
X57693000Y-37113000D02*
X57568000Y-37238000D01*
X57618000Y-37113000D02*
X57693000Y-37113000D01*
X57618000Y-37188000D02*
X57618000Y-37113000D01*
X56330500Y-38475500D02*
X57618000Y-37188000D01*
X53880500Y-38475500D02*
X56330500Y-38475500D01*
X52836000Y-37431000D02*
X53880500Y-38475500D01*
X53880500Y-38475500D02*
X55436000Y-40031000D01*
D21*
%TO.N,D4*%
X95886000Y-40566000D02*
X95798500Y-40478500D01*
X95798500Y-40478500D02*
X95798500Y-29348500D01*
X95798500Y-29348500D02*
X96686000Y-28461000D01*
X95886000Y-40566000D02*
X95210100Y-39890100D01*
X95210100Y-39890100D02*
X90188600Y-39890100D01*
X90188600Y-39890100D02*
X89512700Y-40566000D01*
X89512700Y-40566000D02*
X88336000Y-40566000D01*
D20*
%TO.N,+3.3V*%
X94741000Y-57311000D02*
X94741000Y-56009300D01*
X94741000Y-56009300D02*
X97718000Y-53032300D01*
X97718000Y-53032300D02*
X97718000Y-47478000D01*
X97718000Y-47478000D02*
X95886000Y-45646000D01*
D21*
%TO.N,D8*%
X55436000Y-59826000D02*
X51918000Y-63344000D01*
X51918000Y-63344000D02*
X51918000Y-79613000D01*
X51918000Y-79613000D02*
X54308000Y-82003000D01*
X54308000Y-82003000D02*
X54943900Y-82003000D01*
X55418000Y-93433000D02*
X57068000Y-91783000D01*
X57068000Y-88308700D02*
X55842300Y-87083000D01*
X55842300Y-87083000D02*
X54942600Y-87083000D01*
X53243000Y-83138000D02*
X54378000Y-82003000D01*
X57068000Y-91783000D02*
X57068000Y-88308700D01*
X54942600Y-87083000D02*
X53243000Y-85383400D01*
X53243000Y-85383400D02*
X53243000Y-83138000D01*
X54378000Y-82003000D02*
X54943900Y-82003000D01*
%TO.N,D9*%
X55418000Y-90893000D02*
X50868000Y-86343000D01*
X50868000Y-86343000D02*
X50868000Y-74100700D01*
X50868000Y-74100700D02*
X50280300Y-73513000D01*
X49318000Y-73513000D02*
X50280300Y-73513000D01*
X50280300Y-73513000D02*
X51218000Y-72575300D01*
X55436000Y-57286000D02*
X51218000Y-61504000D01*
X51218000Y-61504000D02*
X51218000Y-72575300D01*
%TO.N,D4*%
X39418000Y-91133000D02*
X37093000Y-88808000D01*
X37093000Y-88808000D02*
X37093000Y-79778000D01*
X37093000Y-79778000D02*
X42568000Y-74303000D01*
X42568000Y-74303000D02*
X42568000Y-60658000D01*
X42568000Y-60658000D02*
X39436000Y-57526000D01*
%TO.N,Button2*%
X39418000Y-88593000D02*
X37618000Y-86793000D01*
X43018000Y-74493900D02*
X43018000Y-58568000D01*
X43018000Y-58568000D02*
X39436000Y-54986000D01*
X37618000Y-86793000D02*
X37618000Y-79893900D01*
X37618000Y-79893900D02*
X43018000Y-74493900D01*
%TO.N,Button1*%
X39418000Y-86053000D02*
X38068000Y-84703000D01*
X38068000Y-80153600D02*
X43493000Y-74728600D01*
X38068000Y-84703000D02*
X38068000Y-80153600D01*
X43493000Y-74728600D02*
X43493000Y-56503000D01*
X43493000Y-56503000D02*
X39436000Y-52446000D01*
%TO.N,D1*%
X39418000Y-83513000D02*
X43943000Y-78988000D01*
X43943000Y-78988000D02*
X43943000Y-54413000D01*
X43943000Y-54413000D02*
X39436000Y-49906000D01*
D20*
%TO.N,GND*%
X77248500Y-82366400D02*
X77920100Y-83038000D01*
X80543000Y-82413000D02*
X80543000Y-76748100D01*
X77920100Y-83038000D02*
X79918000Y-83038000D01*
X79918000Y-83038000D02*
X80543000Y-82413000D01*
X80543000Y-76748100D02*
X79039700Y-75244800D01*
%TO.N,+3.3V*%
X85086000Y-74511000D02*
X81918000Y-77679000D01*
X81918000Y-77679000D02*
X81918000Y-94940700D01*
X81918000Y-94940700D02*
X81108500Y-95750200D01*
X72343900Y-51563900D02*
X73034300Y-50873500D01*
X73034300Y-50873500D02*
X74186000Y-50873500D01*
D21*
%TO.N,Net-(D1-A)*%
X79123500Y-68736000D02*
X77546500Y-70313000D01*
X75938000Y-70313000D02*
X74286000Y-68661000D01*
X77546500Y-70313000D02*
X75938000Y-70313000D01*
%TO.N,Net-(D2-A)*%
X79123500Y-72886000D02*
X77550500Y-71313000D01*
X77550500Y-71313000D02*
X75817300Y-71313000D01*
X75817300Y-71313000D02*
X74286000Y-72844300D01*
%TO.N,Net-(D3-A)*%
X79123500Y-77036000D02*
X77546500Y-78613000D01*
X77546500Y-78613000D02*
X75871300Y-78613000D01*
X75871300Y-78613000D02*
X74286000Y-77027700D01*
%TO.N,Net-(D4-A)*%
X79123500Y-81186000D02*
X77750500Y-79813000D01*
X77750500Y-79813000D02*
X75684000Y-79813000D01*
X75684000Y-79813000D02*
X74286000Y-81211000D01*
%TO.N,D5*%
X95886000Y-43106000D02*
X97075900Y-41916100D01*
X97075900Y-41916100D02*
X97075900Y-32675900D01*
X97075900Y-32675900D02*
X96711000Y-32311000D01*
%TO.N,Net-(J9-Pin_2)*%
X94861000Y-31103500D02*
X92668000Y-31103500D01*
X88336000Y-31486000D02*
X92285500Y-31486000D01*
X92285500Y-31486000D02*
X92668000Y-31103500D01*
D20*
%TO.N,+3.3V*%
X85743000Y-45646000D02*
X86988100Y-45646000D01*
X78385000Y-45646000D02*
X85743000Y-45646000D01*
X85793000Y-31489000D02*
X85793000Y-45596000D01*
X85793000Y-45596000D02*
X85743000Y-45646000D01*
D21*
%TO.N,Net-(J13-Pin_2)*%
X71086000Y-44021000D02*
X69816000Y-45291000D01*
X69816000Y-45291000D02*
X69816000Y-51616300D01*
X66237700Y-57961000D02*
X65211000Y-57961000D01*
X69816000Y-51616300D02*
X69648500Y-51783800D01*
X69648500Y-51783800D02*
X69648500Y-53523500D01*
X69648500Y-53523500D02*
X66237700Y-56934300D01*
X66237700Y-56934300D02*
X66237700Y-57961000D01*
%TO.N,Net-(J13-Pin_4)*%
X74875500Y-55763000D02*
X72468000Y-55763000D01*
X77186000Y-58073500D02*
X74875500Y-55763000D01*
X71573800Y-48225500D02*
X71573800Y-52613000D01*
X72468000Y-55763000D02*
X72468000Y-53507200D01*
X72468000Y-53507200D02*
X71573800Y-52613000D01*
%TO.N,Net-(R3-Pad1)*%
X77186000Y-50873500D02*
X78353500Y-50873500D01*
X79268000Y-59188000D02*
X78318000Y-60138000D01*
X79268000Y-51788000D02*
X79268000Y-59188000D01*
X78353500Y-50873500D02*
X79268000Y-51788000D01*
X78318000Y-60138000D02*
X72413000Y-60138000D01*
X72413000Y-60138000D02*
X68736000Y-56461000D01*
D20*
%TO.N,+3.3V*%
X74186000Y-50873500D02*
X74186000Y-49845000D01*
X74186000Y-49845000D02*
X78385000Y-45646000D01*
D21*
%TO.N,Net-(J17-Pin_2)*%
X93276000Y-67586000D02*
X93276000Y-68663000D01*
X93276000Y-68663000D02*
X91726000Y-70213000D01*
X91726000Y-70213000D02*
X89168000Y-70213000D01*
%TO.N,Net-(J14-Pin_2)*%
X72461000Y-68661000D02*
X70288500Y-70833500D01*
X69111000Y-72566000D02*
X70288500Y-71388500D01*
X70288500Y-71388500D02*
X70288500Y-70833500D01*
%TO.N,D7*%
X66571000Y-80186000D02*
X67747700Y-79009300D01*
X67747700Y-79009300D02*
X67747700Y-74768500D01*
X67747700Y-74768500D02*
X68680200Y-73836000D01*
X69570900Y-73836000D02*
X73373500Y-70033400D01*
X68680200Y-73836000D02*
X69570900Y-73836000D01*
X84082400Y-57311000D02*
X87121000Y-57311000D01*
X73373500Y-70033400D02*
X73373500Y-68019900D01*
X73373500Y-68019900D02*
X84082400Y-57311000D01*
D20*
%TO.N,+5V*%
X55418000Y-80733000D02*
X55418000Y-79556300D01*
X55418000Y-79556300D02*
X62293000Y-72681300D01*
X62293000Y-72681300D02*
X62293000Y-62538000D01*
X62293000Y-62538000D02*
X63718000Y-61113000D01*
X63718000Y-61113000D02*
X63718000Y-49063000D01*
X63718000Y-49063000D02*
X61781000Y-47126000D01*
X61781000Y-47126000D02*
X55436000Y-47126000D01*
%TO.N,GND*%
X67161000Y-95004300D02*
X57706350Y-85549650D01*
X55418000Y-83273000D02*
X57694650Y-85549650D01*
X57694650Y-85549650D02*
X57706350Y-85549650D01*
%TO.N,+5V*%
X52836000Y-30361000D02*
X52836000Y-37431000D01*
X55436000Y-40031000D02*
X55436000Y-47126000D01*
%TO.N,+3.3V*%
X62211000Y-50761000D02*
X61059300Y-50761000D01*
X59614300Y-52206000D02*
X61059300Y-50761000D01*
X56737700Y-52206000D02*
X59614300Y-52206000D01*
X55436000Y-52206000D02*
X56737700Y-52206000D01*
X76711000Y-98846000D02*
X75409300Y-98846000D01*
X67161000Y-98846000D02*
X75409300Y-98846000D01*
X64689100Y-95084100D02*
X55418000Y-85813000D01*
X64689100Y-96374100D02*
X64689100Y-95084100D01*
X67161000Y-98846000D02*
X64689100Y-96374100D01*
X38741000Y-35511000D02*
X55436000Y-52206000D01*
X38741000Y-26801000D02*
X38741000Y-35511000D01*
X94741000Y-57311000D02*
X94741000Y-58612700D01*
X88336000Y-45646000D02*
X86988100Y-45646000D01*
X88336000Y-45646000D02*
X89637700Y-45646000D01*
X95886000Y-45646000D02*
X89637700Y-45646000D01*
X85086000Y-68267700D02*
X94741000Y-58612700D01*
X85086000Y-74511000D02*
X85086000Y-68267700D01*
X76711000Y-98846000D02*
X78012700Y-98846000D01*
X85536000Y-98876000D02*
X84234300Y-98876000D01*
X84234300Y-98876000D02*
X81108500Y-95750200D01*
X81108500Y-95750200D02*
X78012700Y-98846000D01*
%TO.N,GND*%
X95886000Y-48186000D02*
X95886000Y-49487700D01*
X70561000Y-56461000D02*
X70561000Y-52511000D01*
X67161000Y-96306000D02*
X67161000Y-95004300D01*
X85536000Y-96336000D02*
X85536000Y-95685100D01*
X92583400Y-95685100D02*
X93234300Y-96336000D01*
X85536000Y-95685100D02*
X92583400Y-95685100D01*
X94536000Y-96336000D02*
X93234300Y-96336000D01*
X88336000Y-48186000D02*
X89637700Y-48186000D01*
X70561000Y-52511000D02*
X70561000Y-50046000D01*
X81981200Y-67530800D02*
X80067500Y-67530800D01*
X92201000Y-57311000D02*
X81981200Y-67530800D01*
X78453700Y-67530800D02*
X77248500Y-68736000D01*
X80067500Y-67530800D02*
X78453700Y-67530800D01*
X79039800Y-74677200D02*
X77248500Y-72886000D01*
X92201000Y-57311000D02*
X92201000Y-56009300D01*
X92781900Y-55428400D02*
X92201000Y-56009300D01*
X92781900Y-51330200D02*
X92781900Y-55428400D01*
X94043500Y-51330200D02*
X92781900Y-51330200D01*
X95886000Y-49487700D02*
X94043500Y-51330200D01*
X92781900Y-51330200D02*
X89637700Y-48186000D01*
X67161000Y-96306000D02*
X76711000Y-96306000D01*
X76711000Y-96306000D02*
X76711000Y-95004300D01*
X85086000Y-95235100D02*
X85536000Y-95685100D01*
X85086000Y-79511000D02*
X85086000Y-95235100D01*
X80067500Y-73649500D02*
X80067500Y-67530800D01*
X79039800Y-74677200D02*
X80067500Y-73649500D01*
X77248500Y-77036000D02*
X79039700Y-75244800D01*
X79039700Y-74677300D02*
X79039800Y-74677200D01*
X79039700Y-75244800D02*
X79039700Y-74677300D01*
X77248500Y-94466800D02*
X77248500Y-82366400D01*
X76711000Y-95004300D02*
X77248500Y-94466800D01*
X77248500Y-82366400D02*
X77248500Y-81186000D01*
D21*
%TO.N,Net-(R4-Pad1)*%
X66986000Y-50761000D02*
X68736000Y-52511000D01*
X65211000Y-50761000D02*
X66986000Y-50761000D01*
%TO.N,Net-(J14-Pin_6)*%
X70906000Y-77027700D02*
X70287700Y-77646000D01*
X72461000Y-77027700D02*
X70906000Y-77027700D01*
X69111000Y-77646000D02*
X70287700Y-77646000D01*
%TO.N,Net-(J14-Pin_8)*%
X71312700Y-81211000D02*
X70287700Y-80186000D01*
X72461000Y-81211000D02*
X71312700Y-81211000D01*
X69111000Y-80186000D02*
X70287700Y-80186000D01*
%TO.N,Net-(J14-Pin_4)*%
X70287700Y-75017600D02*
X70287700Y-75106000D01*
X72461000Y-72844300D02*
X70287700Y-75017600D01*
X69111000Y-75106000D02*
X70287700Y-75106000D01*
%TO.N,Net-(J13-Pin_4)*%
X71086000Y-47737700D02*
X71573800Y-48225500D01*
X71086000Y-46561000D02*
X71086000Y-47737700D01*
%TO.N,Net-(J9-Pin_2)*%
X94861000Y-28461000D02*
X94861000Y-31103500D01*
X94886000Y-31128500D02*
X94861000Y-31103500D01*
X94886000Y-32311000D02*
X94886000Y-31128500D01*
%TO.N,+5V*%
X52836000Y-30361000D02*
X55436000Y-32961000D01*
%TO.N,D8*%
X66571000Y-77646000D02*
X65394300Y-77646000D01*
X61037300Y-82003000D02*
X65394300Y-77646000D01*
X54943900Y-82003000D02*
X61037300Y-82003000D01*
%TO.N,D9*%
X49380700Y-73450300D02*
X49318000Y-73513000D01*
%TD*%
%TA.AperFunction,Conductor*%
%TO.N,GND*%
G36*
X92451000Y-58641633D02*
G01*
X92664483Y-58584433D01*
X92664492Y-58584429D01*
X92878578Y-58484600D01*
X93072082Y-58349105D01*
X93239105Y-58182082D01*
X93369119Y-57996405D01*
X93423696Y-57952781D01*
X93493195Y-57945588D01*
X93555549Y-57977110D01*
X93572269Y-57996405D01*
X93702505Y-58182401D01*
X93702506Y-58182402D01*
X93818536Y-58298432D01*
X93852021Y-58359755D01*
X93847037Y-58429447D01*
X93818536Y-58473794D01*
X84503050Y-67789281D01*
X84503048Y-67789284D01*
X84485868Y-67814997D01*
X84485866Y-67815000D01*
X84420914Y-67912207D01*
X84364343Y-68048782D01*
X84364340Y-68048792D01*
X84335500Y-68193779D01*
X84335500Y-72986500D01*
X84315815Y-73053539D01*
X84263011Y-73099294D01*
X84211502Y-73110500D01*
X84138130Y-73110500D01*
X84138123Y-73110501D01*
X84078516Y-73116908D01*
X83943671Y-73167202D01*
X83943664Y-73167206D01*
X83828455Y-73253452D01*
X83828452Y-73253455D01*
X83742206Y-73368664D01*
X83742202Y-73368671D01*
X83691908Y-73503517D01*
X83685501Y-73563116D01*
X83685501Y-73563123D01*
X83685500Y-73563135D01*
X83685500Y-74798770D01*
X83665815Y-74865809D01*
X83649181Y-74886451D01*
X81335049Y-77200582D01*
X81335045Y-77200586D01*
X81307173Y-77242303D01*
X81307172Y-77242305D01*
X81252919Y-77323498D01*
X81252912Y-77323511D01*
X81196343Y-77460082D01*
X81196340Y-77460092D01*
X81167500Y-77605079D01*
X81167500Y-94578470D01*
X81147815Y-94645509D01*
X81131181Y-94666151D01*
X80525546Y-95271786D01*
X77873795Y-97923536D01*
X77812472Y-97957021D01*
X77742780Y-97952037D01*
X77698433Y-97923537D01*
X77657180Y-97882284D01*
X77582401Y-97807505D01*
X77396405Y-97677269D01*
X77352781Y-97622692D01*
X77345588Y-97553193D01*
X77377110Y-97490839D01*
X77396405Y-97474119D01*
X77582082Y-97344105D01*
X77749105Y-97177082D01*
X77884600Y-96983578D01*
X77984429Y-96769492D01*
X77984432Y-96769486D01*
X78041636Y-96556000D01*
X77144012Y-96556000D01*
X77176925Y-96498993D01*
X77211000Y-96371826D01*
X77211000Y-96240174D01*
X77176925Y-96113007D01*
X77144012Y-96056000D01*
X78041636Y-96056000D01*
X78041635Y-96055999D01*
X77984432Y-95842513D01*
X77984429Y-95842507D01*
X77884600Y-95628422D01*
X77884599Y-95628420D01*
X77749113Y-95434926D01*
X77749108Y-95434920D01*
X77582082Y-95267894D01*
X77388578Y-95132399D01*
X77174492Y-95032570D01*
X77174486Y-95032567D01*
X76961000Y-94975364D01*
X76961000Y-95872988D01*
X76903993Y-95840075D01*
X76776826Y-95806000D01*
X76645174Y-95806000D01*
X76518007Y-95840075D01*
X76461000Y-95872988D01*
X76461000Y-94975364D01*
X76460999Y-94975364D01*
X76247513Y-95032567D01*
X76247507Y-95032570D01*
X76033422Y-95132399D01*
X76033420Y-95132400D01*
X75839926Y-95267886D01*
X75839920Y-95267891D01*
X75672891Y-95434920D01*
X75672886Y-95434926D01*
X75537400Y-95628420D01*
X75537399Y-95628422D01*
X75437570Y-95842507D01*
X75437567Y-95842513D01*
X75380364Y-96055999D01*
X75380364Y-96056000D01*
X76277988Y-96056000D01*
X76245075Y-96113007D01*
X76211000Y-96240174D01*
X76211000Y-96371826D01*
X76245075Y-96498993D01*
X76277988Y-96556000D01*
X75380364Y-96556000D01*
X75437567Y-96769486D01*
X75437570Y-96769492D01*
X75537399Y-96983578D01*
X75672894Y-97177082D01*
X75839917Y-97344105D01*
X76025595Y-97474119D01*
X76069219Y-97528696D01*
X76076412Y-97598195D01*
X76044890Y-97660549D01*
X76025595Y-97677269D01*
X75839594Y-97807508D01*
X75672506Y-97974596D01*
X75624874Y-98042623D01*
X75570297Y-98086248D01*
X75523299Y-98095500D01*
X68348701Y-98095500D01*
X68281662Y-98075815D01*
X68247126Y-98042623D01*
X68199494Y-97974597D01*
X68032402Y-97807506D01*
X68032401Y-97807505D01*
X67846405Y-97677269D01*
X67802781Y-97622692D01*
X67795588Y-97553193D01*
X67827110Y-97490839D01*
X67846405Y-97474119D01*
X68032082Y-97344105D01*
X68199105Y-97177082D01*
X68334600Y-96983578D01*
X68434429Y-96769492D01*
X68434432Y-96769486D01*
X68491636Y-96556000D01*
X67594012Y-96556000D01*
X67626925Y-96498993D01*
X67661000Y-96371826D01*
X67661000Y-96240174D01*
X67626925Y-96113007D01*
X67594012Y-96056000D01*
X68491636Y-96056000D01*
X68491635Y-96055999D01*
X68434432Y-95842513D01*
X68434429Y-95842507D01*
X68334600Y-95628422D01*
X68334599Y-95628420D01*
X68199113Y-95434926D01*
X68199108Y-95434920D01*
X68032082Y-95267894D01*
X67838578Y-95132399D01*
X67624492Y-95032570D01*
X67624486Y-95032567D01*
X67411000Y-94975364D01*
X67411000Y-95872988D01*
X67353993Y-95840075D01*
X67226826Y-95806000D01*
X67095174Y-95806000D01*
X66968007Y-95840075D01*
X66911000Y-95872988D01*
X66911000Y-94975364D01*
X66910999Y-94975364D01*
X66697513Y-95032567D01*
X66697507Y-95032570D01*
X66483422Y-95132399D01*
X66483420Y-95132400D01*
X66289926Y-95267886D01*
X66289920Y-95267891D01*
X66122891Y-95434920D01*
X66122886Y-95434926D01*
X65987400Y-95628420D01*
X65987399Y-95628422D01*
X65887570Y-95842507D01*
X65887566Y-95842516D01*
X65826432Y-96070673D01*
X65826430Y-96070683D01*
X65819085Y-96154636D01*
X65793632Y-96219704D01*
X65737041Y-96260682D01*
X65667278Y-96264559D01*
X65607876Y-96231508D01*
X65475919Y-96099551D01*
X65442434Y-96038228D01*
X65439600Y-96011870D01*
X65439600Y-95010179D01*
X65410759Y-94865192D01*
X65410758Y-94865191D01*
X65410758Y-94865187D01*
X65378121Y-94786393D01*
X65354187Y-94728611D01*
X65354180Y-94728598D01*
X65272052Y-94605685D01*
X65223708Y-94557341D01*
X65167516Y-94501149D01*
X56790869Y-86124501D01*
X56757384Y-86063178D01*
X56755022Y-86026012D01*
X56773659Y-85813000D01*
X56773659Y-85812999D01*
X56766477Y-85730907D01*
X56753063Y-85577592D01*
X56706626Y-85404285D01*
X56691905Y-85349344D01*
X56691904Y-85349343D01*
X56691903Y-85349337D01*
X56592035Y-85135171D01*
X56584430Y-85124309D01*
X56456494Y-84941597D01*
X56289402Y-84774506D01*
X56289401Y-84774505D01*
X56103405Y-84644269D01*
X56059781Y-84589692D01*
X56052588Y-84520193D01*
X56084110Y-84457839D01*
X56103405Y-84441119D01*
X56289082Y-84311105D01*
X56456105Y-84144082D01*
X56591600Y-83950578D01*
X56691429Y-83736492D01*
X56691432Y-83736486D01*
X56748636Y-83523000D01*
X55851012Y-83523000D01*
X55883925Y-83465993D01*
X55918000Y-83338826D01*
X55918000Y-83207174D01*
X55883925Y-83080007D01*
X55851012Y-83023000D01*
X56748636Y-83023000D01*
X56748635Y-83022999D01*
X56691432Y-82809513D01*
X56691428Y-82809502D01*
X56689284Y-82804904D01*
X56678792Y-82735827D01*
X56707312Y-82672043D01*
X56765789Y-82633804D01*
X56801666Y-82628500D01*
X61098908Y-82628500D01*
X61098908Y-82628499D01*
X61197872Y-82608815D01*
X61197873Y-82608815D01*
X61219747Y-82604464D01*
X61219747Y-82604463D01*
X61219752Y-82604463D01*
X61219757Y-82604460D01*
X61219760Y-82604460D01*
X61253087Y-82590654D01*
X61253086Y-82590654D01*
X61253092Y-82590652D01*
X61333586Y-82557312D01*
X61400650Y-82512500D01*
X61436033Y-82488858D01*
X61523158Y-82401733D01*
X61523158Y-82401731D01*
X61533366Y-82391524D01*
X61533367Y-82391521D01*
X65382317Y-78542572D01*
X65443638Y-78509089D01*
X65513330Y-78514073D01*
X65557677Y-78542573D01*
X65699599Y-78684495D01*
X65699602Y-78684497D01*
X65699603Y-78684498D01*
X65885158Y-78814425D01*
X65928783Y-78869002D01*
X65935977Y-78938500D01*
X65904454Y-79000855D01*
X65885158Y-79017575D01*
X65699597Y-79147505D01*
X65532505Y-79314597D01*
X65396965Y-79508169D01*
X65396964Y-79508171D01*
X65297098Y-79722335D01*
X65297094Y-79722344D01*
X65235938Y-79950586D01*
X65235936Y-79950596D01*
X65215341Y-80185999D01*
X65215341Y-80186000D01*
X65235936Y-80421403D01*
X65235938Y-80421413D01*
X65297094Y-80649655D01*
X65297096Y-80649659D01*
X65297097Y-80649663D01*
X65335958Y-80733000D01*
X65396965Y-80863830D01*
X65396967Y-80863834D01*
X65470188Y-80968403D01*
X65532505Y-81057401D01*
X65699599Y-81224495D01*
X65715820Y-81235853D01*
X65893165Y-81360032D01*
X65893167Y-81360033D01*
X65893170Y-81360035D01*
X66107337Y-81459903D01*
X66335592Y-81521063D01*
X66523918Y-81537539D01*
X66570999Y-81541659D01*
X66571000Y-81541659D01*
X66571001Y-81541659D01*
X66610234Y-81538226D01*
X66806408Y-81521063D01*
X67034663Y-81459903D01*
X67248830Y-81360035D01*
X67442401Y-81224495D01*
X67609495Y-81057401D01*
X67739425Y-80871842D01*
X67794002Y-80828217D01*
X67863500Y-80821023D01*
X67925855Y-80852546D01*
X67942575Y-80871842D01*
X68072500Y-81057395D01*
X68072505Y-81057401D01*
X68239599Y-81224495D01*
X68255820Y-81235853D01*
X68433165Y-81360032D01*
X68433167Y-81360033D01*
X68433170Y-81360035D01*
X68647337Y-81459903D01*
X68875592Y-81521063D01*
X69063918Y-81537539D01*
X69110999Y-81541659D01*
X69111000Y-81541659D01*
X69111001Y-81541659D01*
X69150234Y-81538226D01*
X69346408Y-81521063D01*
X69574663Y-81459903D01*
X69788830Y-81360035D01*
X69982401Y-81224495D01*
X70124322Y-81082574D01*
X70185645Y-81049089D01*
X70255337Y-81054073D01*
X70299684Y-81082574D01*
X70823716Y-81606606D01*
X70823745Y-81606637D01*
X70913964Y-81696856D01*
X70913967Y-81696858D01*
X70968804Y-81733498D01*
X70968805Y-81733500D01*
X70987824Y-81746207D01*
X71016415Y-81765312D01*
X71069891Y-81787462D01*
X71069892Y-81787463D01*
X71102900Y-81801135D01*
X71130248Y-81812463D01*
X71190671Y-81824481D01*
X71251093Y-81836500D01*
X71251094Y-81836500D01*
X71376483Y-81836500D01*
X71443522Y-81856185D01*
X71489277Y-81908989D01*
X71494186Y-81921489D01*
X71513686Y-81980334D01*
X71605788Y-82129656D01*
X71729844Y-82253712D01*
X71879166Y-82345814D01*
X72045703Y-82400999D01*
X72148491Y-82411500D01*
X72773508Y-82411499D01*
X72773516Y-82411498D01*
X72773519Y-82411498D01*
X72829802Y-82405748D01*
X72876297Y-82400999D01*
X73042834Y-82345814D01*
X73192156Y-82253712D01*
X73285819Y-82160049D01*
X73347142Y-82126564D01*
X73416834Y-82131548D01*
X73461181Y-82160049D01*
X73554844Y-82253712D01*
X73704166Y-82345814D01*
X73870703Y-82400999D01*
X73973491Y-82411500D01*
X74598508Y-82411499D01*
X74598516Y-82411498D01*
X74598519Y-82411498D01*
X74654802Y-82405748D01*
X74701297Y-82400999D01*
X74867834Y-82345814D01*
X75017156Y-82253712D01*
X75141212Y-82129656D01*
X75233314Y-81980334D01*
X75288499Y-81813797D01*
X75299000Y-81711009D01*
X75299000Y-81691815D01*
X76261000Y-81691815D01*
X76271407Y-81793673D01*
X76326094Y-81958709D01*
X76326096Y-81958714D01*
X76417370Y-82106691D01*
X76540308Y-82229629D01*
X76688285Y-82320903D01*
X76688290Y-82320905D01*
X76853326Y-82375592D01*
X76955184Y-82385999D01*
X76955197Y-82386000D01*
X76998500Y-82386000D01*
X76998500Y-81436000D01*
X76261000Y-81436000D01*
X76261000Y-81691815D01*
X75299000Y-81691815D01*
X75298999Y-81133951D01*
X75318683Y-81066913D01*
X75335313Y-81046276D01*
X75906772Y-80474819D01*
X75968095Y-80441334D01*
X75994453Y-80438500D01*
X76148378Y-80438500D01*
X76215417Y-80458185D01*
X76261172Y-80510989D01*
X76271736Y-80575102D01*
X76261000Y-80680182D01*
X76261000Y-80936000D01*
X77374500Y-80936000D01*
X77441539Y-80955685D01*
X77487294Y-81008489D01*
X77498500Y-81060000D01*
X77498500Y-82386000D01*
X77541803Y-82386000D01*
X77541815Y-82385999D01*
X77643673Y-82375592D01*
X77808709Y-82320905D01*
X77808714Y-82320903D01*
X77956691Y-82229629D01*
X78079628Y-82106692D01*
X78080159Y-82105832D01*
X78080680Y-82105363D01*
X78084112Y-82101023D01*
X78084853Y-82101608D01*
X78132101Y-82059102D01*
X78201063Y-82047872D01*
X78265148Y-82075708D01*
X78287413Y-82101398D01*
X78287493Y-82101336D01*
X78288890Y-82103103D01*
X78291238Y-82105812D01*
X78291968Y-82106995D01*
X78291974Y-82107003D01*
X78414996Y-82230025D01*
X78415000Y-82230028D01*
X78563066Y-82321357D01*
X78563069Y-82321358D01*
X78563075Y-82321362D01*
X78728225Y-82376087D01*
X78830152Y-82386500D01*
X78830157Y-82386500D01*
X79416843Y-82386500D01*
X79416848Y-82386500D01*
X79518775Y-82376087D01*
X79683925Y-82321362D01*
X79832003Y-82230026D01*
X79955026Y-82107003D01*
X80046362Y-81958925D01*
X80101087Y-81793775D01*
X80111500Y-81691848D01*
X80111500Y-80680152D01*
X80101087Y-80578225D01*
X80046362Y-80413075D01*
X80046358Y-80413069D01*
X80046357Y-80413066D01*
X79955028Y-80265000D01*
X79955025Y-80264996D01*
X79832003Y-80141974D01*
X79831999Y-80141971D01*
X79683933Y-80050642D01*
X79683927Y-80050639D01*
X79683925Y-80050638D01*
X79655947Y-80041367D01*
X79518776Y-79995913D01*
X79416855Y-79985500D01*
X79416848Y-79985500D01*
X78858952Y-79985500D01*
X78791913Y-79965815D01*
X78771271Y-79949181D01*
X78240698Y-79418608D01*
X78240678Y-79418586D01*
X78149236Y-79327144D01*
X78149232Y-79327141D01*
X78085095Y-79284286D01*
X78046787Y-79258689D01*
X78046786Y-79258688D01*
X78046783Y-79258686D01*
X78046780Y-79258685D01*
X78033410Y-79253147D01*
X77979007Y-79209305D01*
X77956944Y-79143010D01*
X77974225Y-79075311D01*
X77993181Y-79050909D01*
X78032358Y-79011733D01*
X78032359Y-79011731D01*
X78039419Y-79004671D01*
X78039425Y-79004664D01*
X78771270Y-78272819D01*
X78832593Y-78239334D01*
X78858951Y-78236500D01*
X79416843Y-78236500D01*
X79416848Y-78236500D01*
X79518775Y-78226087D01*
X79683925Y-78171362D01*
X79832003Y-78080026D01*
X79955026Y-77957003D01*
X80046362Y-77808925D01*
X80101087Y-77643775D01*
X80111500Y-77541848D01*
X80111500Y-76530152D01*
X80101087Y-76428225D01*
X80046362Y-76263075D01*
X80046358Y-76263069D01*
X80046357Y-76263066D01*
X79955028Y-76115000D01*
X79955025Y-76114996D01*
X79832003Y-75991974D01*
X79831999Y-75991971D01*
X79683933Y-75900642D01*
X79683927Y-75900639D01*
X79683925Y-75900638D01*
X79660528Y-75892885D01*
X79518776Y-75845913D01*
X79416855Y-75835500D01*
X79416848Y-75835500D01*
X78830152Y-75835500D01*
X78830144Y-75835500D01*
X78728223Y-75845913D01*
X78563077Y-75900637D01*
X78563066Y-75900642D01*
X78415000Y-75991971D01*
X78414996Y-75991974D01*
X78291974Y-76114996D01*
X78291967Y-76115005D01*
X78291234Y-76116194D01*
X78290519Y-76116836D01*
X78287493Y-76120664D01*
X78286838Y-76120146D01*
X78239280Y-76162911D01*
X78170316Y-76174123D01*
X78106238Y-76146271D01*
X78084238Y-76120877D01*
X78084112Y-76120977D01*
X78081885Y-76118161D01*
X78080163Y-76116173D01*
X78079630Y-76115309D01*
X77956691Y-75992370D01*
X77808714Y-75901096D01*
X77808709Y-75901094D01*
X77643673Y-75846407D01*
X77541815Y-75836000D01*
X77498500Y-75836000D01*
X77498500Y-77162000D01*
X77478815Y-77229039D01*
X77426011Y-77274794D01*
X77374500Y-77286000D01*
X76261000Y-77286000D01*
X76261000Y-77541815D01*
X76271407Y-77643673D01*
X76326097Y-77808717D01*
X76327209Y-77811102D01*
X76327480Y-77812893D01*
X76328367Y-77815567D01*
X76327909Y-77815718D01*
X76337697Y-77880180D01*
X76309173Y-77943962D01*
X76250694Y-77982198D01*
X76214824Y-77987500D01*
X76181752Y-77987500D01*
X76114713Y-77967815D01*
X76094071Y-77951181D01*
X75335318Y-77192428D01*
X75301833Y-77131105D01*
X75298999Y-77104747D01*
X75298999Y-76530184D01*
X76261000Y-76530184D01*
X76261000Y-76786000D01*
X76998500Y-76786000D01*
X76998500Y-75836000D01*
X76955184Y-75836000D01*
X76853326Y-75846407D01*
X76688290Y-75901094D01*
X76688285Y-75901096D01*
X76540308Y-75992370D01*
X76417370Y-76115308D01*
X76326096Y-76263285D01*
X76326094Y-76263290D01*
X76271407Y-76428326D01*
X76261000Y-76530184D01*
X75298999Y-76530184D01*
X75298999Y-76527698D01*
X75298998Y-76527681D01*
X75288499Y-76424903D01*
X75288498Y-76424900D01*
X75252811Y-76317205D01*
X75233314Y-76258366D01*
X75141212Y-76109044D01*
X75017156Y-75984988D01*
X74881145Y-75901096D01*
X74867836Y-75892887D01*
X74867831Y-75892885D01*
X74866362Y-75892398D01*
X74701297Y-75837701D01*
X74701295Y-75837700D01*
X74598510Y-75827200D01*
X73973498Y-75827200D01*
X73973480Y-75827201D01*
X73870703Y-75837700D01*
X73870700Y-75837701D01*
X73704168Y-75892885D01*
X73704163Y-75892887D01*
X73554842Y-75984989D01*
X73461181Y-76078651D01*
X73399858Y-76112136D01*
X73330166Y-76107152D01*
X73285819Y-76078651D01*
X73192157Y-75984989D01*
X73192156Y-75984988D01*
X73056145Y-75901096D01*
X73042836Y-75892887D01*
X73042831Y-75892885D01*
X73041362Y-75892398D01*
X72876297Y-75837701D01*
X72876295Y-75837700D01*
X72773510Y-75827200D01*
X72148498Y-75827200D01*
X72148480Y-75827201D01*
X72045703Y-75837700D01*
X72045700Y-75837701D01*
X71879168Y-75892885D01*
X71879163Y-75892887D01*
X71729842Y-75984989D01*
X71605789Y-76109042D01*
X71513687Y-76258363D01*
X71513686Y-76258366D01*
X71494189Y-76317205D01*
X71454416Y-76374649D01*
X71389900Y-76401472D01*
X71376483Y-76402200D01*
X70844389Y-76402200D01*
X70790517Y-76412916D01*
X70783971Y-76414218D01*
X70740743Y-76422816D01*
X70723546Y-76426237D01*
X70609716Y-76473387D01*
X70609707Y-76473392D01*
X70507268Y-76541840D01*
X70485047Y-76564062D01*
X70420142Y-76628967D01*
X70420139Y-76628970D01*
X70299684Y-76749425D01*
X70299683Y-76749426D01*
X70238360Y-76782910D01*
X70168668Y-76777926D01*
X70124321Y-76749425D01*
X69982402Y-76607506D01*
X69982396Y-76607501D01*
X69796842Y-76477575D01*
X69753217Y-76422998D01*
X69746023Y-76353500D01*
X69777546Y-76291145D01*
X69796842Y-76274425D01*
X69900385Y-76201923D01*
X69982401Y-76144495D01*
X70149495Y-75977401D01*
X70285035Y-75783830D01*
X70288140Y-75779396D01*
X70290119Y-75780782D01*
X70333264Y-75739615D01*
X70365930Y-75728193D01*
X70470152Y-75707463D01*
X70583986Y-75660311D01*
X70686433Y-75591858D01*
X70773558Y-75504733D01*
X70842011Y-75402286D01*
X70871044Y-75332193D01*
X70897922Y-75291967D01*
X72108772Y-74081116D01*
X72170093Y-74047633D01*
X72196442Y-74044799D01*
X72773508Y-74044799D01*
X72773516Y-74044798D01*
X72773519Y-74044798D01*
X72829802Y-74039048D01*
X72876297Y-74034299D01*
X73042834Y-73979114D01*
X73192156Y-73887012D01*
X73285819Y-73793349D01*
X73347142Y-73759864D01*
X73416834Y-73764848D01*
X73461181Y-73793349D01*
X73554844Y-73887012D01*
X73704166Y-73979114D01*
X73870703Y-74034299D01*
X73973491Y-74044800D01*
X74598508Y-74044799D01*
X74598516Y-74044798D01*
X74598519Y-74044798D01*
X74654802Y-74039048D01*
X74701297Y-74034299D01*
X74867834Y-73979114D01*
X75017156Y-73887012D01*
X75141212Y-73762956D01*
X75233314Y-73613634D01*
X75288499Y-73447097D01*
X75294147Y-73391815D01*
X76261000Y-73391815D01*
X76271407Y-73493673D01*
X76326094Y-73658709D01*
X76326096Y-73658714D01*
X76417370Y-73806691D01*
X76540308Y-73929629D01*
X76688285Y-74020903D01*
X76688290Y-74020905D01*
X76853326Y-74075592D01*
X76955184Y-74085999D01*
X76955197Y-74086000D01*
X76998500Y-74086000D01*
X76998500Y-73136000D01*
X76261000Y-73136000D01*
X76261000Y-73391815D01*
X75294147Y-73391815D01*
X75299000Y-73344309D01*
X75298999Y-72767250D01*
X75318683Y-72700212D01*
X75335313Y-72679575D01*
X76040071Y-71974819D01*
X76101394Y-71941334D01*
X76127752Y-71938500D01*
X76212959Y-71938500D01*
X76279998Y-71958185D01*
X76325753Y-72010989D01*
X76335697Y-72080147D01*
X76327911Y-72106282D01*
X76328367Y-72106433D01*
X76271407Y-72278326D01*
X76261000Y-72380184D01*
X76261000Y-72636000D01*
X77374500Y-72636000D01*
X77441539Y-72655685D01*
X77487294Y-72708489D01*
X77498500Y-72760000D01*
X77498500Y-74086000D01*
X77541803Y-74086000D01*
X77541815Y-74085999D01*
X77643673Y-74075592D01*
X77808709Y-74020905D01*
X77808714Y-74020903D01*
X77956691Y-73929629D01*
X78079628Y-73806692D01*
X78080159Y-73805832D01*
X78080680Y-73805363D01*
X78084112Y-73801023D01*
X78084853Y-73801608D01*
X78132101Y-73759102D01*
X78201063Y-73747872D01*
X78265148Y-73775708D01*
X78287413Y-73801398D01*
X78287493Y-73801336D01*
X78288890Y-73803103D01*
X78291238Y-73805812D01*
X78291968Y-73806995D01*
X78291974Y-73807003D01*
X78414996Y-73930025D01*
X78415000Y-73930028D01*
X78563066Y-74021357D01*
X78563069Y-74021358D01*
X78563075Y-74021362D01*
X78728225Y-74076087D01*
X78830152Y-74086500D01*
X78830157Y-74086500D01*
X79416843Y-74086500D01*
X79416848Y-74086500D01*
X79518775Y-74076087D01*
X79683925Y-74021362D01*
X79832003Y-73930026D01*
X79955026Y-73807003D01*
X80046362Y-73658925D01*
X80101087Y-73493775D01*
X80111500Y-73391848D01*
X80111500Y-72380152D01*
X80101087Y-72278225D01*
X80046362Y-72113075D01*
X80046358Y-72113069D01*
X80046357Y-72113066D01*
X79955028Y-71965000D01*
X79955025Y-71964996D01*
X79832003Y-71841974D01*
X79831999Y-71841971D01*
X79683933Y-71750642D01*
X79683927Y-71750639D01*
X79683925Y-71750638D01*
X79683922Y-71750637D01*
X79518776Y-71695913D01*
X79416855Y-71685500D01*
X79416848Y-71685500D01*
X78858952Y-71685500D01*
X78791913Y-71665815D01*
X78771271Y-71649181D01*
X78040698Y-70918608D01*
X78040678Y-70918586D01*
X78020772Y-70898680D01*
X77987287Y-70837357D01*
X77992271Y-70767665D01*
X78020770Y-70723320D01*
X78032358Y-70711733D01*
X78032360Y-70711729D01*
X78771270Y-69972819D01*
X78832593Y-69939334D01*
X78858951Y-69936500D01*
X79416843Y-69936500D01*
X79416848Y-69936500D01*
X79518775Y-69926087D01*
X79683925Y-69871362D01*
X79832003Y-69780026D01*
X79955026Y-69657003D01*
X80046362Y-69508925D01*
X80101087Y-69343775D01*
X80111500Y-69241848D01*
X80111500Y-68230152D01*
X80101087Y-68128225D01*
X80046362Y-67963075D01*
X80046358Y-67963069D01*
X80046357Y-67963066D01*
X79955027Y-67814998D01*
X79832003Y-67691974D01*
X79831999Y-67691971D01*
X79683933Y-67600642D01*
X79683927Y-67600639D01*
X79683925Y-67600638D01*
X79574110Y-67564249D01*
X79518776Y-67545913D01*
X79416855Y-67535500D01*
X79416848Y-67535500D01*
X78830152Y-67535500D01*
X78830144Y-67535500D01*
X78728223Y-67545913D01*
X78563077Y-67600637D01*
X78563066Y-67600642D01*
X78415000Y-67691971D01*
X78414996Y-67691974D01*
X78291974Y-67814996D01*
X78291967Y-67815005D01*
X78291234Y-67816194D01*
X78290519Y-67816836D01*
X78287493Y-67820664D01*
X78286838Y-67820146D01*
X78239280Y-67862911D01*
X78170316Y-67874123D01*
X78106238Y-67846271D01*
X78084238Y-67820877D01*
X78084112Y-67820977D01*
X78081885Y-67818161D01*
X78080163Y-67816173D01*
X78079630Y-67815309D01*
X77956691Y-67692370D01*
X77808714Y-67601096D01*
X77808709Y-67601094D01*
X77643673Y-67546407D01*
X77541815Y-67536000D01*
X77498500Y-67536000D01*
X77498500Y-68862000D01*
X77478815Y-68929039D01*
X77426011Y-68974794D01*
X77374500Y-68986000D01*
X76261000Y-68986000D01*
X76261000Y-69241815D01*
X76271407Y-69343673D01*
X76314063Y-69472401D01*
X76316465Y-69542229D01*
X76280733Y-69602271D01*
X76218213Y-69633464D01*
X76148753Y-69625903D01*
X76108676Y-69599086D01*
X75335318Y-68825728D01*
X75301833Y-68764405D01*
X75298999Y-68738047D01*
X75298999Y-68230184D01*
X76261000Y-68230184D01*
X76261000Y-68486000D01*
X76998500Y-68486000D01*
X76998500Y-67536000D01*
X76955184Y-67536000D01*
X76853326Y-67546407D01*
X76688290Y-67601094D01*
X76688285Y-67601096D01*
X76540308Y-67692370D01*
X76417370Y-67815308D01*
X76326096Y-67963285D01*
X76326094Y-67963290D01*
X76271407Y-68128326D01*
X76261000Y-68230184D01*
X75298999Y-68230184D01*
X75298999Y-68160998D01*
X75298998Y-68160981D01*
X75288499Y-68058203D01*
X75288498Y-68058200D01*
X75256977Y-67963077D01*
X75233314Y-67891666D01*
X75141212Y-67742344D01*
X75017156Y-67618288D01*
X75017155Y-67618287D01*
X74929544Y-67564249D01*
X74882819Y-67512301D01*
X74871596Y-67443339D01*
X74899439Y-67379257D01*
X74906948Y-67371040D01*
X84305172Y-57972819D01*
X84366495Y-57939334D01*
X84392853Y-57936500D01*
X85646501Y-57936500D01*
X85713540Y-57956185D01*
X85759295Y-58008989D01*
X85770501Y-58060500D01*
X85770501Y-58208876D01*
X85776908Y-58268483D01*
X85827202Y-58403328D01*
X85827206Y-58403335D01*
X85913452Y-58518544D01*
X85913455Y-58518547D01*
X86028664Y-58604793D01*
X86028671Y-58604797D01*
X86163517Y-58655091D01*
X86163516Y-58655091D01*
X86170444Y-58655835D01*
X86223127Y-58661500D01*
X88018872Y-58661499D01*
X88078483Y-58655091D01*
X88213331Y-58604796D01*
X88328546Y-58518546D01*
X88414796Y-58403331D01*
X88463810Y-58271916D01*
X88505681Y-58215984D01*
X88571145Y-58191566D01*
X88639418Y-58206417D01*
X88667673Y-58227569D01*
X88789599Y-58349495D01*
X88886384Y-58417265D01*
X88983165Y-58485032D01*
X88983167Y-58485033D01*
X88983170Y-58485035D01*
X89197337Y-58584903D01*
X89425592Y-58646063D01*
X89602034Y-58661500D01*
X89660999Y-58666659D01*
X89661000Y-58666659D01*
X89661001Y-58666659D01*
X89719966Y-58661500D01*
X89896408Y-58646063D01*
X90124663Y-58584903D01*
X90338830Y-58485035D01*
X90532401Y-58349495D01*
X90699495Y-58182401D01*
X90829730Y-57996405D01*
X90884307Y-57952781D01*
X90953805Y-57945587D01*
X91016160Y-57977110D01*
X91032879Y-57996405D01*
X91162890Y-58182078D01*
X91329917Y-58349105D01*
X91523421Y-58484600D01*
X91737507Y-58584429D01*
X91737516Y-58584433D01*
X91951000Y-58641634D01*
X91951000Y-57744012D01*
X92008007Y-57776925D01*
X92135174Y-57811000D01*
X92266826Y-57811000D01*
X92393993Y-57776925D01*
X92451000Y-57744012D01*
X92451000Y-58641633D01*
G37*
%TD.AperFunction*%
%TA.AperFunction,Conductor*%
G36*
X87215338Y-46416185D02*
G01*
X87249873Y-46449376D01*
X87297505Y-46517401D01*
X87419818Y-46639714D01*
X87453303Y-46701037D01*
X87448319Y-46770729D01*
X87406447Y-46826662D01*
X87375471Y-46843577D01*
X87243912Y-46892646D01*
X87243906Y-46892649D01*
X87128812Y-46978809D01*
X87128809Y-46978812D01*
X87042649Y-47093906D01*
X87042645Y-47093913D01*
X86992403Y-47228620D01*
X86992401Y-47228627D01*
X86986000Y-47288155D01*
X86986000Y-47936000D01*
X87902988Y-47936000D01*
X87870075Y-47993007D01*
X87836000Y-48120174D01*
X87836000Y-48251826D01*
X87870075Y-48378993D01*
X87902988Y-48436000D01*
X86986000Y-48436000D01*
X86986000Y-49083844D01*
X86992401Y-49143372D01*
X86992403Y-49143379D01*
X87042645Y-49278086D01*
X87042649Y-49278093D01*
X87128809Y-49393187D01*
X87128812Y-49393190D01*
X87243906Y-49479350D01*
X87243913Y-49479354D01*
X87378620Y-49529596D01*
X87378627Y-49529598D01*
X87438155Y-49535999D01*
X87438172Y-49536000D01*
X88086000Y-49536000D01*
X88086000Y-48619012D01*
X88143007Y-48651925D01*
X88270174Y-48686000D01*
X88401826Y-48686000D01*
X88528993Y-48651925D01*
X88586000Y-48619012D01*
X88586000Y-49536000D01*
X89233828Y-49536000D01*
X89233844Y-49535999D01*
X89293372Y-49529598D01*
X89293379Y-49529596D01*
X89428086Y-49479354D01*
X89428093Y-49479350D01*
X89543187Y-49393190D01*
X89543190Y-49393187D01*
X89629350Y-49278093D01*
X89629354Y-49278086D01*
X89679596Y-49143379D01*
X89679598Y-49143372D01*
X89685999Y-49083844D01*
X89686000Y-49083827D01*
X89686000Y-48436000D01*
X88769012Y-48436000D01*
X88801925Y-48378993D01*
X88836000Y-48251826D01*
X88836000Y-48120174D01*
X88801925Y-47993007D01*
X88769012Y-47936000D01*
X89686000Y-47936000D01*
X89686000Y-47288172D01*
X89685999Y-47288155D01*
X89679598Y-47228627D01*
X89679596Y-47228620D01*
X89629354Y-47093913D01*
X89629350Y-47093906D01*
X89543190Y-46978812D01*
X89543187Y-46978809D01*
X89428093Y-46892649D01*
X89428088Y-46892646D01*
X89296528Y-46843577D01*
X89240595Y-46801705D01*
X89216178Y-46736241D01*
X89231030Y-46667968D01*
X89252175Y-46639720D01*
X89374495Y-46517401D01*
X89422127Y-46449376D01*
X89476704Y-46405751D01*
X89523701Y-46396500D01*
X89563782Y-46396500D01*
X94698299Y-46396500D01*
X94765338Y-46416185D01*
X94799873Y-46449376D01*
X94847505Y-46517401D01*
X94969818Y-46639714D01*
X95003303Y-46701037D01*
X94998319Y-46770729D01*
X94956447Y-46826662D01*
X94925471Y-46843577D01*
X94793912Y-46892646D01*
X94793906Y-46892649D01*
X94678812Y-46978809D01*
X94678809Y-46978812D01*
X94592649Y-47093906D01*
X94592645Y-47093913D01*
X94542403Y-47228620D01*
X94542401Y-47228627D01*
X94536000Y-47288155D01*
X94536000Y-47936000D01*
X95452988Y-47936000D01*
X95420075Y-47993007D01*
X95386000Y-48120174D01*
X95386000Y-48251826D01*
X95420075Y-48378993D01*
X95452988Y-48436000D01*
X94536000Y-48436000D01*
X94536000Y-49083844D01*
X94542401Y-49143372D01*
X94542403Y-49143379D01*
X94592645Y-49278086D01*
X94592649Y-49278093D01*
X94678809Y-49393187D01*
X94678812Y-49393190D01*
X94793906Y-49479350D01*
X94793913Y-49479354D01*
X94928620Y-49529596D01*
X94928627Y-49529598D01*
X94988155Y-49535999D01*
X94988172Y-49536000D01*
X95636000Y-49536000D01*
X95636000Y-48619012D01*
X95693007Y-48651925D01*
X95820174Y-48686000D01*
X95951826Y-48686000D01*
X96078993Y-48651925D01*
X96136000Y-48619012D01*
X96136000Y-49536000D01*
X96783828Y-49536000D01*
X96783842Y-49535999D01*
X96830243Y-49531010D01*
X96899003Y-49543414D01*
X96950141Y-49591024D01*
X96967500Y-49654299D01*
X96967500Y-52670070D01*
X96947815Y-52737109D01*
X96931181Y-52757751D01*
X94158047Y-55530884D01*
X94158045Y-55530886D01*
X94124866Y-55580546D01*
X94124864Y-55580549D01*
X94075919Y-55653799D01*
X94075912Y-55653811D01*
X94019343Y-55790382D01*
X94019340Y-55790392D01*
X93990500Y-55935379D01*
X93990500Y-56123298D01*
X93970815Y-56190337D01*
X93937625Y-56224872D01*
X93869595Y-56272507D01*
X93702508Y-56439594D01*
X93572269Y-56625595D01*
X93517692Y-56669219D01*
X93448193Y-56676412D01*
X93385839Y-56644890D01*
X93369119Y-56625594D01*
X93239113Y-56439926D01*
X93239108Y-56439920D01*
X93072082Y-56272894D01*
X92878578Y-56137399D01*
X92664492Y-56037570D01*
X92664486Y-56037567D01*
X92451000Y-55980364D01*
X92451000Y-56877988D01*
X92393993Y-56845075D01*
X92266826Y-56811000D01*
X92135174Y-56811000D01*
X92008007Y-56845075D01*
X91951000Y-56877988D01*
X91951000Y-55980364D01*
X91950999Y-55980364D01*
X91737513Y-56037567D01*
X91737507Y-56037570D01*
X91523422Y-56137399D01*
X91523420Y-56137400D01*
X91329926Y-56272886D01*
X91329920Y-56272891D01*
X91162891Y-56439920D01*
X91162890Y-56439922D01*
X91032880Y-56625595D01*
X90978303Y-56669219D01*
X90908804Y-56676412D01*
X90846450Y-56644890D01*
X90829730Y-56625594D01*
X90699494Y-56439597D01*
X90532402Y-56272506D01*
X90532395Y-56272501D01*
X90338834Y-56136967D01*
X90338830Y-56136965D01*
X90285217Y-56111965D01*
X90124663Y-56037097D01*
X90124659Y-56037096D01*
X90124655Y-56037094D01*
X89896413Y-55975938D01*
X89896403Y-55975936D01*
X89661001Y-55955341D01*
X89660999Y-55955341D01*
X89425596Y-55975936D01*
X89425586Y-55975938D01*
X89197344Y-56037094D01*
X89197335Y-56037098D01*
X88983171Y-56136964D01*
X88983169Y-56136965D01*
X88789600Y-56272503D01*
X88667673Y-56394430D01*
X88606350Y-56427914D01*
X88536658Y-56422930D01*
X88480725Y-56381058D01*
X88463810Y-56350081D01*
X88414797Y-56218671D01*
X88414793Y-56218664D01*
X88328547Y-56103455D01*
X88328544Y-56103452D01*
X88213335Y-56017206D01*
X88213328Y-56017202D01*
X88078482Y-55966908D01*
X88078483Y-55966908D01*
X88018883Y-55960501D01*
X88018881Y-55960500D01*
X88018873Y-55960500D01*
X88018864Y-55960500D01*
X86223129Y-55960500D01*
X86223123Y-55960501D01*
X86163516Y-55966908D01*
X86028671Y-56017202D01*
X86028664Y-56017206D01*
X85913455Y-56103452D01*
X85913452Y-56103455D01*
X85827206Y-56218664D01*
X85827202Y-56218671D01*
X85776908Y-56353517D01*
X85770501Y-56413116D01*
X85770500Y-56413135D01*
X85770500Y-56561500D01*
X85750815Y-56628539D01*
X85698011Y-56674294D01*
X85646500Y-56685500D01*
X84150141Y-56685500D01*
X84150121Y-56685499D01*
X84144007Y-56685499D01*
X84020794Y-56685499D01*
X83919997Y-56705548D01*
X83919992Y-56705548D01*
X83899949Y-56709536D01*
X83899947Y-56709536D01*
X83852797Y-56729067D01*
X83786119Y-56756685D01*
X83786117Y-56756686D01*
X83683666Y-56825141D01*
X83683663Y-56825144D01*
X73051691Y-67457117D01*
X72990368Y-67490602D01*
X72925007Y-67487142D01*
X72876297Y-67471001D01*
X72876295Y-67471000D01*
X72773510Y-67460500D01*
X72148498Y-67460500D01*
X72148480Y-67460501D01*
X72045703Y-67471000D01*
X72045700Y-67471001D01*
X71879168Y-67526185D01*
X71879163Y-67526187D01*
X71729842Y-67618289D01*
X71605789Y-67742342D01*
X71513687Y-67891663D01*
X71513686Y-67891666D01*
X71458501Y-68058203D01*
X71458501Y-68058204D01*
X71458500Y-68058204D01*
X71448000Y-68160983D01*
X71448000Y-68738047D01*
X71428315Y-68805086D01*
X71411681Y-68825728D01*
X69802644Y-70434764D01*
X69802638Y-70434772D01*
X69734190Y-70537208D01*
X69734188Y-70537213D01*
X69703833Y-70610498D01*
X69687039Y-70651041D01*
X69687037Y-70651047D01*
X69687037Y-70651048D01*
X69677528Y-70698857D01*
X69663912Y-70767311D01*
X69663458Y-70769590D01*
X69663000Y-70771892D01*
X69663000Y-71078045D01*
X69643315Y-71145084D01*
X69626681Y-71165727D01*
X69566645Y-71225762D01*
X69505321Y-71259246D01*
X69446872Y-71257855D01*
X69346408Y-71230937D01*
X69111001Y-71210341D01*
X69110999Y-71210341D01*
X68875596Y-71230936D01*
X68875586Y-71230938D01*
X68647344Y-71292094D01*
X68647335Y-71292098D01*
X68433171Y-71391964D01*
X68433169Y-71391965D01*
X68239600Y-71527503D01*
X68117673Y-71649430D01*
X68056350Y-71682914D01*
X67986658Y-71677930D01*
X67930725Y-71636058D01*
X67913810Y-71605081D01*
X67864797Y-71473671D01*
X67864793Y-71473664D01*
X67778547Y-71358455D01*
X67778544Y-71358452D01*
X67663335Y-71272206D01*
X67663328Y-71272202D01*
X67528482Y-71221908D01*
X67528483Y-71221908D01*
X67468883Y-71215501D01*
X67468881Y-71215500D01*
X67468873Y-71215500D01*
X67468864Y-71215500D01*
X65673129Y-71215500D01*
X65673123Y-71215501D01*
X65613516Y-71221908D01*
X65478671Y-71272202D01*
X65478664Y-71272206D01*
X65363455Y-71358452D01*
X65363452Y-71358455D01*
X65277206Y-71473664D01*
X65277202Y-71473671D01*
X65226908Y-71608517D01*
X65220501Y-71668116D01*
X65220500Y-71668135D01*
X65220500Y-73463870D01*
X65220501Y-73463876D01*
X65226908Y-73523483D01*
X65277202Y-73658328D01*
X65277206Y-73658335D01*
X65363452Y-73773544D01*
X65363455Y-73773547D01*
X65478664Y-73859793D01*
X65478671Y-73859797D01*
X65610081Y-73908810D01*
X65666015Y-73950681D01*
X65690432Y-74016145D01*
X65675580Y-74084418D01*
X65654430Y-74112673D01*
X65532503Y-74234600D01*
X65396965Y-74428169D01*
X65396964Y-74428171D01*
X65297098Y-74642335D01*
X65297094Y-74642344D01*
X65235938Y-74870586D01*
X65235936Y-74870596D01*
X65215341Y-75105999D01*
X65215341Y-75106000D01*
X65235936Y-75341403D01*
X65235938Y-75341413D01*
X65297094Y-75569655D01*
X65297096Y-75569659D01*
X65297097Y-75569663D01*
X65372563Y-75731500D01*
X65396965Y-75783830D01*
X65396967Y-75783834D01*
X65505281Y-75938521D01*
X65528631Y-75971869D01*
X65532501Y-75977395D01*
X65532506Y-75977402D01*
X65699597Y-76144493D01*
X65699603Y-76144498D01*
X65885158Y-76274425D01*
X65928783Y-76329002D01*
X65935977Y-76398500D01*
X65904454Y-76460855D01*
X65885158Y-76477575D01*
X65699597Y-76607505D01*
X65532505Y-76774597D01*
X65393860Y-76972605D01*
X65391904Y-76971235D01*
X65348601Y-77012454D01*
X65316067Y-77023806D01*
X65211855Y-77044535D01*
X65211847Y-77044537D01*
X65098016Y-77091687D01*
X64995565Y-77160142D01*
X64995562Y-77160145D01*
X60814529Y-81341181D01*
X60753206Y-81374666D01*
X60726848Y-81377500D01*
X56802218Y-81377500D01*
X56735179Y-81357815D01*
X56689424Y-81305011D01*
X56679480Y-81235853D01*
X56689837Y-81201094D01*
X56691900Y-81196669D01*
X56691903Y-81196663D01*
X56753063Y-80968408D01*
X56773659Y-80733000D01*
X56771003Y-80702648D01*
X56761725Y-80596601D01*
X56753063Y-80497592D01*
X56697561Y-80290452D01*
X56691905Y-80269344D01*
X56691904Y-80269343D01*
X56691903Y-80269337D01*
X56592035Y-80055171D01*
X56588861Y-80050637D01*
X56456494Y-79861597D01*
X56402962Y-79808065D01*
X56369477Y-79746742D01*
X56374461Y-79677050D01*
X56402960Y-79632705D01*
X62875951Y-73159716D01*
X62958084Y-73036795D01*
X63014658Y-72900213D01*
X63029395Y-72826127D01*
X63043500Y-72755220D01*
X63043500Y-62900229D01*
X63063185Y-62833190D01*
X63079819Y-62812548D01*
X64300948Y-61591419D01*
X64300951Y-61591416D01*
X64383084Y-61468495D01*
X64439658Y-61331913D01*
X64459050Y-61234425D01*
X64468500Y-61186920D01*
X64468500Y-59385499D01*
X64488185Y-59318460D01*
X64540989Y-59272705D01*
X64592500Y-59261499D01*
X65958871Y-59261499D01*
X65958872Y-59261499D01*
X66018483Y-59255091D01*
X66153331Y-59204796D01*
X66268546Y-59118546D01*
X66354796Y-59003331D01*
X66405091Y-58868483D01*
X66411500Y-58808873D01*
X66411499Y-58648900D01*
X66431183Y-58581862D01*
X66483987Y-58536107D01*
X66488047Y-58534340D01*
X66533979Y-58515314D01*
X66533979Y-58515313D01*
X66533986Y-58515311D01*
X66636433Y-58446858D01*
X66723558Y-58359733D01*
X66792011Y-58257286D01*
X66839163Y-58143452D01*
X66863200Y-58022606D01*
X66863200Y-57244751D01*
X66882885Y-57177712D01*
X66899515Y-57157074D01*
X67511321Y-56545267D01*
X67572642Y-56511784D01*
X67642333Y-56516768D01*
X67698267Y-56558639D01*
X67722684Y-56624104D01*
X67723000Y-56632950D01*
X67723000Y-56961000D01*
X67723001Y-56961019D01*
X67733500Y-57063796D01*
X67733501Y-57063799D01*
X67776444Y-57193390D01*
X67788686Y-57230334D01*
X67880788Y-57379656D01*
X68004844Y-57503712D01*
X68154166Y-57595814D01*
X68320703Y-57650999D01*
X68423491Y-57661500D01*
X69000547Y-57661499D01*
X69067586Y-57681183D01*
X69088228Y-57697818D01*
X71924016Y-60533606D01*
X71924045Y-60533637D01*
X72014263Y-60623855D01*
X72014267Y-60623858D01*
X72116707Y-60692307D01*
X72116711Y-60692309D01*
X72116714Y-60692311D01*
X72230548Y-60739463D01*
X72290971Y-60751481D01*
X72351393Y-60763500D01*
X78379607Y-60763500D01*
X78440029Y-60751481D01*
X78500452Y-60739463D01*
X78500455Y-60739461D01*
X78500458Y-60739461D01*
X78533787Y-60725654D01*
X78533786Y-60725654D01*
X78533792Y-60725652D01*
X78614286Y-60692312D01*
X78665509Y-60658084D01*
X78716733Y-60623858D01*
X78803858Y-60536733D01*
X78803859Y-60536731D01*
X78810925Y-60529665D01*
X78810928Y-60529661D01*
X79666729Y-59673860D01*
X79666733Y-59673858D01*
X79753858Y-59586733D01*
X79822311Y-59484286D01*
X79822312Y-59484285D01*
X79867990Y-59374006D01*
X79867995Y-59374000D01*
X79867993Y-59374000D01*
X79867993Y-59373999D01*
X79869463Y-59370452D01*
X79891134Y-59261500D01*
X79891135Y-59261500D01*
X79891135Y-59261494D01*
X79893500Y-59249607D01*
X79893500Y-59126393D01*
X79893500Y-51726394D01*
X79892667Y-51722209D01*
X79892668Y-51722192D01*
X79892664Y-51722193D01*
X79869463Y-51605549D01*
X79867723Y-51601349D01*
X79856642Y-51574597D01*
X79822314Y-51491720D01*
X79822307Y-51491707D01*
X79753858Y-51389267D01*
X79753855Y-51389263D01*
X79663637Y-51299045D01*
X79663606Y-51299016D01*
X78843698Y-50479108D01*
X78843678Y-50479086D01*
X78752233Y-50387641D01*
X78701009Y-50353415D01*
X78686287Y-50343578D01*
X78649786Y-50319188D01*
X78649783Y-50319186D01*
X78649782Y-50319186D01*
X78649781Y-50319185D01*
X78543453Y-50275144D01*
X78543452Y-50275143D01*
X78535953Y-50272037D01*
X78535945Y-50272035D01*
X78486307Y-50262161D01*
X78424396Y-50229776D01*
X78389822Y-50169060D01*
X78386499Y-50140544D01*
X78386499Y-50025629D01*
X78386498Y-50025623D01*
X78386497Y-50025616D01*
X78380091Y-49966017D01*
X78360364Y-49913127D01*
X78329797Y-49831171D01*
X78329793Y-49831164D01*
X78243547Y-49715955D01*
X78243544Y-49715952D01*
X78128335Y-49629706D01*
X78128328Y-49629702D01*
X77993482Y-49579408D01*
X77993483Y-49579408D01*
X77933883Y-49573001D01*
X77933881Y-49573000D01*
X77933873Y-49573000D01*
X77933864Y-49573000D01*
X76438129Y-49573000D01*
X76438123Y-49573001D01*
X76378516Y-49579408D01*
X76243671Y-49629702D01*
X76243664Y-49629706D01*
X76128455Y-49715952D01*
X76128452Y-49715955D01*
X76042206Y-49831164D01*
X76042202Y-49831171D01*
X75991908Y-49966017D01*
X75986204Y-50019081D01*
X75985501Y-50025623D01*
X75985500Y-50025635D01*
X75985500Y-51721370D01*
X75985501Y-51721376D01*
X75991908Y-51780983D01*
X76042202Y-51915828D01*
X76042206Y-51915835D01*
X76128452Y-52031044D01*
X76128455Y-52031047D01*
X76243664Y-52117293D01*
X76243671Y-52117297D01*
X76378517Y-52167591D01*
X76378516Y-52167591D01*
X76385444Y-52168335D01*
X76438127Y-52174000D01*
X77933872Y-52173999D01*
X77993483Y-52167591D01*
X78128331Y-52117296D01*
X78243546Y-52031046D01*
X78321716Y-51926623D01*
X78377650Y-51884753D01*
X78447342Y-51879769D01*
X78508664Y-51913254D01*
X78606181Y-52010771D01*
X78639666Y-52072094D01*
X78642500Y-52098452D01*
X78642500Y-58877548D01*
X78622815Y-58944587D01*
X78606180Y-58965229D01*
X78598175Y-58973235D01*
X78536850Y-59006716D01*
X78467158Y-59001727D01*
X78411227Y-58959852D01*
X78386814Y-58894386D01*
X78386499Y-58885575D01*
X78386499Y-57225628D01*
X78380091Y-57166017D01*
X78378918Y-57162873D01*
X78329797Y-57031171D01*
X78329793Y-57031164D01*
X78243547Y-56915955D01*
X78243544Y-56915952D01*
X78128335Y-56829706D01*
X78128328Y-56829702D01*
X77993482Y-56779408D01*
X77993483Y-56779408D01*
X77933883Y-56773001D01*
X77933881Y-56773000D01*
X77933873Y-56773000D01*
X77933865Y-56773000D01*
X76821453Y-56773000D01*
X76754414Y-56753315D01*
X76733772Y-56736681D01*
X75368428Y-55371338D01*
X75368425Y-55371334D01*
X75368425Y-55371335D01*
X75361358Y-55364268D01*
X75361358Y-55364267D01*
X75274233Y-55277142D01*
X75274232Y-55277141D01*
X75274231Y-55277140D01*
X75223009Y-55242915D01*
X75214495Y-55237226D01*
X75171786Y-55208688D01*
X75171783Y-55208686D01*
X75171780Y-55208685D01*
X75091292Y-55175347D01*
X75057954Y-55161538D01*
X75057955Y-55161538D01*
X75057952Y-55161537D01*
X75057948Y-55161536D01*
X75057944Y-55161535D01*
X74973469Y-55144732D01*
X74973468Y-55144732D01*
X74937111Y-55137500D01*
X74937107Y-55137500D01*
X74937106Y-55137500D01*
X73217500Y-55137500D01*
X73150461Y-55117815D01*
X73104706Y-55065011D01*
X73093500Y-55013500D01*
X73093500Y-53445594D01*
X73092123Y-53438671D01*
X73086032Y-53408051D01*
X73069463Y-53324749D01*
X73068571Y-53322597D01*
X73066418Y-53317398D01*
X73066417Y-53317396D01*
X73051066Y-53280336D01*
X73027375Y-53223139D01*
X73022312Y-53210915D01*
X72993176Y-53167311D01*
X72953858Y-53108467D01*
X72953856Y-53108464D01*
X72863637Y-53018245D01*
X72863606Y-53018216D01*
X72493848Y-52648458D01*
X72460363Y-52587135D01*
X72465347Y-52517443D01*
X72507219Y-52461510D01*
X72555742Y-52439489D01*
X72623703Y-52425044D01*
X72796630Y-52348051D01*
X72949771Y-52236788D01*
X73056590Y-52118153D01*
X73116074Y-52081506D01*
X73185931Y-52082836D01*
X73223049Y-52101860D01*
X73243668Y-52117295D01*
X73243671Y-52117297D01*
X73378517Y-52167591D01*
X73378516Y-52167591D01*
X73385444Y-52168335D01*
X73438127Y-52174000D01*
X74933872Y-52173999D01*
X74993483Y-52167591D01*
X75128331Y-52117296D01*
X75243546Y-52031046D01*
X75329796Y-51915831D01*
X75380091Y-51780983D01*
X75386500Y-51721373D01*
X75386499Y-50025628D01*
X75380091Y-49966017D01*
X75360364Y-49913127D01*
X75339009Y-49855870D01*
X75334025Y-49786178D01*
X75367508Y-49724858D01*
X78659549Y-46432819D01*
X78720872Y-46399334D01*
X78747230Y-46396500D01*
X85669082Y-46396500D01*
X85669083Y-46396500D01*
X85816917Y-46396500D01*
X86914182Y-46396500D01*
X87148299Y-46396500D01*
X87215338Y-46416185D01*
G37*
%TD.AperFunction*%
%TA.AperFunction,Conductor*%
G36*
X70646703Y-48183440D02*
G01*
X70653181Y-48189472D01*
X70694332Y-48230623D01*
X70694338Y-48230628D01*
X70911981Y-48448271D01*
X70945466Y-48509594D01*
X70948300Y-48535952D01*
X70948300Y-51187000D01*
X70928615Y-51254039D01*
X70875811Y-51299794D01*
X70824300Y-51311000D01*
X70811000Y-51311000D01*
X70811000Y-53710999D01*
X70873472Y-53710999D01*
X70873486Y-53710998D01*
X70976197Y-53700505D01*
X71142619Y-53645358D01*
X71142624Y-53645356D01*
X71291842Y-53553317D01*
X71373003Y-53472156D01*
X71434326Y-53438671D01*
X71504018Y-53443655D01*
X71548366Y-53472156D01*
X71806181Y-53729971D01*
X71839666Y-53791294D01*
X71842500Y-53817652D01*
X71842500Y-55824610D01*
X71866535Y-55945444D01*
X71866538Y-55945454D01*
X71913687Y-56059283D01*
X71913692Y-56059292D01*
X71982141Y-56161732D01*
X71982144Y-56161736D01*
X72069263Y-56248855D01*
X72069267Y-56248858D01*
X72171707Y-56317307D01*
X72171713Y-56317310D01*
X72171714Y-56317311D01*
X72285548Y-56364463D01*
X72406389Y-56388499D01*
X72406393Y-56388500D01*
X72406394Y-56388500D01*
X72529606Y-56388500D01*
X74565048Y-56388500D01*
X74632087Y-56408185D01*
X74652729Y-56424819D01*
X74789229Y-56561319D01*
X74822714Y-56622642D01*
X74817730Y-56692334D01*
X74775858Y-56748267D01*
X74710394Y-56772684D01*
X74701548Y-56773000D01*
X73438129Y-56773000D01*
X73438123Y-56773001D01*
X73378516Y-56779408D01*
X73243671Y-56829702D01*
X73243664Y-56829706D01*
X73128455Y-56915952D01*
X73128452Y-56915955D01*
X73042206Y-57031164D01*
X73042202Y-57031171D01*
X72991908Y-57166017D01*
X72985501Y-57225616D01*
X72985501Y-57225623D01*
X72985500Y-57225635D01*
X72985500Y-58921370D01*
X72985501Y-58921376D01*
X72991908Y-58980983D01*
X73042202Y-59115828D01*
X73042206Y-59115835D01*
X73128452Y-59231044D01*
X73128455Y-59231047D01*
X73206182Y-59289234D01*
X73248053Y-59345168D01*
X73253037Y-59414859D01*
X73219551Y-59476182D01*
X73158228Y-59509666D01*
X73131871Y-59512500D01*
X72723452Y-59512500D01*
X72656413Y-59492815D01*
X72635771Y-59476181D01*
X70993589Y-57833999D01*
X70960104Y-57772676D01*
X70965088Y-57702984D01*
X71006960Y-57647051D01*
X71042266Y-57628612D01*
X71142619Y-57595358D01*
X71142624Y-57595356D01*
X71291845Y-57503315D01*
X71415815Y-57379345D01*
X71507856Y-57230124D01*
X71507858Y-57230119D01*
X71563005Y-57063697D01*
X71563006Y-57063690D01*
X71573499Y-56960986D01*
X71573500Y-56960973D01*
X71573500Y-56711000D01*
X70435000Y-56711000D01*
X70367961Y-56691315D01*
X70322206Y-56638511D01*
X70311000Y-56587000D01*
X70311000Y-56211000D01*
X70811000Y-56211000D01*
X71573499Y-56211000D01*
X71573499Y-55961028D01*
X71573498Y-55961013D01*
X71563005Y-55858302D01*
X71507858Y-55691880D01*
X71507856Y-55691875D01*
X71415815Y-55542654D01*
X71291845Y-55418684D01*
X71142624Y-55326643D01*
X71142619Y-55326641D01*
X70976197Y-55271494D01*
X70976190Y-55271493D01*
X70873486Y-55261000D01*
X70811000Y-55261000D01*
X70811000Y-56211000D01*
X70311000Y-56211000D01*
X70311000Y-55261000D01*
X70310999Y-55260999D01*
X70248528Y-55261000D01*
X70248511Y-55261001D01*
X70145802Y-55271494D01*
X69979380Y-55326641D01*
X69979375Y-55326643D01*
X69830157Y-55418682D01*
X69736534Y-55512305D01*
X69675210Y-55545789D01*
X69605519Y-55540805D01*
X69561172Y-55512304D01*
X69467157Y-55418289D01*
X69467156Y-55418288D01*
X69317834Y-55326186D01*
X69151297Y-55271001D01*
X69151294Y-55271000D01*
X69079083Y-55263623D01*
X69014391Y-55237226D01*
X68974240Y-55180045D01*
X68971377Y-55110234D01*
X69004003Y-55052586D01*
X70134358Y-53922233D01*
X70202812Y-53819785D01*
X70216165Y-53787546D01*
X70260004Y-53733143D01*
X70303250Y-53718748D01*
X70311000Y-53710998D01*
X70311000Y-52038965D01*
X70330685Y-51971926D01*
X70331899Y-51970073D01*
X70363528Y-51922738D01*
X70363529Y-51922736D01*
X70370311Y-51912586D01*
X70370312Y-51912585D01*
X70398498Y-51844537D01*
X70417463Y-51798752D01*
X70441500Y-51677906D01*
X70441500Y-48277153D01*
X70461185Y-48210114D01*
X70513989Y-48164359D01*
X70583147Y-48154415D01*
X70646703Y-48183440D01*
G37*
%TD.AperFunction*%
%TA.AperFunction,Conductor*%
G36*
X61485809Y-47896185D02*
G01*
X61506451Y-47912819D01*
X62179731Y-48586099D01*
X62842452Y-49248819D01*
X62875937Y-49310142D01*
X62870953Y-49379834D01*
X62829081Y-49435767D01*
X62763617Y-49460184D01*
X62754771Y-49460500D01*
X61463129Y-49460500D01*
X61463123Y-49460501D01*
X61403516Y-49466908D01*
X61268671Y-49517202D01*
X61268664Y-49517206D01*
X61153455Y-49603452D01*
X61153452Y-49603455D01*
X61067206Y-49718664D01*
X61067202Y-49718671D01*
X61016908Y-49853517D01*
X61010145Y-49916428D01*
X61008565Y-49916258D01*
X60987378Y-49976240D01*
X60932183Y-50019081D01*
X60911022Y-50025290D01*
X60840392Y-50039339D01*
X60840383Y-50039342D01*
X60760381Y-50072479D01*
X60760382Y-50072480D01*
X60703806Y-50095915D01*
X60703803Y-50095917D01*
X60690113Y-50105064D01*
X60635721Y-50141408D01*
X60635720Y-50141409D01*
X60580886Y-50178046D01*
X60580881Y-50178050D01*
X59339751Y-51419181D01*
X59278428Y-51452666D01*
X59252070Y-51455500D01*
X56623701Y-51455500D01*
X56556662Y-51435815D01*
X56522126Y-51402623D01*
X56474494Y-51334597D01*
X56307402Y-51167506D01*
X56307401Y-51167505D01*
X56121405Y-51037269D01*
X56077781Y-50982692D01*
X56070588Y-50913193D01*
X56102110Y-50850839D01*
X56121405Y-50834119D01*
X56307082Y-50704105D01*
X56474105Y-50537082D01*
X56609600Y-50343578D01*
X56709429Y-50129492D01*
X56709432Y-50129486D01*
X56766636Y-49916000D01*
X55869012Y-49916000D01*
X55901925Y-49858993D01*
X55936000Y-49731826D01*
X55936000Y-49600174D01*
X55901925Y-49473007D01*
X55869012Y-49416000D01*
X56766636Y-49416000D01*
X56766635Y-49415999D01*
X56709432Y-49202513D01*
X56709429Y-49202507D01*
X56609600Y-48988422D01*
X56609599Y-48988420D01*
X56474113Y-48794926D01*
X56474108Y-48794920D01*
X56307078Y-48627890D01*
X56121405Y-48497879D01*
X56077780Y-48443302D01*
X56070588Y-48373804D01*
X56102110Y-48311449D01*
X56121406Y-48294730D01*
X56307401Y-48164495D01*
X56474495Y-47997401D01*
X56522127Y-47929376D01*
X56576704Y-47885751D01*
X56623701Y-47876500D01*
X61418770Y-47876500D01*
X61485809Y-47896185D01*
G37*
%TD.AperFunction*%
%TA.AperFunction,Conductor*%
G36*
X102406039Y-20382685D02*
G01*
X102451794Y-20435489D01*
X102463000Y-20487000D01*
X102463000Y-110239000D01*
X102443315Y-110306039D01*
X102390511Y-110351794D01*
X102339000Y-110363000D01*
X35442000Y-110363000D01*
X35374961Y-110343315D01*
X35329206Y-110290511D01*
X35318000Y-110239000D01*
X35318000Y-91335927D01*
X35337685Y-91268888D01*
X35390489Y-91223133D01*
X35459647Y-91213189D01*
X35523203Y-91242214D01*
X35556561Y-91288475D01*
X35563688Y-91305682D01*
X35580777Y-91331258D01*
X35597751Y-91356661D01*
X35597752Y-91356662D01*
X35605601Y-91368408D01*
X35632142Y-91408129D01*
X35632145Y-91408132D01*
X35632148Y-91408136D01*
X35723586Y-91499574D01*
X35723608Y-91499594D01*
X37581181Y-93357167D01*
X37614666Y-93418490D01*
X37617500Y-93444848D01*
X37617500Y-94221307D01*
X37637057Y-94319632D01*
X37641537Y-94342152D01*
X37641538Y-94342154D01*
X37641538Y-94342156D01*
X37688685Y-94455981D01*
X37688687Y-94455984D01*
X37688688Y-94455987D01*
X37709844Y-94487649D01*
X37718864Y-94501147D01*
X37718865Y-94501149D01*
X37757141Y-94558433D01*
X37757144Y-94558437D01*
X37848586Y-94649879D01*
X37848608Y-94649899D01*
X38372527Y-95173818D01*
X38406012Y-95235141D01*
X38401028Y-95304833D01*
X38382311Y-95336955D01*
X38382610Y-95337164D01*
X38380106Y-95340738D01*
X38379837Y-95341202D01*
X38379508Y-95341593D01*
X38243965Y-95535169D01*
X38243964Y-95535171D01*
X38144098Y-95749335D01*
X38144094Y-95749344D01*
X38082938Y-95977586D01*
X38082936Y-95977596D01*
X38062341Y-96212999D01*
X38062341Y-96213000D01*
X38082936Y-96448403D01*
X38082938Y-96448413D01*
X38144094Y-96676655D01*
X38144096Y-96676659D01*
X38144097Y-96676663D01*
X38234658Y-96870872D01*
X38243965Y-96890830D01*
X38243967Y-96890834D01*
X38271730Y-96930483D01*
X38379505Y-97084401D01*
X38546599Y-97251495D01*
X38640280Y-97317091D01*
X38740165Y-97387032D01*
X38740167Y-97387033D01*
X38740170Y-97387035D01*
X38954337Y-97486903D01*
X38954343Y-97486904D01*
X38954344Y-97486905D01*
X39009285Y-97501626D01*
X39182592Y-97548063D01*
X39370918Y-97564539D01*
X39417999Y-97568659D01*
X39418000Y-97568659D01*
X39418001Y-97568659D01*
X39457234Y-97565226D01*
X39653408Y-97548063D01*
X39881663Y-97486903D01*
X40095830Y-97387035D01*
X40289401Y-97251495D01*
X40456495Y-97084401D01*
X40592035Y-96890830D01*
X40691903Y-96676663D01*
X40753063Y-96448408D01*
X40773659Y-96213000D01*
X40753063Y-95977592D01*
X40726143Y-95877125D01*
X40727806Y-95807277D01*
X40758237Y-95757352D01*
X40853071Y-95662519D01*
X41268858Y-95246733D01*
X41337312Y-95144285D01*
X41365958Y-95075127D01*
X41384463Y-95030452D01*
X41393305Y-94986000D01*
X41395990Y-94972503D01*
X41395990Y-94972500D01*
X41408501Y-94909606D01*
X41408501Y-94786393D01*
X41408501Y-94786390D01*
X41384464Y-94665554D01*
X41384463Y-94665548D01*
X41337312Y-94551714D01*
X41268858Y-94449266D01*
X41268855Y-94449262D01*
X41181737Y-94362144D01*
X41181733Y-94362141D01*
X41079288Y-94293689D01*
X41079286Y-94293688D01*
X40965453Y-94246537D01*
X40965445Y-94246535D01*
X40844609Y-94222499D01*
X40844607Y-94222499D01*
X40830503Y-94222499D01*
X40763464Y-94202814D01*
X40717709Y-94150010D01*
X40707765Y-94080852D01*
X40710728Y-94066406D01*
X40753063Y-93908408D01*
X40773659Y-93673000D01*
X40753063Y-93437592D01*
X40691903Y-93209337D01*
X40592035Y-92995171D01*
X40456495Y-92801599D01*
X40456494Y-92801597D01*
X40289402Y-92634506D01*
X40289396Y-92634501D01*
X40103842Y-92504575D01*
X40060217Y-92449998D01*
X40053023Y-92380500D01*
X40084546Y-92318145D01*
X40103842Y-92301425D01*
X40164481Y-92258965D01*
X40289401Y-92171495D01*
X40456495Y-92004401D01*
X40592035Y-91810830D01*
X40691903Y-91596663D01*
X40753063Y-91368408D01*
X40773659Y-91133000D01*
X40753063Y-90897592D01*
X40691903Y-90669337D01*
X40592035Y-90455171D01*
X40456495Y-90261599D01*
X40456494Y-90261597D01*
X40289402Y-90094506D01*
X40289396Y-90094501D01*
X40103842Y-89964575D01*
X40060217Y-89909998D01*
X40053023Y-89840500D01*
X40084546Y-89778145D01*
X40103842Y-89761425D01*
X40164481Y-89718965D01*
X40289401Y-89631495D01*
X40456495Y-89464401D01*
X40592035Y-89270830D01*
X40691903Y-89056663D01*
X40753063Y-88828408D01*
X40773659Y-88593000D01*
X40753063Y-88357592D01*
X40691903Y-88129337D01*
X40592035Y-87915171D01*
X40496051Y-87778090D01*
X40456494Y-87721597D01*
X40289402Y-87554506D01*
X40289396Y-87554501D01*
X40103842Y-87424575D01*
X40060217Y-87369998D01*
X40053023Y-87300500D01*
X40084546Y-87238145D01*
X40103842Y-87221425D01*
X40126026Y-87205891D01*
X40289401Y-87091495D01*
X40456495Y-86924401D01*
X40592035Y-86730830D01*
X40691903Y-86516663D01*
X40753063Y-86288408D01*
X40773659Y-86053000D01*
X40753063Y-85817592D01*
X40691903Y-85589337D01*
X40592035Y-85375171D01*
X40535842Y-85294918D01*
X40456494Y-85181597D01*
X40289402Y-85014506D01*
X40289396Y-85014501D01*
X40103842Y-84884575D01*
X40060217Y-84829998D01*
X40053023Y-84760500D01*
X40084546Y-84698145D01*
X40103842Y-84681425D01*
X40164481Y-84638965D01*
X40289401Y-84551495D01*
X40456495Y-84384401D01*
X40592035Y-84190830D01*
X40691903Y-83976663D01*
X40753063Y-83748408D01*
X40773659Y-83513000D01*
X40753063Y-83277592D01*
X40726143Y-83177125D01*
X40727806Y-83107276D01*
X40758235Y-83057353D01*
X44428857Y-79386734D01*
X44433847Y-79379267D01*
X44497311Y-79284286D01*
X44544463Y-79170452D01*
X44556481Y-79110029D01*
X44568500Y-79049607D01*
X44568500Y-78926394D01*
X44568500Y-54480741D01*
X44568501Y-54480720D01*
X44568501Y-54351391D01*
X44544464Y-54230554D01*
X44544463Y-54230553D01*
X44544463Y-54230549D01*
X44528366Y-54191688D01*
X44524932Y-54183397D01*
X44524931Y-54183394D01*
X44524931Y-54183393D01*
X44510331Y-54148147D01*
X44497312Y-54116715D01*
X44428858Y-54014267D01*
X44428855Y-54014263D01*
X40776237Y-50361647D01*
X40742752Y-50300324D01*
X40744143Y-50241872D01*
X40744293Y-50241313D01*
X40771063Y-50141408D01*
X40791659Y-49906000D01*
X40771063Y-49670592D01*
X40719822Y-49479354D01*
X40709905Y-49442344D01*
X40709904Y-49442343D01*
X40709903Y-49442337D01*
X40610035Y-49228171D01*
X40592071Y-49202516D01*
X40474496Y-49034600D01*
X40428316Y-48988420D01*
X40352567Y-48912671D01*
X40319084Y-48851351D01*
X40324068Y-48781659D01*
X40365939Y-48725725D01*
X40396915Y-48708810D01*
X40528331Y-48659796D01*
X40643546Y-48573546D01*
X40729796Y-48458331D01*
X40780091Y-48323483D01*
X40786500Y-48263873D01*
X40786499Y-46468128D01*
X40780091Y-46408517D01*
X40779059Y-46405751D01*
X40729797Y-46273671D01*
X40729793Y-46273664D01*
X40643547Y-46158455D01*
X40643544Y-46158452D01*
X40528335Y-46072206D01*
X40528328Y-46072202D01*
X40393482Y-46021908D01*
X40393483Y-46021908D01*
X40333883Y-46015501D01*
X40333881Y-46015500D01*
X40333873Y-46015500D01*
X40333864Y-46015500D01*
X38538129Y-46015500D01*
X38538123Y-46015501D01*
X38478516Y-46021908D01*
X38343671Y-46072202D01*
X38343664Y-46072206D01*
X38228455Y-46158452D01*
X38228452Y-46158455D01*
X38142206Y-46273664D01*
X38142202Y-46273671D01*
X38091908Y-46408517D01*
X38086275Y-46460916D01*
X38085501Y-46468123D01*
X38085500Y-46468135D01*
X38085500Y-48263870D01*
X38085501Y-48263876D01*
X38091908Y-48323483D01*
X38142202Y-48458328D01*
X38142206Y-48458335D01*
X38228452Y-48573544D01*
X38228455Y-48573547D01*
X38343664Y-48659793D01*
X38343671Y-48659797D01*
X38475081Y-48708810D01*
X38531015Y-48750681D01*
X38555432Y-48816145D01*
X38540580Y-48884418D01*
X38519430Y-48912673D01*
X38397503Y-49034600D01*
X38261965Y-49228169D01*
X38261964Y-49228171D01*
X38162098Y-49442335D01*
X38162094Y-49442344D01*
X38100938Y-49670586D01*
X38100936Y-49670596D01*
X38080341Y-49905999D01*
X38080341Y-49906000D01*
X38100936Y-50141403D01*
X38100938Y-50141413D01*
X38162094Y-50369655D01*
X38162096Y-50369659D01*
X38162097Y-50369663D01*
X38213122Y-50479086D01*
X38261965Y-50583830D01*
X38261967Y-50583834D01*
X38397501Y-50777395D01*
X38397506Y-50777402D01*
X38564597Y-50944493D01*
X38564603Y-50944498D01*
X38750158Y-51074425D01*
X38793783Y-51129002D01*
X38800977Y-51198500D01*
X38769454Y-51260855D01*
X38750158Y-51277575D01*
X38564597Y-51407505D01*
X38397505Y-51574597D01*
X38261965Y-51768169D01*
X38261964Y-51768171D01*
X38162098Y-51982335D01*
X38162094Y-51982344D01*
X38100938Y-52210586D01*
X38100936Y-52210596D01*
X38080341Y-52445999D01*
X38080341Y-52446000D01*
X38100936Y-52681403D01*
X38100938Y-52681413D01*
X38162094Y-52909655D01*
X38162096Y-52909659D01*
X38162097Y-52909663D01*
X38212730Y-53018245D01*
X38261965Y-53123830D01*
X38261967Y-53123834D01*
X38351162Y-53251217D01*
X38397501Y-53317396D01*
X38397506Y-53317402D01*
X38564597Y-53484493D01*
X38564603Y-53484498D01*
X38750158Y-53614425D01*
X38793783Y-53669002D01*
X38800977Y-53738500D01*
X38769454Y-53800855D01*
X38750158Y-53817575D01*
X38564597Y-53947505D01*
X38397505Y-54114597D01*
X38261965Y-54308169D01*
X38261964Y-54308171D01*
X38162098Y-54522335D01*
X38162094Y-54522344D01*
X38100938Y-54750586D01*
X38100936Y-54750596D01*
X38080341Y-54985999D01*
X38080341Y-54986000D01*
X38100936Y-55221403D01*
X38100938Y-55221413D01*
X38162094Y-55449655D01*
X38162096Y-55449659D01*
X38162097Y-55449663D01*
X38240312Y-55617395D01*
X38261965Y-55663830D01*
X38261967Y-55663834D01*
X38346458Y-55784498D01*
X38374544Y-55824610D01*
X38397501Y-55857395D01*
X38397506Y-55857402D01*
X38564597Y-56024493D01*
X38564603Y-56024498D01*
X38750158Y-56154425D01*
X38793783Y-56209002D01*
X38800977Y-56278500D01*
X38769454Y-56340855D01*
X38750158Y-56357575D01*
X38564597Y-56487505D01*
X38397505Y-56654597D01*
X38261965Y-56848169D01*
X38261964Y-56848171D01*
X38162098Y-57062335D01*
X38162094Y-57062344D01*
X38100938Y-57290586D01*
X38100936Y-57290596D01*
X38080341Y-57525999D01*
X38080341Y-57526000D01*
X38100936Y-57761403D01*
X38100938Y-57761413D01*
X38162094Y-57989655D01*
X38162096Y-57989659D01*
X38162097Y-57989663D01*
X38251973Y-58182402D01*
X38261965Y-58203830D01*
X38261967Y-58203834D01*
X38397501Y-58397395D01*
X38397506Y-58397402D01*
X38564597Y-58564493D01*
X38564603Y-58564498D01*
X38750158Y-58694425D01*
X38793783Y-58749002D01*
X38800977Y-58818500D01*
X38769454Y-58880855D01*
X38750158Y-58897575D01*
X38564597Y-59027505D01*
X38397505Y-59194597D01*
X38261965Y-59388169D01*
X38261964Y-59388171D01*
X38162098Y-59602335D01*
X38162094Y-59602344D01*
X38100938Y-59830586D01*
X38100936Y-59830596D01*
X38080341Y-60065999D01*
X38080341Y-60066000D01*
X38100936Y-60301403D01*
X38100938Y-60301413D01*
X38162094Y-60529655D01*
X38162095Y-60529657D01*
X38162097Y-60529663D01*
X38240315Y-60697401D01*
X38261965Y-60743830D01*
X38261967Y-60743834D01*
X38397501Y-60937395D01*
X38397506Y-60937402D01*
X38564597Y-61104493D01*
X38564603Y-61104498D01*
X38750158Y-61234425D01*
X38793783Y-61289002D01*
X38800977Y-61358500D01*
X38769454Y-61420855D01*
X38750158Y-61437575D01*
X38564597Y-61567505D01*
X38397505Y-61734597D01*
X38261965Y-61928169D01*
X38261964Y-61928171D01*
X38162098Y-62142335D01*
X38162094Y-62142344D01*
X38100938Y-62370586D01*
X38100936Y-62370596D01*
X38080341Y-62605999D01*
X38080341Y-62606000D01*
X38100936Y-62841403D01*
X38100938Y-62841413D01*
X38162094Y-63069655D01*
X38162096Y-63069659D01*
X38162097Y-63069663D01*
X38252658Y-63263872D01*
X38261965Y-63283830D01*
X38261967Y-63283834D01*
X38397501Y-63477395D01*
X38397506Y-63477402D01*
X38564597Y-63644493D01*
X38564603Y-63644498D01*
X38591984Y-63663670D01*
X38758170Y-63780035D01*
X38758171Y-63780035D01*
X38762605Y-63783140D01*
X38761220Y-63785117D01*
X38802393Y-63828281D01*
X38813806Y-63860932D01*
X38834535Y-63965144D01*
X38834540Y-63965161D01*
X38881685Y-64078980D01*
X38881690Y-64078989D01*
X38915914Y-64130207D01*
X38915915Y-64130209D01*
X38950140Y-64181431D01*
X38950141Y-64181432D01*
X38950142Y-64181433D01*
X39037267Y-64268558D01*
X39037268Y-64268558D01*
X39044335Y-64275625D01*
X39044334Y-64275625D01*
X39044338Y-64275628D01*
X41006181Y-66237471D01*
X41039666Y-66298794D01*
X41042500Y-66325152D01*
X41042500Y-73619755D01*
X41022815Y-73686794D01*
X41006181Y-73707436D01*
X38374534Y-76339083D01*
X35719270Y-78994347D01*
X35719267Y-78994350D01*
X35696042Y-79017575D01*
X35632142Y-79081474D01*
X35611550Y-79112293D01*
X35611549Y-79112292D01*
X35563689Y-79183920D01*
X35563685Y-79183927D01*
X35556561Y-79201128D01*
X35512721Y-79255532D01*
X35446427Y-79277597D01*
X35378727Y-79260318D01*
X35331116Y-79209181D01*
X35318000Y-79153676D01*
X35318000Y-26300983D01*
X37728000Y-26300983D01*
X37728000Y-27301001D01*
X37728001Y-27301019D01*
X37738500Y-27403796D01*
X37738501Y-27403799D01*
X37793685Y-27570331D01*
X37793687Y-27570336D01*
X37823524Y-27618709D01*
X37885446Y-27719102D01*
X37885789Y-27719657D01*
X37954181Y-27788049D01*
X37987666Y-27849372D01*
X37990500Y-27875730D01*
X37990500Y-35584918D01*
X37990500Y-35584920D01*
X37990499Y-35584920D01*
X38019340Y-35729907D01*
X38019343Y-35729917D01*
X38075914Y-35866491D01*
X38075916Y-35866495D01*
X38088955Y-35886009D01*
X38099166Y-35901292D01*
X38158049Y-35989418D01*
X38158052Y-35989421D01*
X54063130Y-51894497D01*
X54096615Y-51955820D01*
X54098977Y-51992985D01*
X54080341Y-52205997D01*
X54080341Y-52206000D01*
X54100936Y-52441403D01*
X54100938Y-52441413D01*
X54162094Y-52669655D01*
X54162096Y-52669659D01*
X54162097Y-52669663D01*
X54220753Y-52795451D01*
X54261965Y-52883830D01*
X54261967Y-52883834D01*
X54397501Y-53077395D01*
X54397506Y-53077402D01*
X54564597Y-53244493D01*
X54564603Y-53244498D01*
X54750158Y-53374425D01*
X54793783Y-53429002D01*
X54800977Y-53498500D01*
X54769454Y-53560855D01*
X54750158Y-53577575D01*
X54564597Y-53707505D01*
X54397505Y-53874597D01*
X54261965Y-54068169D01*
X54261964Y-54068171D01*
X54162098Y-54282335D01*
X54162094Y-54282344D01*
X54100938Y-54510586D01*
X54100936Y-54510596D01*
X54080341Y-54745999D01*
X54080341Y-54746000D01*
X54100936Y-54981403D01*
X54100938Y-54981413D01*
X54162094Y-55209655D01*
X54162096Y-55209659D01*
X54162097Y-55209663D01*
X54216433Y-55326186D01*
X54261965Y-55423830D01*
X54261967Y-55423834D01*
X54397501Y-55617395D01*
X54397506Y-55617402D01*
X54564597Y-55784493D01*
X54564603Y-55784498D01*
X54750158Y-55914425D01*
X54793783Y-55969002D01*
X54800977Y-56038500D01*
X54769454Y-56100855D01*
X54750158Y-56117575D01*
X54564597Y-56247505D01*
X54397505Y-56414597D01*
X54261965Y-56608169D01*
X54261964Y-56608171D01*
X54162098Y-56822335D01*
X54162094Y-56822344D01*
X54100938Y-57050586D01*
X54100936Y-57050596D01*
X54080341Y-57285999D01*
X54080341Y-57286000D01*
X54100936Y-57521403D01*
X54100938Y-57521413D01*
X54127856Y-57621872D01*
X54126193Y-57691722D01*
X54095762Y-57741646D01*
X52451910Y-59385499D01*
X50819270Y-61018139D01*
X50819267Y-61018142D01*
X50775704Y-61061704D01*
X50732142Y-61105266D01*
X50719206Y-61124626D01*
X50706357Y-61143857D01*
X50663690Y-61207710D01*
X50663685Y-61207719D01*
X50637501Y-61270936D01*
X50637501Y-61270937D01*
X50616538Y-61321545D01*
X50616535Y-61321555D01*
X50592500Y-61442389D01*
X50592500Y-72264848D01*
X50572815Y-72331887D01*
X50556181Y-72352529D01*
X50082582Y-72826127D01*
X50021259Y-72859612D01*
X49951567Y-72854628D01*
X49922016Y-72838764D01*
X49770734Y-72728851D01*
X49770729Y-72728848D01*
X49597807Y-72651857D01*
X49597802Y-72651855D01*
X49452001Y-72620865D01*
X49412646Y-72612500D01*
X49223354Y-72612500D01*
X49190897Y-72619398D01*
X49038197Y-72651855D01*
X49038192Y-72651857D01*
X48865270Y-72728848D01*
X48865265Y-72728851D01*
X48712129Y-72840111D01*
X48585466Y-72980785D01*
X48490821Y-73144715D01*
X48490818Y-73144722D01*
X48455489Y-73253455D01*
X48432326Y-73324744D01*
X48412540Y-73513000D01*
X48432326Y-73701256D01*
X48432327Y-73701259D01*
X48490818Y-73881277D01*
X48490821Y-73881284D01*
X48585467Y-74045216D01*
X48646206Y-74112673D01*
X48712129Y-74185888D01*
X48865265Y-74297148D01*
X48865270Y-74297151D01*
X49038192Y-74374142D01*
X49038197Y-74374144D01*
X49223354Y-74413500D01*
X49223355Y-74413500D01*
X49412644Y-74413500D01*
X49412646Y-74413500D01*
X49597803Y-74374144D01*
X49770730Y-74297151D01*
X49922018Y-74187233D01*
X49987822Y-74163755D01*
X50055875Y-74179580D01*
X50082582Y-74199872D01*
X50206181Y-74323471D01*
X50239666Y-74384794D01*
X50242500Y-74411152D01*
X50242500Y-86404604D01*
X50266536Y-86525450D01*
X50266539Y-86525459D01*
X50267879Y-86528693D01*
X50267880Y-86528695D01*
X50313685Y-86639281D01*
X50313690Y-86639290D01*
X50339891Y-86678501D01*
X50339892Y-86678502D01*
X50382140Y-86741731D01*
X50382141Y-86741732D01*
X50382142Y-86741733D01*
X50469267Y-86828858D01*
X50469268Y-86828858D01*
X50476335Y-86835925D01*
X50476334Y-86835925D01*
X50476338Y-86835928D01*
X54077761Y-90437352D01*
X54111246Y-90498675D01*
X54109855Y-90557124D01*
X54082937Y-90657589D01*
X54082937Y-90657590D01*
X54062341Y-90892999D01*
X54062341Y-90893000D01*
X54082936Y-91128403D01*
X54082938Y-91128413D01*
X54144094Y-91356655D01*
X54144096Y-91356660D01*
X54144097Y-91356663D01*
X54203678Y-91484435D01*
X54243965Y-91570830D01*
X54243967Y-91570834D01*
X54379501Y-91764395D01*
X54379506Y-91764402D01*
X54546597Y-91931493D01*
X54546603Y-91931498D01*
X54732158Y-92061425D01*
X54775783Y-92116002D01*
X54782977Y-92185500D01*
X54751454Y-92247855D01*
X54732158Y-92264575D01*
X54546597Y-92394505D01*
X54379505Y-92561597D01*
X54243965Y-92755169D01*
X54243964Y-92755171D01*
X54144098Y-92969335D01*
X54144094Y-92969344D01*
X54082938Y-93197586D01*
X54082936Y-93197596D01*
X54062341Y-93432999D01*
X54062341Y-93433000D01*
X54082936Y-93668403D01*
X54082938Y-93668413D01*
X54144094Y-93896655D01*
X54144096Y-93896659D01*
X54144097Y-93896663D01*
X54223250Y-94066406D01*
X54243965Y-94110830D01*
X54243967Y-94110834D01*
X54322157Y-94222500D01*
X54379501Y-94304396D01*
X54379506Y-94304402D01*
X54501430Y-94426326D01*
X54534915Y-94487649D01*
X54529931Y-94557341D01*
X54488059Y-94613274D01*
X54457083Y-94630189D01*
X54325669Y-94679203D01*
X54325664Y-94679206D01*
X54210455Y-94765452D01*
X54210452Y-94765455D01*
X54124206Y-94880664D01*
X54124202Y-94880671D01*
X54073908Y-95015517D01*
X54067501Y-95075116D01*
X54067500Y-95075128D01*
X54067500Y-96870870D01*
X54067501Y-96870876D01*
X54073908Y-96930483D01*
X54124202Y-97065328D01*
X54124206Y-97065335D01*
X54210452Y-97180544D01*
X54210455Y-97180547D01*
X54325664Y-97266793D01*
X54325671Y-97266797D01*
X54460517Y-97317091D01*
X54460516Y-97317091D01*
X54467444Y-97317835D01*
X54520127Y-97323500D01*
X56315872Y-97323499D01*
X56375483Y-97317091D01*
X56510331Y-97266796D01*
X56625546Y-97180546D01*
X56711796Y-97065331D01*
X56762091Y-96930483D01*
X56768500Y-96870873D01*
X56768499Y-95075128D01*
X56762091Y-95015517D01*
X56761756Y-95014620D01*
X56711797Y-94880671D01*
X56711793Y-94880664D01*
X56625547Y-94765455D01*
X56625544Y-94765452D01*
X56510335Y-94679206D01*
X56510328Y-94679202D01*
X56378917Y-94630189D01*
X56322983Y-94588318D01*
X56298566Y-94522853D01*
X56313418Y-94454580D01*
X56334563Y-94426332D01*
X56456495Y-94304401D01*
X56592035Y-94110830D01*
X56691903Y-93896663D01*
X56753063Y-93668408D01*
X56773659Y-93433000D01*
X56753063Y-93197592D01*
X56726143Y-93097125D01*
X56727806Y-93027277D01*
X56758237Y-92977352D01*
X56933991Y-92801599D01*
X57553857Y-92181734D01*
X57622311Y-92079286D01*
X57627386Y-92067035D01*
X57669463Y-91965452D01*
X57683775Y-91893500D01*
X57693500Y-91844607D01*
X57693500Y-91721394D01*
X57693500Y-89449229D01*
X57713185Y-89382190D01*
X57765989Y-89336435D01*
X57835147Y-89326491D01*
X57898703Y-89355516D01*
X57905181Y-89361548D01*
X63902281Y-95358648D01*
X63935766Y-95419971D01*
X63938600Y-95446329D01*
X63938600Y-96448018D01*
X63938600Y-96448020D01*
X63938599Y-96448020D01*
X63967440Y-96593007D01*
X63967443Y-96593017D01*
X64024014Y-96729592D01*
X64037742Y-96750137D01*
X64037743Y-96750140D01*
X64106146Y-96852514D01*
X64106152Y-96852521D01*
X65788130Y-98534497D01*
X65821615Y-98595820D01*
X65823977Y-98632985D01*
X65805341Y-98845997D01*
X65805341Y-98846000D01*
X65825936Y-99081403D01*
X65825938Y-99081413D01*
X65887094Y-99309655D01*
X65887096Y-99309659D01*
X65887097Y-99309663D01*
X65956712Y-99458952D01*
X65986965Y-99523830D01*
X65986967Y-99523834D01*
X66122501Y-99717395D01*
X66122506Y-99717402D01*
X66244430Y-99839326D01*
X66277915Y-99900649D01*
X66272931Y-99970341D01*
X66231059Y-100026274D01*
X66200083Y-100043189D01*
X66068669Y-100092203D01*
X66068664Y-100092206D01*
X65953455Y-100178452D01*
X65953452Y-100178455D01*
X65867206Y-100293664D01*
X65867202Y-100293671D01*
X65816908Y-100428517D01*
X65810501Y-100488116D01*
X65810501Y-100488123D01*
X65810500Y-100488135D01*
X65810500Y-102283870D01*
X65810501Y-102283876D01*
X65816908Y-102343483D01*
X65867202Y-102478328D01*
X65867206Y-102478335D01*
X65953452Y-102593544D01*
X65953455Y-102593547D01*
X66068664Y-102679793D01*
X66068671Y-102679797D01*
X66203517Y-102730091D01*
X66203516Y-102730091D01*
X66210444Y-102730835D01*
X66263127Y-102736500D01*
X68058872Y-102736499D01*
X68118483Y-102730091D01*
X68253331Y-102679796D01*
X68368546Y-102593546D01*
X68454796Y-102478331D01*
X68505091Y-102343483D01*
X68511500Y-102283873D01*
X68511499Y-100488128D01*
X68505091Y-100428517D01*
X68486063Y-100377501D01*
X68454797Y-100293671D01*
X68454793Y-100293664D01*
X68368547Y-100178455D01*
X68368544Y-100178452D01*
X68253335Y-100092206D01*
X68253328Y-100092202D01*
X68121917Y-100043189D01*
X68065983Y-100001318D01*
X68041566Y-99935853D01*
X68056418Y-99867580D01*
X68077563Y-99839332D01*
X68199495Y-99717401D01*
X68247127Y-99649376D01*
X68301704Y-99605751D01*
X68348701Y-99596500D01*
X75335382Y-99596500D01*
X75523299Y-99596500D01*
X75590338Y-99616185D01*
X75624873Y-99649376D01*
X75672505Y-99717401D01*
X75794430Y-99839326D01*
X75827915Y-99900649D01*
X75822931Y-99970341D01*
X75781059Y-100026274D01*
X75750083Y-100043189D01*
X75618669Y-100092203D01*
X75618664Y-100092206D01*
X75503455Y-100178452D01*
X75503452Y-100178455D01*
X75417206Y-100293664D01*
X75417202Y-100293671D01*
X75366908Y-100428517D01*
X75360501Y-100488116D01*
X75360501Y-100488123D01*
X75360500Y-100488135D01*
X75360500Y-102283870D01*
X75360501Y-102283876D01*
X75366908Y-102343483D01*
X75417202Y-102478328D01*
X75417206Y-102478335D01*
X75503452Y-102593544D01*
X75503455Y-102593547D01*
X75618664Y-102679793D01*
X75618671Y-102679797D01*
X75753517Y-102730091D01*
X75753516Y-102730091D01*
X75760444Y-102730835D01*
X75813127Y-102736500D01*
X77608872Y-102736499D01*
X77668483Y-102730091D01*
X77803331Y-102679796D01*
X77918546Y-102593546D01*
X78004796Y-102478331D01*
X78055091Y-102343483D01*
X78061500Y-102283873D01*
X78061499Y-100488128D01*
X78055091Y-100428517D01*
X78036063Y-100377501D01*
X78004797Y-100293671D01*
X78004793Y-100293664D01*
X77918547Y-100178455D01*
X77918544Y-100178452D01*
X77803335Y-100092206D01*
X77803328Y-100092202D01*
X77671917Y-100043189D01*
X77615983Y-100001318D01*
X77591566Y-99935853D01*
X77606418Y-99867580D01*
X77627563Y-99839332D01*
X77749495Y-99717401D01*
X77797127Y-99649376D01*
X77851704Y-99605751D01*
X77898701Y-99596500D01*
X78086620Y-99596500D01*
X78184162Y-99577096D01*
X78231613Y-99567658D01*
X78368195Y-99511084D01*
X78417429Y-99478186D01*
X78491116Y-99428952D01*
X81020818Y-96899247D01*
X81082141Y-96865763D01*
X81151833Y-96870747D01*
X81196180Y-96899248D01*
X83755886Y-99458954D01*
X83780658Y-99475505D01*
X83793046Y-99483782D01*
X83878805Y-99541084D01*
X83909575Y-99553829D01*
X83909576Y-99553830D01*
X83909577Y-99553830D01*
X84015388Y-99597659D01*
X84131541Y-99620763D01*
X84150768Y-99624587D01*
X84160381Y-99626500D01*
X84160382Y-99626500D01*
X84160383Y-99626500D01*
X84308218Y-99626500D01*
X84348299Y-99626500D01*
X84415338Y-99646185D01*
X84449873Y-99679376D01*
X84497505Y-99747401D01*
X84664597Y-99914493D01*
X84664603Y-99914498D01*
X84850158Y-100044425D01*
X84893783Y-100099002D01*
X84900977Y-100168500D01*
X84869454Y-100230855D01*
X84850158Y-100247575D01*
X84664597Y-100377505D01*
X84497505Y-100544597D01*
X84361965Y-100738169D01*
X84361964Y-100738171D01*
X84262098Y-100952335D01*
X84262094Y-100952344D01*
X84200938Y-101180586D01*
X84200936Y-101180596D01*
X84180341Y-101415999D01*
X84180341Y-101416000D01*
X84200936Y-101651403D01*
X84200938Y-101651413D01*
X84262094Y-101879655D01*
X84262096Y-101879659D01*
X84262097Y-101879663D01*
X84361965Y-102093830D01*
X84361967Y-102093834D01*
X84470281Y-102248521D01*
X84497505Y-102287401D01*
X84664599Y-102454495D01*
X84698646Y-102478335D01*
X84858165Y-102590032D01*
X84858167Y-102590033D01*
X84858170Y-102590035D01*
X85072337Y-102689903D01*
X85300592Y-102751063D01*
X85488918Y-102767539D01*
X85535999Y-102771659D01*
X85536000Y-102771659D01*
X85536001Y-102771659D01*
X85575234Y-102768226D01*
X85771408Y-102751063D01*
X85999663Y-102689903D01*
X86213830Y-102590035D01*
X86407401Y-102454495D01*
X86574495Y-102287401D01*
X86710035Y-102093830D01*
X86809903Y-101879663D01*
X86871063Y-101651408D01*
X86891659Y-101416000D01*
X86871063Y-101180592D01*
X86809903Y-100952337D01*
X86710035Y-100738171D01*
X86574495Y-100544599D01*
X86574494Y-100544597D01*
X86407402Y-100377506D01*
X86407396Y-100377501D01*
X86221842Y-100247575D01*
X86178217Y-100192998D01*
X86171023Y-100123500D01*
X86202546Y-100061145D01*
X86221842Y-100044425D01*
X86283405Y-100001318D01*
X86407401Y-99914495D01*
X86574495Y-99747401D01*
X86710035Y-99553830D01*
X86809903Y-99339663D01*
X86871063Y-99111408D01*
X86891659Y-98876000D01*
X86891659Y-98875999D01*
X93180341Y-98875999D01*
X93180341Y-98876000D01*
X93200936Y-99111403D01*
X93200938Y-99111413D01*
X93262094Y-99339655D01*
X93262096Y-99339659D01*
X93262097Y-99339663D01*
X93361965Y-99553830D01*
X93476499Y-99717402D01*
X93497501Y-99747395D01*
X93497506Y-99747402D01*
X93664597Y-99914493D01*
X93664603Y-99914498D01*
X93850158Y-100044425D01*
X93893783Y-100099002D01*
X93900977Y-100168500D01*
X93869454Y-100230855D01*
X93850158Y-100247575D01*
X93664597Y-100377505D01*
X93497505Y-100544597D01*
X93361965Y-100738169D01*
X93361964Y-100738171D01*
X93262098Y-100952335D01*
X93262094Y-100952344D01*
X93200938Y-101180586D01*
X93200936Y-101180596D01*
X93180341Y-101415999D01*
X93180341Y-101416000D01*
X93200936Y-101651403D01*
X93200938Y-101651413D01*
X93262094Y-101879655D01*
X93262096Y-101879659D01*
X93262097Y-101879663D01*
X93361965Y-102093830D01*
X93361967Y-102093834D01*
X93470281Y-102248521D01*
X93497505Y-102287401D01*
X93664599Y-102454495D01*
X93698646Y-102478335D01*
X93858165Y-102590032D01*
X93858167Y-102590033D01*
X93858170Y-102590035D01*
X94072337Y-102689903D01*
X94300592Y-102751063D01*
X94488918Y-102767539D01*
X94535999Y-102771659D01*
X94536000Y-102771659D01*
X94536001Y-102771659D01*
X94575234Y-102768226D01*
X94771408Y-102751063D01*
X94999663Y-102689903D01*
X95213830Y-102590035D01*
X95407401Y-102454495D01*
X95574495Y-102287401D01*
X95710035Y-102093830D01*
X95809903Y-101879663D01*
X95871063Y-101651408D01*
X95891659Y-101416000D01*
X95871063Y-101180592D01*
X95809903Y-100952337D01*
X95710035Y-100738171D01*
X95574495Y-100544599D01*
X95574494Y-100544597D01*
X95407402Y-100377506D01*
X95407396Y-100377501D01*
X95221842Y-100247575D01*
X95178217Y-100192998D01*
X95171023Y-100123500D01*
X95202546Y-100061145D01*
X95221842Y-100044425D01*
X95283405Y-100001318D01*
X95407401Y-99914495D01*
X95574495Y-99747401D01*
X95710035Y-99553830D01*
X95809903Y-99339663D01*
X95871063Y-99111408D01*
X95891659Y-98876000D01*
X95871063Y-98640592D01*
X95809903Y-98412337D01*
X95710035Y-98198171D01*
X95638144Y-98095500D01*
X95574496Y-98004600D01*
X95521933Y-97952037D01*
X95452179Y-97882283D01*
X95418696Y-97820963D01*
X95423680Y-97751271D01*
X95465551Y-97695337D01*
X95496529Y-97678422D01*
X95628086Y-97629354D01*
X95628093Y-97629350D01*
X95743187Y-97543190D01*
X95743190Y-97543187D01*
X95829350Y-97428093D01*
X95829354Y-97428086D01*
X95879596Y-97293379D01*
X95879598Y-97293372D01*
X95885999Y-97233844D01*
X95886000Y-97233827D01*
X95886000Y-96586000D01*
X94969012Y-96586000D01*
X95001925Y-96528993D01*
X95036000Y-96401826D01*
X95036000Y-96270174D01*
X95001925Y-96143007D01*
X94969012Y-96086000D01*
X95886000Y-96086000D01*
X95886000Y-95438172D01*
X95885999Y-95438155D01*
X95879598Y-95378627D01*
X95879596Y-95378620D01*
X95829354Y-95243913D01*
X95829350Y-95243906D01*
X95743190Y-95128812D01*
X95743187Y-95128809D01*
X95628093Y-95042649D01*
X95628086Y-95042645D01*
X95493379Y-94992403D01*
X95493372Y-94992401D01*
X95433844Y-94986000D01*
X94786000Y-94986000D01*
X94786000Y-95902988D01*
X94728993Y-95870075D01*
X94601826Y-95836000D01*
X94470174Y-95836000D01*
X94343007Y-95870075D01*
X94286000Y-95902988D01*
X94286000Y-94986000D01*
X93638155Y-94986000D01*
X93578627Y-94992401D01*
X93578620Y-94992403D01*
X93443913Y-95042645D01*
X93443906Y-95042649D01*
X93328812Y-95128809D01*
X93328809Y-95128812D01*
X93242649Y-95243906D01*
X93242645Y-95243913D01*
X93192403Y-95378620D01*
X93192401Y-95378627D01*
X93186000Y-95438155D01*
X93186000Y-96086000D01*
X94102988Y-96086000D01*
X94070075Y-96143007D01*
X94036000Y-96270174D01*
X94036000Y-96401826D01*
X94070075Y-96528993D01*
X94102988Y-96586000D01*
X93186000Y-96586000D01*
X93186000Y-97233844D01*
X93192401Y-97293372D01*
X93192403Y-97293379D01*
X93242645Y-97428086D01*
X93242649Y-97428093D01*
X93328809Y-97543187D01*
X93328812Y-97543190D01*
X93443906Y-97629350D01*
X93443913Y-97629354D01*
X93575470Y-97678421D01*
X93631403Y-97720292D01*
X93655821Y-97785756D01*
X93640970Y-97854029D01*
X93619819Y-97882284D01*
X93497503Y-98004600D01*
X93361965Y-98198169D01*
X93361964Y-98198171D01*
X93262098Y-98412335D01*
X93262094Y-98412344D01*
X93200938Y-98640586D01*
X93200936Y-98640596D01*
X93180341Y-98875999D01*
X86891659Y-98875999D01*
X86871063Y-98640592D01*
X86809903Y-98412337D01*
X86710035Y-98198171D01*
X86638144Y-98095500D01*
X86574496Y-98004600D01*
X86521933Y-97952037D01*
X86452179Y-97882283D01*
X86418696Y-97820963D01*
X86423680Y-97751271D01*
X86465551Y-97695337D01*
X86496529Y-97678422D01*
X86628086Y-97629354D01*
X86628093Y-97629350D01*
X86743187Y-97543190D01*
X86743190Y-97543187D01*
X86829350Y-97428093D01*
X86829354Y-97428086D01*
X86879596Y-97293379D01*
X86879598Y-97293372D01*
X86885999Y-97233844D01*
X86886000Y-97233827D01*
X86886000Y-96586000D01*
X85969012Y-96586000D01*
X86001925Y-96528993D01*
X86036000Y-96401826D01*
X86036000Y-96270174D01*
X86001925Y-96143007D01*
X85969012Y-96086000D01*
X86886000Y-96086000D01*
X86886000Y-95438172D01*
X86885999Y-95438155D01*
X86879598Y-95378627D01*
X86879596Y-95378620D01*
X86829354Y-95243913D01*
X86829350Y-95243906D01*
X86743190Y-95128812D01*
X86743187Y-95128809D01*
X86628093Y-95042649D01*
X86628086Y-95042645D01*
X86493379Y-94992403D01*
X86493372Y-94992401D01*
X86433844Y-94986000D01*
X85786000Y-94986000D01*
X85786000Y-95902988D01*
X85728993Y-95870075D01*
X85601826Y-95836000D01*
X85470174Y-95836000D01*
X85343007Y-95870075D01*
X85286000Y-95902988D01*
X85286000Y-94986000D01*
X84638155Y-94986000D01*
X84578627Y-94992401D01*
X84578620Y-94992403D01*
X84443913Y-95042645D01*
X84443906Y-95042649D01*
X84328812Y-95128809D01*
X84328809Y-95128812D01*
X84242649Y-95243906D01*
X84242645Y-95243913D01*
X84192403Y-95378620D01*
X84192401Y-95378627D01*
X84186000Y-95438155D01*
X84186000Y-96086000D01*
X85102988Y-96086000D01*
X85070075Y-96143007D01*
X85036000Y-96270174D01*
X85036000Y-96401826D01*
X85070075Y-96528993D01*
X85102988Y-96586000D01*
X84186000Y-96586000D01*
X84186000Y-97233844D01*
X84192401Y-97293372D01*
X84192403Y-97293379D01*
X84242645Y-97428086D01*
X84242649Y-97428093D01*
X84328809Y-97543187D01*
X84328812Y-97543190D01*
X84443906Y-97629350D01*
X84443913Y-97629354D01*
X84575470Y-97678421D01*
X84631403Y-97720292D01*
X84655821Y-97785756D01*
X84640970Y-97854029D01*
X84619818Y-97882284D01*
X84548566Y-97953536D01*
X84487243Y-97987021D01*
X84417551Y-97982037D01*
X84373204Y-97953536D01*
X82257549Y-95837881D01*
X82224064Y-95776558D01*
X82229048Y-95706866D01*
X82257549Y-95662519D01*
X82500948Y-95419120D01*
X82500952Y-95419116D01*
X82562923Y-95326368D01*
X82583084Y-95296195D01*
X82639658Y-95159613D01*
X82665349Y-95030458D01*
X82668500Y-95014620D01*
X82668500Y-78041229D01*
X82688185Y-77974190D01*
X82704819Y-77953548D01*
X83053288Y-77605079D01*
X83488985Y-77169381D01*
X83550306Y-77135898D01*
X83619997Y-77140882D01*
X83675931Y-77182754D01*
X83696749Y-77237630D01*
X83699023Y-77237251D01*
X83699866Y-77242305D01*
X83756842Y-77467300D01*
X83850075Y-77679848D01*
X83977016Y-77874147D01*
X83977019Y-77874151D01*
X83977021Y-77874153D01*
X84134216Y-78044913D01*
X84134219Y-78044915D01*
X84134222Y-78044918D01*
X84286528Y-78163463D01*
X84327341Y-78220173D01*
X84331016Y-78289946D01*
X84296384Y-78350629D01*
X84287205Y-78358582D01*
X84287200Y-78358647D01*
X84956591Y-79028037D01*
X84893007Y-79045075D01*
X84778993Y-79110901D01*
X84685901Y-79203993D01*
X84620075Y-79318007D01*
X84603037Y-79381591D01*
X83934811Y-78713365D01*
X83850516Y-78842390D01*
X83757317Y-79054864D01*
X83700361Y-79279781D01*
X83681202Y-79510994D01*
X83681202Y-79511005D01*
X83700361Y-79742218D01*
X83757317Y-79967135D01*
X83850515Y-80179606D01*
X83934812Y-80308633D01*
X84603037Y-79640408D01*
X84620075Y-79703993D01*
X84685901Y-79818007D01*
X84778993Y-79911099D01*
X84893007Y-79976925D01*
X84956590Y-79993962D01*
X84287201Y-80663351D01*
X84317649Y-80687050D01*
X84521697Y-80797476D01*
X84521706Y-80797479D01*
X84741139Y-80872811D01*
X84969993Y-80911000D01*
X85202007Y-80911000D01*
X85430860Y-80872811D01*
X85650293Y-80797479D01*
X85650301Y-80797476D01*
X85854355Y-80687047D01*
X85884797Y-80663351D01*
X85884798Y-80663350D01*
X85818225Y-80596777D01*
X89585500Y-80596777D01*
X89585500Y-82225208D01*
X89585501Y-82225223D01*
X89595904Y-82357413D01*
X89595905Y-82357420D01*
X89650902Y-82575678D01*
X89650903Y-82575681D01*
X89743991Y-82780622D01*
X89743997Y-82780632D01*
X89872174Y-82965645D01*
X89872178Y-82965650D01*
X89872181Y-82965654D01*
X90031346Y-83124819D01*
X90031350Y-83124822D01*
X90031354Y-83124825D01*
X90063362Y-83147000D01*
X90216374Y-83253007D01*
X90421317Y-83346096D01*
X90421321Y-83346097D01*
X90639579Y-83401094D01*
X90639581Y-83401094D01*
X90639588Y-83401096D01*
X90771783Y-83411500D01*
X93400216Y-83411499D01*
X93532412Y-83401096D01*
X93750683Y-83346096D01*
X93955626Y-83253007D01*
X94140654Y-83124819D01*
X94299819Y-82965654D01*
X94428007Y-82780626D01*
X94521096Y-82575683D01*
X94576096Y-82357412D01*
X94586500Y-82225217D01*
X94586499Y-80596784D01*
X94576096Y-80464588D01*
X94570236Y-80441334D01*
X94521097Y-80246321D01*
X94521096Y-80246318D01*
X94493698Y-80186000D01*
X94428007Y-80041374D01*
X94383357Y-79976925D01*
X94299825Y-79856354D01*
X94299822Y-79856350D01*
X94299819Y-79856346D01*
X94140654Y-79697181D01*
X94140650Y-79697178D01*
X94140645Y-79697174D01*
X93955632Y-79568997D01*
X93955630Y-79568995D01*
X93955626Y-79568993D01*
X93944204Y-79563805D01*
X93750681Y-79475903D01*
X93750678Y-79475902D01*
X93532420Y-79420905D01*
X93532413Y-79420904D01*
X93486581Y-79417297D01*
X93400217Y-79410500D01*
X93400215Y-79410500D01*
X90771791Y-79410500D01*
X90771776Y-79410501D01*
X90639586Y-79420904D01*
X90639579Y-79420905D01*
X90421321Y-79475902D01*
X90421318Y-79475903D01*
X90216377Y-79568991D01*
X90216367Y-79568997D01*
X90031354Y-79697174D01*
X90031342Y-79697184D01*
X89872184Y-79856342D01*
X89872174Y-79856354D01*
X89743997Y-80041367D01*
X89743991Y-80041377D01*
X89650903Y-80246318D01*
X89650902Y-80246321D01*
X89595905Y-80464579D01*
X89595904Y-80464586D01*
X89585500Y-80596777D01*
X85818225Y-80596777D01*
X85215410Y-79993962D01*
X85278993Y-79976925D01*
X85393007Y-79911099D01*
X85486099Y-79818007D01*
X85551925Y-79703993D01*
X85568962Y-79640409D01*
X86237186Y-80308633D01*
X86321482Y-80179611D01*
X86414682Y-79967135D01*
X86471638Y-79742218D01*
X86490798Y-79511005D01*
X86490798Y-79510994D01*
X86471638Y-79279781D01*
X86414682Y-79054864D01*
X86321484Y-78842393D01*
X86237186Y-78713365D01*
X85568962Y-79381589D01*
X85551925Y-79318007D01*
X85486099Y-79203993D01*
X85393007Y-79110901D01*
X85278993Y-79045075D01*
X85215409Y-79028037D01*
X85884797Y-78358647D01*
X85884769Y-78358197D01*
X85844656Y-78302459D01*
X85840982Y-78232686D01*
X85875614Y-78172003D01*
X85885455Y-78163474D01*
X86037784Y-78044913D01*
X86194979Y-77874153D01*
X86321924Y-77679849D01*
X86415157Y-77467300D01*
X86472134Y-77242305D01*
X86472135Y-77242297D01*
X86491300Y-77011006D01*
X86491300Y-77010993D01*
X86472135Y-76779702D01*
X86472132Y-76779686D01*
X86462740Y-76742602D01*
X86434823Y-76632361D01*
X86437447Y-76562544D01*
X86467345Y-76514243D01*
X88379229Y-74602360D01*
X88379233Y-74602358D01*
X88466358Y-74515233D01*
X88507936Y-74453007D01*
X88534812Y-74412786D01*
X88572475Y-74321857D01*
X88581963Y-74298952D01*
X88601671Y-74199872D01*
X88605980Y-74178210D01*
X88605999Y-74178113D01*
X88606000Y-74178104D01*
X88606000Y-71710952D01*
X88625685Y-71643913D01*
X88642319Y-71623271D01*
X89390772Y-70874819D01*
X89452095Y-70841334D01*
X89478453Y-70838500D01*
X89790665Y-70838500D01*
X89857704Y-70858185D01*
X89903459Y-70910989D01*
X89913403Y-70980147D01*
X89884378Y-71043703D01*
X89878346Y-71050181D01*
X89872184Y-71056342D01*
X89872174Y-71056354D01*
X89743997Y-71241367D01*
X89743991Y-71241377D01*
X89650903Y-71446318D01*
X89650902Y-71446321D01*
X89595905Y-71664579D01*
X89595904Y-71664586D01*
X89585500Y-71796777D01*
X89585500Y-73425208D01*
X89585501Y-73425223D01*
X89595904Y-73557413D01*
X89595905Y-73557420D01*
X89650902Y-73775678D01*
X89650903Y-73775681D01*
X89743991Y-73980622D01*
X89743997Y-73980632D01*
X89872174Y-74165645D01*
X89872178Y-74165650D01*
X89872181Y-74165654D01*
X90031346Y-74324819D01*
X90031350Y-74324822D01*
X90031354Y-74324825D01*
X90159349Y-74413500D01*
X90216374Y-74453007D01*
X90421317Y-74546096D01*
X90421321Y-74546097D01*
X90639579Y-74601094D01*
X90639581Y-74601094D01*
X90639588Y-74601096D01*
X90771783Y-74611500D01*
X93400216Y-74611499D01*
X93532412Y-74601096D01*
X93750683Y-74546096D01*
X93955626Y-74453007D01*
X94140654Y-74324819D01*
X94299819Y-74165654D01*
X94428007Y-73980626D01*
X94521096Y-73775683D01*
X94576096Y-73557412D01*
X94586500Y-73425217D01*
X94586499Y-71796784D01*
X94576096Y-71664588D01*
X94572276Y-71649430D01*
X94521097Y-71446321D01*
X94521096Y-71446318D01*
X94511471Y-71425128D01*
X94428007Y-71241374D01*
X94360512Y-71143951D01*
X94299825Y-71056354D01*
X94299822Y-71056350D01*
X94299819Y-71056346D01*
X94140654Y-70897181D01*
X94140650Y-70897178D01*
X94140645Y-70897174D01*
X93955632Y-70768997D01*
X93955630Y-70768995D01*
X93955626Y-70768993D01*
X93952702Y-70767665D01*
X93750681Y-70675903D01*
X93750678Y-70675902D01*
X93532420Y-70620905D01*
X93532413Y-70620904D01*
X93400222Y-70610500D01*
X93400217Y-70610500D01*
X92512451Y-70610500D01*
X92445412Y-70590815D01*
X92399657Y-70538011D01*
X92389713Y-70468853D01*
X92418738Y-70405297D01*
X92424770Y-70398819D01*
X93043564Y-69780025D01*
X93674729Y-69148860D01*
X93674733Y-69148858D01*
X93761858Y-69061733D01*
X93796084Y-69010509D01*
X93830312Y-68959286D01*
X93877463Y-68845451D01*
X93877464Y-68845443D01*
X93878989Y-68840421D01*
X93917289Y-68781984D01*
X93945242Y-68764039D01*
X93953830Y-68760035D01*
X94147401Y-68624495D01*
X94314495Y-68457401D01*
X94450035Y-68263830D01*
X94549903Y-68049663D01*
X94611063Y-67821408D01*
X94631659Y-67586000D01*
X94611063Y-67350592D01*
X94549903Y-67122337D01*
X94450035Y-66908171D01*
X94314495Y-66714599D01*
X94314494Y-66714597D01*
X94147402Y-66547506D01*
X94147395Y-66547501D01*
X93953834Y-66411967D01*
X93953830Y-66411965D01*
X93953828Y-66411964D01*
X93739663Y-66312097D01*
X93739659Y-66312096D01*
X93739655Y-66312094D01*
X93511413Y-66250938D01*
X93511403Y-66250936D01*
X93276001Y-66230341D01*
X93275999Y-66230341D01*
X93040596Y-66250936D01*
X93040586Y-66250938D01*
X92812344Y-66312094D01*
X92812335Y-66312098D01*
X92598171Y-66411964D01*
X92598169Y-66411965D01*
X92404600Y-66547503D01*
X92282673Y-66669430D01*
X92221350Y-66702914D01*
X92151658Y-66697930D01*
X92095725Y-66656058D01*
X92078810Y-66625081D01*
X92029797Y-66493671D01*
X92029793Y-66493664D01*
X91943547Y-66378455D01*
X91943544Y-66378452D01*
X91828335Y-66292206D01*
X91828328Y-66292202D01*
X91693482Y-66241908D01*
X91693483Y-66241908D01*
X91633883Y-66235501D01*
X91633881Y-66235500D01*
X91633873Y-66235500D01*
X91633864Y-66235500D01*
X89838129Y-66235500D01*
X89838123Y-66235501D01*
X89778516Y-66241908D01*
X89643671Y-66292202D01*
X89643664Y-66292206D01*
X89528455Y-66378452D01*
X89528452Y-66378455D01*
X89442206Y-66493664D01*
X89442202Y-66493671D01*
X89391908Y-66628517D01*
X89385501Y-66688116D01*
X89385500Y-66688135D01*
X89385500Y-68483870D01*
X89385501Y-68483876D01*
X89391908Y-68543483D01*
X89442202Y-68678328D01*
X89442206Y-68678335D01*
X89528452Y-68793544D01*
X89528455Y-68793547D01*
X89643664Y-68879793D01*
X89643671Y-68879797D01*
X89778517Y-68930091D01*
X89778516Y-68930091D01*
X89785444Y-68930835D01*
X89838127Y-68936500D01*
X91633872Y-68936499D01*
X91693483Y-68930091D01*
X91828331Y-68879796D01*
X91828337Y-68879791D01*
X91834184Y-68876599D01*
X91902456Y-68861742D01*
X91967922Y-68886155D01*
X92009798Y-68942085D01*
X92014787Y-69011776D01*
X91981307Y-69073102D01*
X91981300Y-69073108D01*
X91503229Y-69551181D01*
X91441906Y-69584666D01*
X91415548Y-69587500D01*
X89235741Y-69587500D01*
X89235721Y-69587499D01*
X89229607Y-69587499D01*
X89106394Y-69587499D01*
X89005597Y-69607548D01*
X89005592Y-69607548D01*
X88985549Y-69611536D01*
X88985547Y-69611536D01*
X88938397Y-69631067D01*
X88871719Y-69658685D01*
X88871717Y-69658686D01*
X88769266Y-69727141D01*
X88769263Y-69727144D01*
X87581769Y-70914640D01*
X87494644Y-71001764D01*
X87494638Y-71001772D01*
X87426192Y-71104205D01*
X87426184Y-71104219D01*
X87392847Y-71184706D01*
X87392847Y-71184707D01*
X87379037Y-71218048D01*
X87379035Y-71218054D01*
X87372403Y-71251391D01*
X87372404Y-71251392D01*
X87360131Y-71313101D01*
X87360130Y-71313107D01*
X87355000Y-71338894D01*
X87355000Y-73806047D01*
X87335315Y-73873086D01*
X87318681Y-73893728D01*
X86698180Y-74514229D01*
X86636857Y-74547714D01*
X86567165Y-74542730D01*
X86511232Y-74500858D01*
X86486815Y-74435394D01*
X86486499Y-74426548D01*
X86486499Y-73563129D01*
X86486498Y-73563123D01*
X86486497Y-73563116D01*
X86480091Y-73503517D01*
X86476457Y-73493775D01*
X86429797Y-73368671D01*
X86429793Y-73368664D01*
X86343547Y-73253455D01*
X86343544Y-73253452D01*
X86228335Y-73167206D01*
X86228328Y-73167202D01*
X86093482Y-73116908D01*
X86093483Y-73116908D01*
X86033883Y-73110501D01*
X86033881Y-73110500D01*
X86033873Y-73110500D01*
X86033865Y-73110500D01*
X85960500Y-73110500D01*
X85893461Y-73090815D01*
X85847706Y-73038011D01*
X85836500Y-72986500D01*
X85836500Y-68629930D01*
X85856185Y-68562891D01*
X85872819Y-68542249D01*
X95323948Y-59091120D01*
X95323952Y-59091116D01*
X95397537Y-58980986D01*
X95397539Y-58980984D01*
X95406081Y-58968199D01*
X95406084Y-58968195D01*
X95462658Y-58831613D01*
X95491500Y-58686618D01*
X95491500Y-58498700D01*
X95511185Y-58431661D01*
X95544375Y-58397126D01*
X95612401Y-58349495D01*
X95779495Y-58182401D01*
X95915035Y-57988830D01*
X96014903Y-57774663D01*
X96076063Y-57546408D01*
X96096659Y-57311000D01*
X96094873Y-57290592D01*
X96086239Y-57191898D01*
X96076063Y-57075592D01*
X96029626Y-56902285D01*
X96014905Y-56847344D01*
X96014904Y-56847343D01*
X96014903Y-56847337D01*
X95915035Y-56633171D01*
X95914880Y-56632950D01*
X95779496Y-56439600D01*
X95728395Y-56388499D01*
X95663460Y-56323564D01*
X95629977Y-56262244D01*
X95634961Y-56192552D01*
X95663460Y-56148206D01*
X98300952Y-53510716D01*
X98369549Y-53408051D01*
X98383084Y-53387795D01*
X98439658Y-53251213D01*
X98466992Y-53113799D01*
X98468500Y-53106220D01*
X98468500Y-47404079D01*
X98439659Y-47259092D01*
X98439658Y-47259091D01*
X98439658Y-47259087D01*
X98384532Y-47126000D01*
X98383087Y-47122511D01*
X98383080Y-47122498D01*
X98300952Y-46999585D01*
X98274338Y-46972971D01*
X98196416Y-46895049D01*
X97258869Y-45957502D01*
X97225384Y-45896179D01*
X97223022Y-45859013D01*
X97241659Y-45646000D01*
X97241659Y-45645999D01*
X97221063Y-45410596D01*
X97221063Y-45410592D01*
X97159903Y-45182337D01*
X97060035Y-44968171D01*
X97052550Y-44957480D01*
X96924494Y-44774597D01*
X96757402Y-44607506D01*
X96757396Y-44607501D01*
X96571842Y-44477575D01*
X96528217Y-44422998D01*
X96521023Y-44353500D01*
X96552546Y-44291145D01*
X96571842Y-44274425D01*
X96597580Y-44256403D01*
X96757401Y-44144495D01*
X96924495Y-43977401D01*
X97060035Y-43783830D01*
X97159903Y-43569663D01*
X97221063Y-43341408D01*
X97241659Y-43106000D01*
X97221063Y-42870592D01*
X97194143Y-42770123D01*
X97195806Y-42700277D01*
X97226233Y-42650356D01*
X97561758Y-42314833D01*
X97630212Y-42212385D01*
X97677363Y-42098551D01*
X97701400Y-41977706D01*
X97701400Y-41854493D01*
X97701400Y-32970318D01*
X97707694Y-32931314D01*
X97713498Y-32913799D01*
X97713499Y-32913797D01*
X97724000Y-32811009D01*
X97723999Y-31810992D01*
X97719651Y-31768432D01*
X97713499Y-31708203D01*
X97713498Y-31708200D01*
X97658314Y-31541666D01*
X97566212Y-31392344D01*
X97442156Y-31268288D01*
X97292834Y-31176186D01*
X97126297Y-31121001D01*
X97126295Y-31121000D01*
X97023516Y-31110500D01*
X97023509Y-31110500D01*
X96548000Y-31110500D01*
X96480961Y-31090815D01*
X96435206Y-31038011D01*
X96424000Y-30986500D01*
X96424000Y-29785499D01*
X96443685Y-29718460D01*
X96496489Y-29672705D01*
X96548000Y-29661499D01*
X96998502Y-29661499D01*
X96998508Y-29661499D01*
X97101297Y-29650999D01*
X97267834Y-29595814D01*
X97417156Y-29503712D01*
X97541212Y-29379656D01*
X97633314Y-29230334D01*
X97688499Y-29063797D01*
X97699000Y-28961009D01*
X97698999Y-27960992D01*
X97688499Y-27858203D01*
X97633314Y-27691666D01*
X97541212Y-27542344D01*
X97417156Y-27418288D01*
X97309429Y-27351842D01*
X97267836Y-27326187D01*
X97267831Y-27326185D01*
X97266362Y-27325698D01*
X97101297Y-27271001D01*
X97101295Y-27271000D01*
X96998510Y-27260500D01*
X96373498Y-27260500D01*
X96373480Y-27260501D01*
X96270703Y-27271000D01*
X96270700Y-27271001D01*
X96104168Y-27326185D01*
X96104163Y-27326187D01*
X95954842Y-27418289D01*
X95861181Y-27511951D01*
X95799858Y-27545436D01*
X95730166Y-27540452D01*
X95685819Y-27511951D01*
X95592157Y-27418289D01*
X95592156Y-27418288D01*
X95484429Y-27351842D01*
X95442836Y-27326187D01*
X95442831Y-27326185D01*
X95441362Y-27325698D01*
X95276297Y-27271001D01*
X95276295Y-27271000D01*
X95173510Y-27260500D01*
X94548498Y-27260500D01*
X94548480Y-27260501D01*
X94445703Y-27271000D01*
X94445700Y-27271001D01*
X94279168Y-27326185D01*
X94279163Y-27326187D01*
X94129842Y-27418289D01*
X94005789Y-27542342D01*
X93913687Y-27691663D01*
X93913685Y-27691668D01*
X93894340Y-27750049D01*
X93858501Y-27858203D01*
X93858501Y-27858204D01*
X93858500Y-27858204D01*
X93848000Y-27960983D01*
X93848000Y-28961001D01*
X93848001Y-28961019D01*
X93858500Y-29063796D01*
X93858501Y-29063799D01*
X93898256Y-29183770D01*
X93913686Y-29230334D01*
X94005788Y-29379656D01*
X94129844Y-29503712D01*
X94176596Y-29532548D01*
X94223320Y-29584494D01*
X94235500Y-29638087D01*
X94235500Y-30354000D01*
X94215815Y-30421039D01*
X94163011Y-30466794D01*
X94111500Y-30478000D01*
X92735741Y-30478000D01*
X92735721Y-30477999D01*
X92729607Y-30477999D01*
X92606394Y-30477999D01*
X92505597Y-30498048D01*
X92505592Y-30498048D01*
X92485549Y-30502036D01*
X92485547Y-30502036D01*
X92438397Y-30521567D01*
X92371719Y-30549185D01*
X92371717Y-30549186D01*
X92269268Y-30617640D01*
X92173184Y-30713725D01*
X92062727Y-30824182D01*
X92001407Y-30857666D01*
X91975048Y-30860500D01*
X89611227Y-30860500D01*
X89544188Y-30840815D01*
X89509652Y-30807623D01*
X89374496Y-30614600D01*
X89374495Y-30614599D01*
X89252567Y-30492671D01*
X89219084Y-30431351D01*
X89224068Y-30361659D01*
X89265939Y-30305725D01*
X89296915Y-30288810D01*
X89428331Y-30239796D01*
X89543546Y-30153546D01*
X89629796Y-30038331D01*
X89680091Y-29903483D01*
X89686500Y-29843873D01*
X89686499Y-28048128D01*
X89680091Y-27988517D01*
X89677422Y-27981362D01*
X89629797Y-27853671D01*
X89629793Y-27853664D01*
X89543547Y-27738455D01*
X89543544Y-27738452D01*
X89428335Y-27652206D01*
X89428328Y-27652202D01*
X89293482Y-27601908D01*
X89293483Y-27601908D01*
X89233883Y-27595501D01*
X89233881Y-27595500D01*
X89233873Y-27595500D01*
X89233864Y-27595500D01*
X87438129Y-27595500D01*
X87438123Y-27595501D01*
X87378516Y-27601908D01*
X87243671Y-27652202D01*
X87243664Y-27652206D01*
X87128455Y-27738452D01*
X87128452Y-27738455D01*
X87042206Y-27853664D01*
X87042202Y-27853671D01*
X86991908Y-27988517D01*
X86985675Y-28046499D01*
X86985501Y-28048123D01*
X86985500Y-28048135D01*
X86985500Y-29183770D01*
X86965815Y-29250809D01*
X86949181Y-29271451D01*
X85210048Y-31010583D01*
X85191722Y-31038011D01*
X85172424Y-31066894D01*
X85127919Y-31133499D01*
X85127912Y-31133511D01*
X85071343Y-31270082D01*
X85071340Y-31270092D01*
X85042500Y-31415079D01*
X85042500Y-44771500D01*
X85022815Y-44838539D01*
X84970011Y-44884294D01*
X84918500Y-44895500D01*
X78311076Y-44895500D01*
X78282242Y-44901234D01*
X78282243Y-44901235D01*
X78166093Y-44924339D01*
X78166083Y-44924342D01*
X78086081Y-44957479D01*
X78086082Y-44957480D01*
X78029504Y-44980916D01*
X78029503Y-44980916D01*
X78008854Y-44994713D01*
X78008855Y-44994714D01*
X77906579Y-45063051D01*
X77906578Y-45063052D01*
X73603050Y-49366581D01*
X73603047Y-49366584D01*
X73568362Y-49418496D01*
X73520919Y-49489498D01*
X73520916Y-49489504D01*
X73516729Y-49499612D01*
X73472884Y-49554012D01*
X73415426Y-49575441D01*
X73378516Y-49579409D01*
X73243671Y-49629702D01*
X73243664Y-49629706D01*
X73128455Y-49715952D01*
X73128452Y-49715955D01*
X73042206Y-49831164D01*
X73042202Y-49831171D01*
X72991908Y-49966017D01*
X72985145Y-50028928D01*
X72983561Y-50028757D01*
X72962386Y-50088730D01*
X72907196Y-50131577D01*
X72886021Y-50137791D01*
X72815392Y-50151840D01*
X72815386Y-50151842D01*
X72678808Y-50208414D01*
X72678796Y-50208421D01*
X72629569Y-50241313D01*
X72555888Y-50290544D01*
X72555880Y-50290550D01*
X72410981Y-50435450D01*
X72349658Y-50468935D01*
X72279966Y-50463951D01*
X72224033Y-50422079D01*
X72199616Y-50356615D01*
X72199300Y-50347769D01*
X72199300Y-48163893D01*
X72199299Y-48163889D01*
X72175264Y-48043055D01*
X72175263Y-48043048D01*
X72128111Y-47929214D01*
X72128110Y-47929213D01*
X72128107Y-47929207D01*
X72059659Y-47826768D01*
X72021758Y-47788867D01*
X71982572Y-47749681D01*
X71949089Y-47688361D01*
X71954073Y-47618669D01*
X71982570Y-47574325D01*
X72124495Y-47432401D01*
X72260035Y-47238830D01*
X72359903Y-47024663D01*
X72421063Y-46796408D01*
X72441659Y-46561000D01*
X72437844Y-46517401D01*
X72433534Y-46468129D01*
X72421063Y-46325592D01*
X72359903Y-46097337D01*
X72260035Y-45883171D01*
X72243120Y-45859013D01*
X72124494Y-45689597D01*
X71957402Y-45522506D01*
X71957396Y-45522501D01*
X71771842Y-45392575D01*
X71728217Y-45337998D01*
X71721023Y-45268500D01*
X71752546Y-45206145D01*
X71771842Y-45189425D01*
X71794026Y-45173891D01*
X71957401Y-45059495D01*
X72124495Y-44892401D01*
X72260035Y-44698830D01*
X72359903Y-44484663D01*
X72421063Y-44256408D01*
X72441659Y-44021000D01*
X72437844Y-43977401D01*
X72421063Y-43785596D01*
X72421063Y-43785592D01*
X72359903Y-43557337D01*
X72260035Y-43343171D01*
X72124495Y-43149599D01*
X72124494Y-43149597D01*
X71957402Y-42982506D01*
X71957395Y-42982501D01*
X71763834Y-42846967D01*
X71763830Y-42846965D01*
X71763828Y-42846964D01*
X71549663Y-42747097D01*
X71549659Y-42747096D01*
X71549655Y-42747094D01*
X71321413Y-42685938D01*
X71321403Y-42685936D01*
X71086001Y-42665341D01*
X71085999Y-42665341D01*
X70850596Y-42685936D01*
X70850586Y-42685938D01*
X70622344Y-42747094D01*
X70622335Y-42747098D01*
X70408171Y-42846964D01*
X70408169Y-42846965D01*
X70214600Y-42982503D01*
X70092673Y-43104430D01*
X70031350Y-43137914D01*
X69961658Y-43132930D01*
X69905725Y-43091058D01*
X69888810Y-43060081D01*
X69839797Y-42928671D01*
X69839793Y-42928664D01*
X69753547Y-42813455D01*
X69753544Y-42813452D01*
X69638335Y-42727206D01*
X69638328Y-42727202D01*
X69503482Y-42676908D01*
X69503483Y-42676908D01*
X69443883Y-42670501D01*
X69443881Y-42670500D01*
X69443873Y-42670500D01*
X69443864Y-42670500D01*
X67648129Y-42670500D01*
X67648123Y-42670501D01*
X67588516Y-42676908D01*
X67453671Y-42727202D01*
X67453664Y-42727206D01*
X67338455Y-42813452D01*
X67338452Y-42813455D01*
X67252206Y-42928664D01*
X67252202Y-42928671D01*
X67201908Y-43063517D01*
X67195501Y-43123116D01*
X67195500Y-43123135D01*
X67195500Y-44918870D01*
X67195501Y-44918876D01*
X67201908Y-44978483D01*
X67252202Y-45113328D01*
X67252206Y-45113335D01*
X67338452Y-45228544D01*
X67338455Y-45228547D01*
X67453664Y-45314793D01*
X67453671Y-45314797D01*
X67585081Y-45363810D01*
X67641015Y-45405681D01*
X67665432Y-45471145D01*
X67650580Y-45539418D01*
X67629430Y-45567673D01*
X67507503Y-45689600D01*
X67371965Y-45883169D01*
X67371964Y-45883171D01*
X67272098Y-46097335D01*
X67272094Y-46097344D01*
X67210938Y-46325586D01*
X67210936Y-46325596D01*
X67190341Y-46560999D01*
X67190341Y-46561000D01*
X67210936Y-46796403D01*
X67210938Y-46796413D01*
X67272094Y-47024655D01*
X67272096Y-47024659D01*
X67272097Y-47024663D01*
X67367204Y-47228620D01*
X67371965Y-47238830D01*
X67371967Y-47238834D01*
X67480281Y-47393521D01*
X67507505Y-47432401D01*
X67674599Y-47599495D01*
X67748127Y-47650980D01*
X67868165Y-47735032D01*
X67868167Y-47735033D01*
X67868170Y-47735035D01*
X68082337Y-47834903D01*
X68310592Y-47896063D01*
X68498918Y-47912539D01*
X68545999Y-47916659D01*
X68546000Y-47916659D01*
X68546001Y-47916659D01*
X68589890Y-47912819D01*
X68781408Y-47896063D01*
X69009663Y-47834903D01*
X69014094Y-47832837D01*
X69083171Y-47822344D01*
X69146955Y-47850863D01*
X69185196Y-47909339D01*
X69190500Y-47945218D01*
X69190500Y-51187692D01*
X69170815Y-51254731D01*
X69118011Y-51300486D01*
X69053902Y-51311050D01*
X69048528Y-51310501D01*
X69048512Y-51310500D01*
X69048509Y-51310500D01*
X69048504Y-51310500D01*
X68471452Y-51310500D01*
X68404413Y-51290815D01*
X68383771Y-51274181D01*
X67476198Y-50366608D01*
X67476178Y-50366586D01*
X67384733Y-50275141D01*
X67333509Y-50240915D01*
X67316839Y-50229776D01*
X67282286Y-50206688D01*
X67282283Y-50206686D01*
X67282280Y-50206685D01*
X67201792Y-50173347D01*
X67168453Y-50159537D01*
X67158427Y-50157543D01*
X67108029Y-50147518D01*
X67047610Y-50135500D01*
X67047607Y-50135500D01*
X67047606Y-50135500D01*
X66535499Y-50135500D01*
X66468460Y-50115815D01*
X66422705Y-50063011D01*
X66411499Y-50011500D01*
X66411499Y-49913129D01*
X66411498Y-49913123D01*
X66410732Y-49906000D01*
X66405091Y-49853517D01*
X66396756Y-49831171D01*
X66354797Y-49718671D01*
X66354793Y-49718664D01*
X66268547Y-49603455D01*
X66268544Y-49603452D01*
X66153335Y-49517206D01*
X66153328Y-49517202D01*
X66018482Y-49466908D01*
X66018483Y-49466908D01*
X65958883Y-49460501D01*
X65958881Y-49460500D01*
X65958873Y-49460500D01*
X65958865Y-49460500D01*
X64592500Y-49460500D01*
X64525461Y-49440815D01*
X64479706Y-49388011D01*
X64468500Y-49336500D01*
X64468500Y-48989080D01*
X64453301Y-48912674D01*
X64451874Y-48905500D01*
X64439659Y-48844088D01*
X64406518Y-48764080D01*
X64386810Y-48716500D01*
X64383085Y-48707506D01*
X64383083Y-48707503D01*
X64300954Y-48584588D01*
X64300953Y-48584587D01*
X64300951Y-48584584D01*
X64196416Y-48480049D01*
X63713762Y-47997395D01*
X62259421Y-46543052D01*
X62259420Y-46543051D01*
X62221031Y-46517401D01*
X62164110Y-46479368D01*
X62136495Y-46460916D01*
X62136493Y-46460915D01*
X62136490Y-46460913D01*
X61999917Y-46404343D01*
X61999907Y-46404340D01*
X61854920Y-46375500D01*
X61854918Y-46375500D01*
X56623701Y-46375500D01*
X56556662Y-46355815D01*
X56522126Y-46322623D01*
X56474494Y-46254597D01*
X56307404Y-46087507D01*
X56239375Y-46039872D01*
X56195751Y-45985294D01*
X56186500Y-45938298D01*
X56186500Y-39957079D01*
X56157659Y-39812092D01*
X56157658Y-39812091D01*
X56157658Y-39812087D01*
X56139450Y-39768128D01*
X56101087Y-39675511D01*
X56101080Y-39675498D01*
X56018952Y-39552585D01*
X55993868Y-39527501D01*
X55914416Y-39448049D01*
X55904048Y-39437681D01*
X55870563Y-39376358D01*
X55875547Y-39306666D01*
X55917419Y-39250733D01*
X55982883Y-39226316D01*
X55991729Y-39226000D01*
X56404420Y-39226000D01*
X56501962Y-39206596D01*
X56549413Y-39197158D01*
X56685995Y-39140584D01*
X56735229Y-39107686D01*
X56808916Y-39058452D01*
X57873299Y-37994067D01*
X57910534Y-37968475D01*
X58070730Y-37897151D01*
X58223871Y-37785888D01*
X58350533Y-37645216D01*
X58445179Y-37481284D01*
X58503674Y-37301256D01*
X58523460Y-37113000D01*
X58503674Y-36924744D01*
X58445179Y-36744716D01*
X58350533Y-36580784D01*
X58223871Y-36440112D01*
X58223870Y-36440111D01*
X58070734Y-36328851D01*
X58070729Y-36328848D01*
X57897807Y-36251857D01*
X57897802Y-36251855D01*
X57752001Y-36220865D01*
X57712646Y-36212500D01*
X57523354Y-36212500D01*
X57490897Y-36219398D01*
X57338197Y-36251855D01*
X57338192Y-36251857D01*
X57165270Y-36328848D01*
X57165265Y-36328851D01*
X57012129Y-36440111D01*
X56885466Y-36580785D01*
X56790821Y-36744715D01*
X56790818Y-36744722D01*
X56732327Y-36924739D01*
X56732327Y-36924740D01*
X56732326Y-36924744D01*
X56726632Y-36978920D01*
X56700047Y-37043534D01*
X56690992Y-37053638D01*
X56055951Y-37688681D01*
X55994628Y-37722166D01*
X55968270Y-37725000D01*
X54242730Y-37725000D01*
X54175691Y-37705315D01*
X54155049Y-37688681D01*
X53622819Y-37156451D01*
X53589334Y-37095128D01*
X53586500Y-37068770D01*
X53586500Y-35998803D01*
X53606185Y-35931764D01*
X53658989Y-35886009D01*
X53689541Y-35876587D01*
X54012756Y-35821167D01*
X54471571Y-35701701D01*
X54918602Y-35543755D01*
X55350628Y-35348467D01*
X55764536Y-35117244D01*
X56157343Y-34851753D01*
X56526209Y-34553914D01*
X56526211Y-34553913D01*
X56526215Y-34553908D01*
X56526220Y-34553905D01*
X56868510Y-34225847D01*
X57181744Y-33869944D01*
X57463668Y-33488758D01*
X57712249Y-33085036D01*
X57925697Y-32661688D01*
X58102473Y-32221763D01*
X58241304Y-31768432D01*
X58341190Y-31304960D01*
X58401411Y-30834686D01*
X58401414Y-30834631D01*
X58421533Y-30361006D01*
X58421533Y-30360993D01*
X64675968Y-30360993D01*
X64675968Y-30361006D01*
X64696086Y-30834631D01*
X64756304Y-31304874D01*
X64856181Y-31768306D01*
X64856183Y-31768314D01*
X64994999Y-32221598D01*
X64995004Y-32221612D01*
X65171755Y-32661471D01*
X65171759Y-32661482D01*
X65385179Y-33084774D01*
X65385189Y-33084794D01*
X65633750Y-33488481D01*
X65915648Y-33869633D01*
X65915654Y-33869641D01*
X66141825Y-34126620D01*
X66141826Y-34126620D01*
X67933818Y-32334627D01*
X67983208Y-32396560D01*
X68225440Y-32638792D01*
X68287371Y-32688180D01*
X66494983Y-34480568D01*
X66571120Y-34553537D01*
X66571122Y-34553538D01*
X66939952Y-34851348D01*
X66939953Y-34851349D01*
X67332716Y-35116809D01*
X67332735Y-35116821D01*
X67746588Y-35348014D01*
X67746610Y-35348025D01*
X68178579Y-35543288D01*
X68178585Y-35543290D01*
X68625579Y-35701223D01*
X69084351Y-35820677D01*
X69551597Y-35900795D01*
X69551605Y-35900796D01*
X70023946Y-35940999D01*
X70023966Y-35941000D01*
X70498034Y-35941000D01*
X70498053Y-35940999D01*
X70970394Y-35900796D01*
X70970402Y-35900795D01*
X71437648Y-35820677D01*
X71896420Y-35701223D01*
X72343414Y-35543290D01*
X72343420Y-35543288D01*
X72775389Y-35348025D01*
X72775411Y-35348014D01*
X73189264Y-35116821D01*
X73189283Y-35116809D01*
X73582039Y-34851353D01*
X73950886Y-34553531D01*
X74027015Y-34480568D01*
X72234628Y-32688181D01*
X72296560Y-32638792D01*
X72538792Y-32396560D01*
X72588181Y-32334628D01*
X74380173Y-34126620D01*
X74606346Y-33869638D01*
X74606360Y-33869621D01*
X74888249Y-33488481D01*
X75136810Y-33084794D01*
X75136820Y-33084774D01*
X75350240Y-32661482D01*
X75350244Y-32661471D01*
X75526995Y-32221612D01*
X75527000Y-32221598D01*
X75665816Y-31768314D01*
X75665818Y-31768306D01*
X75765695Y-31304874D01*
X75825913Y-30834631D01*
X75846032Y-30361006D01*
X75846032Y-30360993D01*
X75825913Y-29887368D01*
X75765695Y-29417125D01*
X75665818Y-28953693D01*
X75665816Y-28953685D01*
X75527000Y-28500401D01*
X75526995Y-28500387D01*
X75350244Y-28060528D01*
X75350240Y-28060517D01*
X75136820Y-27637225D01*
X75136810Y-27637205D01*
X74888249Y-27233518D01*
X74606351Y-26852366D01*
X74606345Y-26852358D01*
X74380173Y-26595378D01*
X72588180Y-28387371D01*
X72538792Y-28325440D01*
X72296560Y-28083208D01*
X72234627Y-28033818D01*
X74027015Y-26241430D01*
X73950879Y-26168462D01*
X73950877Y-26168461D01*
X73582047Y-25870651D01*
X73582046Y-25870650D01*
X73189283Y-25605190D01*
X73189264Y-25605178D01*
X72775411Y-25373985D01*
X72775389Y-25373974D01*
X72343420Y-25178711D01*
X72343414Y-25178709D01*
X71896420Y-25020776D01*
X71437648Y-24901322D01*
X70970402Y-24821204D01*
X70970394Y-24821203D01*
X70498053Y-24781000D01*
X70023946Y-24781000D01*
X69551605Y-24821203D01*
X69551597Y-24821204D01*
X69084351Y-24901322D01*
X68625579Y-25020776D01*
X68178585Y-25178709D01*
X68178579Y-25178711D01*
X67746610Y-25373974D01*
X67746588Y-25373985D01*
X67332735Y-25605178D01*
X67332716Y-25605190D01*
X66939953Y-25870650D01*
X66939952Y-25870651D01*
X66571123Y-26168460D01*
X66571107Y-26168474D01*
X66494984Y-26241431D01*
X68287371Y-28033819D01*
X68225440Y-28083208D01*
X67983208Y-28325440D01*
X67933819Y-28387371D01*
X66141826Y-26595379D01*
X65915648Y-26852366D01*
X65915645Y-26852370D01*
X65633750Y-27233518D01*
X65385189Y-27637205D01*
X65385179Y-27637225D01*
X65171759Y-28060517D01*
X65171755Y-28060528D01*
X64995004Y-28500387D01*
X64994999Y-28500401D01*
X64856183Y-28953685D01*
X64856181Y-28953693D01*
X64756304Y-29417125D01*
X64696086Y-29887368D01*
X64675968Y-30360993D01*
X58421533Y-30360993D01*
X58401412Y-29887326D01*
X58401411Y-29887320D01*
X58401411Y-29887314D01*
X58341190Y-29417040D01*
X58241304Y-28953568D01*
X58102473Y-28500237D01*
X57925697Y-28060312D01*
X57925697Y-28060311D01*
X57712258Y-27636981D01*
X57712247Y-27636961D01*
X57686719Y-27595501D01*
X57463668Y-27233242D01*
X57181744Y-26852056D01*
X56868510Y-26496153D01*
X56526211Y-26168086D01*
X56526209Y-26168085D01*
X56157345Y-25870248D01*
X56157344Y-25870247D01*
X55834134Y-25651796D01*
X55764536Y-25604756D01*
X55751844Y-25597666D01*
X55350637Y-25373537D01*
X55350615Y-25373526D01*
X54918608Y-25178247D01*
X54471566Y-25020297D01*
X54012754Y-24900832D01*
X53545472Y-24820708D01*
X53545446Y-24820705D01*
X53073075Y-24780500D01*
X53073057Y-24780500D01*
X52598943Y-24780500D01*
X52598924Y-24780500D01*
X52126553Y-24820705D01*
X52126527Y-24820708D01*
X51659245Y-24900832D01*
X51200433Y-25020297D01*
X50753391Y-25178247D01*
X50321384Y-25373526D01*
X50321362Y-25373537D01*
X49907472Y-25604751D01*
X49907453Y-25604763D01*
X49514655Y-25870247D01*
X49514654Y-25870248D01*
X49145790Y-26168085D01*
X49145788Y-26168086D01*
X48803489Y-26496153D01*
X48490262Y-26852048D01*
X48208331Y-27233243D01*
X47959752Y-27636961D01*
X47959741Y-27636981D01*
X47746302Y-28060311D01*
X47746298Y-28060322D01*
X47569529Y-28500229D01*
X47569527Y-28500234D01*
X47430698Y-28953559D01*
X47430696Y-28953567D01*
X47330810Y-29417038D01*
X47270587Y-29887326D01*
X47250467Y-30360993D01*
X47250467Y-30361006D01*
X47270587Y-30834673D01*
X47330810Y-31304961D01*
X47430696Y-31768432D01*
X47430698Y-31768440D01*
X47569527Y-32221765D01*
X47569529Y-32221770D01*
X47746298Y-32661677D01*
X47746302Y-32661688D01*
X47959741Y-33085018D01*
X47959752Y-33085038D01*
X48084041Y-33286897D01*
X48208332Y-33488758D01*
X48490256Y-33869944D01*
X48490261Y-33869949D01*
X48490262Y-33869951D01*
X48803489Y-34225846D01*
X49145788Y-34553913D01*
X49145790Y-34553914D01*
X49514654Y-34851751D01*
X49514655Y-34851752D01*
X49665322Y-34953584D01*
X49907464Y-35117244D01*
X50011081Y-35175128D01*
X50321362Y-35348462D01*
X50321384Y-35348473D01*
X50752365Y-35543288D01*
X50753398Y-35543755D01*
X51200429Y-35701701D01*
X51659244Y-35821167D01*
X51982456Y-35876587D01*
X52045204Y-35907318D01*
X52081377Y-35967095D01*
X52085500Y-35998803D01*
X52085500Y-37504918D01*
X52085500Y-37504920D01*
X52085499Y-37504920D01*
X52114340Y-37649907D01*
X52114343Y-37649917D01*
X52170914Y-37786491D01*
X52170916Y-37786495D01*
X52192464Y-37818745D01*
X52203096Y-37834657D01*
X52253049Y-37909418D01*
X52253052Y-37909421D01*
X53297548Y-38953916D01*
X54649181Y-40305548D01*
X54682666Y-40366871D01*
X54685500Y-40393229D01*
X54685500Y-45938298D01*
X54665815Y-46005337D01*
X54632625Y-46039872D01*
X54564595Y-46087507D01*
X54397505Y-46254597D01*
X54261965Y-46448169D01*
X54261964Y-46448171D01*
X54162098Y-46662335D01*
X54162094Y-46662344D01*
X54100938Y-46890586D01*
X54100936Y-46890596D01*
X54080341Y-47125999D01*
X54080341Y-47126000D01*
X54100936Y-47361403D01*
X54100938Y-47361413D01*
X54162094Y-47589655D01*
X54162096Y-47589659D01*
X54162097Y-47589663D01*
X54175623Y-47618669D01*
X54261965Y-47803830D01*
X54261967Y-47803834D01*
X54360966Y-47945218D01*
X54397505Y-47997401D01*
X54564599Y-48164495D01*
X54706525Y-48263873D01*
X54750594Y-48294730D01*
X54794219Y-48349307D01*
X54801413Y-48418805D01*
X54769890Y-48481160D01*
X54750595Y-48497880D01*
X54564922Y-48627890D01*
X54564920Y-48627891D01*
X54397891Y-48794920D01*
X54397886Y-48794926D01*
X54262400Y-48988420D01*
X54262399Y-48988422D01*
X54162570Y-49202507D01*
X54162566Y-49202516D01*
X54101432Y-49430673D01*
X54101430Y-49430682D01*
X54094085Y-49514637D01*
X54068632Y-49579705D01*
X54012041Y-49620683D01*
X53942279Y-49624560D01*
X53882876Y-49591509D01*
X47273873Y-42982506D01*
X39527819Y-35236451D01*
X39494334Y-35175128D01*
X39491500Y-35148770D01*
X39491500Y-27875730D01*
X39511185Y-27808691D01*
X39527819Y-27788049D01*
X39565819Y-27750049D01*
X39627142Y-27716564D01*
X39696834Y-27721548D01*
X39741181Y-27750049D01*
X39834844Y-27843712D01*
X39984166Y-27935814D01*
X40150703Y-27990999D01*
X40253491Y-28001500D01*
X40878508Y-28001499D01*
X40878516Y-28001498D01*
X40878519Y-28001498D01*
X40934802Y-27995748D01*
X40981297Y-27990999D01*
X41147834Y-27935814D01*
X41297156Y-27843712D01*
X41421212Y-27719656D01*
X41513314Y-27570334D01*
X41568499Y-27403797D01*
X41573810Y-27351815D01*
X41838500Y-27351815D01*
X41848907Y-27453673D01*
X41903594Y-27618709D01*
X41903596Y-27618714D01*
X41994870Y-27766691D01*
X42117808Y-27889629D01*
X42265785Y-27980903D01*
X42265790Y-27980905D01*
X42430826Y-28035592D01*
X42532684Y-28045999D01*
X42532697Y-28046000D01*
X42576000Y-28046000D01*
X42576000Y-27096000D01*
X41838500Y-27096000D01*
X41838500Y-27351815D01*
X41573810Y-27351815D01*
X41579000Y-27301009D01*
X41578999Y-26723950D01*
X41598683Y-26656912D01*
X41615313Y-26636275D01*
X41659365Y-26592223D01*
X41720686Y-26558740D01*
X41790378Y-26563724D01*
X41834725Y-26592225D01*
X41838500Y-26596000D01*
X42952000Y-26596000D01*
X43019039Y-26615685D01*
X43064794Y-26668489D01*
X43076000Y-26720000D01*
X43076000Y-28046000D01*
X43119303Y-28046000D01*
X43119315Y-28045999D01*
X43221173Y-28035592D01*
X43386209Y-27980905D01*
X43386214Y-27980903D01*
X43534191Y-27889629D01*
X43657128Y-27766692D01*
X43657659Y-27765832D01*
X43658180Y-27765363D01*
X43661612Y-27761023D01*
X43662353Y-27761608D01*
X43709601Y-27719102D01*
X43778563Y-27707872D01*
X43842648Y-27735708D01*
X43864913Y-27761398D01*
X43864993Y-27761336D01*
X43866390Y-27763103D01*
X43868738Y-27765812D01*
X43869468Y-27766995D01*
X43869474Y-27767003D01*
X43992496Y-27890025D01*
X43992500Y-27890028D01*
X44140566Y-27981357D01*
X44140569Y-27981358D01*
X44140575Y-27981362D01*
X44305725Y-28036087D01*
X44407652Y-28046500D01*
X44407657Y-28046500D01*
X44994343Y-28046500D01*
X44994348Y-28046500D01*
X45096275Y-28036087D01*
X45261425Y-27981362D01*
X45409503Y-27890026D01*
X45532526Y-27767003D01*
X45623862Y-27618925D01*
X45678587Y-27453775D01*
X45689000Y-27351848D01*
X45689000Y-26340152D01*
X45678587Y-26238225D01*
X45623862Y-26073075D01*
X45623858Y-26073069D01*
X45623857Y-26073066D01*
X45532528Y-25925000D01*
X45532525Y-25924996D01*
X45409503Y-25801974D01*
X45409499Y-25801971D01*
X45261433Y-25710642D01*
X45261427Y-25710639D01*
X45261425Y-25710638D01*
X45096275Y-25655913D01*
X45096273Y-25655912D01*
X45089849Y-25653784D01*
X45090507Y-25651796D01*
X45037871Y-25623280D01*
X44310927Y-24896337D01*
X44310925Y-24896334D01*
X44310925Y-24896335D01*
X44303858Y-24889268D01*
X44303858Y-24889267D01*
X44216733Y-24802142D01*
X44216732Y-24802141D01*
X44216731Y-24802140D01*
X44165509Y-24767915D01*
X44114286Y-24733688D01*
X44114283Y-24733686D01*
X44114280Y-24733685D01*
X44033792Y-24700347D01*
X44000453Y-24686537D01*
X43990427Y-24684543D01*
X43940029Y-24674518D01*
X43879610Y-24662500D01*
X43879607Y-24662500D01*
X43879606Y-24662500D01*
X42140607Y-24662500D01*
X42017393Y-24662500D01*
X42017389Y-24662500D01*
X41956971Y-24674518D01*
X41919259Y-24682019D01*
X41896550Y-24686536D01*
X41896548Y-24686537D01*
X41863207Y-24700347D01*
X41782719Y-24733684D01*
X41782705Y-24733692D01*
X41680272Y-24802138D01*
X41680264Y-24802144D01*
X41593139Y-24889270D01*
X40918227Y-25564181D01*
X40856904Y-25597666D01*
X40830546Y-25600500D01*
X40253498Y-25600500D01*
X40253480Y-25600501D01*
X40150703Y-25611000D01*
X40150700Y-25611001D01*
X39984168Y-25666185D01*
X39984163Y-25666187D01*
X39834842Y-25758289D01*
X39741181Y-25851951D01*
X39679858Y-25885436D01*
X39610166Y-25880452D01*
X39565819Y-25851951D01*
X39472157Y-25758289D01*
X39472156Y-25758288D01*
X39322834Y-25666186D01*
X39156297Y-25611001D01*
X39156295Y-25611000D01*
X39053510Y-25600500D01*
X38428498Y-25600500D01*
X38428480Y-25600501D01*
X38325703Y-25611000D01*
X38325700Y-25611001D01*
X38159168Y-25666185D01*
X38159163Y-25666187D01*
X38009842Y-25758289D01*
X37885789Y-25882342D01*
X37793687Y-26031663D01*
X37793686Y-26031666D01*
X37738501Y-26198203D01*
X37738501Y-26198204D01*
X37738500Y-26198204D01*
X37728000Y-26300983D01*
X35318000Y-26300983D01*
X35318000Y-20487000D01*
X35337685Y-20419961D01*
X35390489Y-20374206D01*
X35442000Y-20363000D01*
X102339000Y-20363000D01*
X102406039Y-20382685D01*
G37*
%TD.AperFunction*%
%TD*%
M02*
