%TF.GenerationSoftware,KiCad,Pcbnew,8.0.4-8.0.4-0~ubuntu22.04.1*%
%TF.CreationDate,2024-07-18T16:31:08+02:00*%
%TF.ProjectId,DevBoardESP32XIAO,44657642-6f61-4726-9445-535033325849,1.3*%
%TF.SameCoordinates,Original*%
%TF.FileFunction,Plated,1,2,PTH,Mixed*%
%TF.FilePolarity,Positive*%
%FSLAX46Y46*%
G04 Gerber Fmt 4.6, Leading zero omitted, Abs format (unit mm)*
G04 Created by KiCad (PCBNEW 8.0.4-8.0.4-0~ubuntu22.04.1) date 2024-07-18 16:31:08*
%MOMM*%
%LPD*%
G01*
G04 APERTURE LIST*
%TA.AperFunction,ViaDrill*%
%ADD10C,0.400000*%
%TD*%
%TA.AperFunction,ComponentDrill*%
%ADD11C,1.000000*%
%TD*%
G04 aperture for slot hole*
%TA.AperFunction,ComponentDrill*%
%ADD12C,1.800000*%
%TD*%
%TA.AperFunction,ComponentDrill*%
%ADD13C,6.100000*%
%TD*%
G04 APERTURE END LIST*
D10*
X49318000Y-73513000D03*
X57618000Y-37113000D03*
X60967800Y-69478000D03*
X70561000Y-50046000D03*
X72343900Y-51563900D03*
X76443000Y-36288000D03*
D11*
%TO.C,J2*%
X39418000Y-80973000D03*
X39418000Y-83513000D03*
X39418000Y-86053000D03*
X39418000Y-88593000D03*
X39418000Y-91133000D03*
X39418000Y-93673000D03*
X39418000Y-96213000D03*
%TO.C,J1*%
X39436000Y-47366000D03*
X39436000Y-49906000D03*
X39436000Y-52446000D03*
X39436000Y-54986000D03*
X39436000Y-57526000D03*
X39436000Y-60066000D03*
X39436000Y-62606000D03*
%TO.C,J4*%
X55418000Y-80733000D03*
X55418000Y-83273000D03*
X55418000Y-85813000D03*
X55418000Y-88353000D03*
X55418000Y-90893000D03*
X55418000Y-93433000D03*
X55418000Y-95973000D03*
%TO.C,J3*%
X55436000Y-47126000D03*
X55436000Y-49666000D03*
X55436000Y-52206000D03*
X55436000Y-54746000D03*
X55436000Y-57286000D03*
X55436000Y-59826000D03*
X55436000Y-62366000D03*
%TO.C,J14*%
X66571000Y-72566000D03*
X66571000Y-75106000D03*
X66571000Y-77646000D03*
X66571000Y-80186000D03*
%TO.C,J8*%
X67161000Y-96306000D03*
X67161000Y-98846000D03*
X67161000Y-101386000D03*
%TO.C,J13*%
X68546000Y-44021000D03*
X68546000Y-46561000D03*
%TO.C,J14*%
X69111000Y-72566000D03*
X69111000Y-75106000D03*
X69111000Y-77646000D03*
X69111000Y-80186000D03*
%TO.C,J13*%
X71086000Y-44021000D03*
X71086000Y-46561000D03*
%TO.C,J11*%
X76711000Y-96306000D03*
X76711000Y-98846000D03*
X76711000Y-101386000D03*
%TO.C,RV1*%
X85086000Y-74511000D03*
X85086000Y-77011000D03*
X85086000Y-79511000D03*
%TO.C,J7*%
X85536000Y-96336000D03*
X85536000Y-98876000D03*
X85536000Y-101416000D03*
%TO.C,J12*%
X87121000Y-57311000D03*
%TO.C,J9*%
X88336000Y-28946000D03*
X88336000Y-31486000D03*
%TO.C,J6*%
X88336000Y-40566000D03*
X88336000Y-43106000D03*
X88336000Y-45646000D03*
X88336000Y-48186000D03*
%TO.C,J12*%
X89661000Y-57311000D03*
%TO.C,J17*%
X90736000Y-67586000D03*
%TO.C,J12*%
X92201000Y-57311000D03*
%TO.C,J17*%
X93276000Y-67586000D03*
%TO.C,J10*%
X94536000Y-96336000D03*
X94536000Y-98876000D03*
X94536000Y-101416000D03*
%TO.C,J12*%
X94741000Y-57311000D03*
%TO.C,J5*%
X95886000Y-40566000D03*
X95886000Y-43106000D03*
X95886000Y-45646000D03*
X95886000Y-48186000D03*
D12*
%TO.C,RV1*%
X92236000Y-72611000D02*
X91936000Y-72611000D01*
X92236000Y-81411000D02*
X91936000Y-81411000D01*
D13*
%TO.C,J15*%
X52836000Y-30361000D03*
%TO.C,J16*%
X70261000Y-30361000D03*
M02*
