%TF.GenerationSoftware,KiCad,Pcbnew,8.0.4-8.0.4-0~ubuntu22.04.1*%
%TF.CreationDate,2024-07-18T16:31:12+02:00*%
%TF.ProjectId,DevBoardESP32XIAO,44657642-6f61-4726-9445-535033325849,1.3*%
%TF.SameCoordinates,Original*%
%TF.FileFunction,Copper,L2,Bot*%
%TF.FilePolarity,Positive*%
%FSLAX46Y46*%
G04 Gerber Fmt 4.6, Leading zero omitted, Abs format (unit mm)*
G04 Created by KiCad (PCBNEW 8.0.4-8.0.4-0~ubuntu22.04.1) date 2024-07-18 16:31:12*
%MOMM*%
%LPD*%
G01*
G04 APERTURE LIST*
G04 Aperture macros list*
%AMRoundRect*
0 Rectangle with rounded corners*
0 $1 Rounding radius*
0 $2 $3 $4 $5 $6 $7 $8 $9 X,Y pos of 4 corners*
0 Add a 4 corners polygon primitive as box body*
4,1,4,$2,$3,$4,$5,$6,$7,$8,$9,$2,$3,0*
0 Add four circle primitives for the rounded corners*
1,1,$1+$1,$2,$3*
1,1,$1+$1,$4,$5*
1,1,$1+$1,$6,$7*
1,1,$1+$1,$8,$9*
0 Add four rect primitives between the rounded corners*
20,1,$1+$1,$2,$3,$4,$5,0*
20,1,$1+$1,$4,$5,$6,$7,0*
20,1,$1+$1,$6,$7,$8,$9,0*
20,1,$1+$1,$8,$9,$2,$3,0*%
G04 Aperture macros list end*
%TA.AperFunction,ComponentPad*%
%ADD10R,1.700000X1.700000*%
%TD*%
%TA.AperFunction,ComponentPad*%
%ADD11O,1.700000X1.700000*%
%TD*%
%TA.AperFunction,ComponentPad*%
%ADD12R,1.800000X1.800000*%
%TD*%
%TA.AperFunction,ComponentPad*%
%ADD13C,1.800000*%
%TD*%
%TA.AperFunction,ComponentPad*%
%ADD14RoundRect,0.750000X-1.250000X-0.750000X1.250000X-0.750000X1.250000X0.750000X-1.250000X0.750000X0*%
%TD*%
%TA.AperFunction,ComponentPad*%
%ADD15C,10.160000*%
%TD*%
%TA.AperFunction,ViaPad*%
%ADD16C,0.800000*%
%TD*%
%TA.AperFunction,Conductor*%
%ADD17C,0.500000*%
%TD*%
%TA.AperFunction,Conductor*%
%ADD18C,0.250000*%
%TD*%
G04 APERTURE END LIST*
D10*
%TO.P,J12,1,Pin_1*%
%TO.N,D7*%
X87121000Y-57311000D03*
D11*
%TO.P,J12,2,Pin_2*%
%TO.N,D6*%
X89661000Y-57311000D03*
%TO.P,J12,3,Pin_3*%
%TO.N,GND*%
X92201000Y-57311000D03*
%TO.P,J12,4,Pin_4*%
%TO.N,+3.3V*%
X94741000Y-57311000D03*
%TD*%
D10*
%TO.P,J14,1,Pin_1*%
%TO.N,D10*%
X66571000Y-72566000D03*
D11*
%TO.P,J14,2,Pin_2*%
%TO.N,Net-(J14-Pin_2)*%
X69111000Y-72566000D03*
%TO.P,J14,3,Pin_3*%
%TO.N,D9*%
X66571000Y-75106000D03*
%TO.P,J14,4,Pin_4*%
%TO.N,Net-(J14-Pin_4)*%
X69111000Y-75106000D03*
%TO.P,J14,5,Pin_5*%
%TO.N,D8*%
X66571000Y-77646000D03*
%TO.P,J14,6,Pin_6*%
%TO.N,Net-(J14-Pin_6)*%
X69111000Y-77646000D03*
%TO.P,J14,7,Pin_7*%
%TO.N,D7*%
X66571000Y-80186000D03*
%TO.P,J14,8,Pin_8*%
%TO.N,Net-(J14-Pin_8)*%
X69111000Y-80186000D03*
%TD*%
D10*
%TO.P,J9,1,Pin_1*%
%TO.N,+3.3V*%
X88336000Y-28946000D03*
D11*
%TO.P,J9,2,Pin_2*%
%TO.N,Net-(J9-Pin_2)*%
X88336000Y-31486000D03*
%TD*%
D10*
%TO.P,J2,1,Pin_1*%
%TO.N,D0*%
X39418000Y-80973000D03*
D11*
%TO.P,J2,2,Pin_2*%
%TO.N,D1*%
X39418000Y-83513000D03*
%TO.P,J2,3,Pin_3*%
%TO.N,Button1*%
X39418000Y-86053000D03*
%TO.P,J2,4,Pin_4*%
%TO.N,Button2*%
X39418000Y-88593000D03*
%TO.P,J2,5,Pin_5*%
%TO.N,D4*%
X39418000Y-91133000D03*
%TO.P,J2,6,Pin_6*%
%TO.N,D5*%
X39418000Y-93673000D03*
%TO.P,J2,7,Pin_7*%
%TO.N,D6*%
X39418000Y-96213000D03*
%TD*%
D10*
%TO.P,J3,1,Pin_1*%
%TO.N,D7*%
X55436000Y-62366000D03*
D11*
%TO.P,J3,2,Pin_2*%
%TO.N,D8*%
X55436000Y-59826000D03*
%TO.P,J3,3,Pin_3*%
%TO.N,D9*%
X55436000Y-57286000D03*
%TO.P,J3,4,Pin_4*%
%TO.N,D10*%
X55436000Y-54746000D03*
%TO.P,J3,5,Pin_5*%
%TO.N,+3.3V*%
X55436000Y-52206000D03*
%TO.P,J3,6,Pin_6*%
%TO.N,GND*%
X55436000Y-49666000D03*
%TO.P,J3,7,Pin_7*%
%TO.N,+5V*%
X55436000Y-47126000D03*
%TD*%
D10*
%TO.P,J4,1,Pin_1*%
%TO.N,D7*%
X55418000Y-95973000D03*
D11*
%TO.P,J4,2,Pin_2*%
%TO.N,D8*%
X55418000Y-93433000D03*
%TO.P,J4,3,Pin_3*%
%TO.N,D9*%
X55418000Y-90893000D03*
%TO.P,J4,4,Pin_4*%
%TO.N,D10*%
X55418000Y-88353000D03*
%TO.P,J4,5,Pin_5*%
%TO.N,+3.3V*%
X55418000Y-85813000D03*
%TO.P,J4,6,Pin_6*%
%TO.N,GND*%
X55418000Y-83273000D03*
%TO.P,J4,7,Pin_7*%
%TO.N,+5V*%
X55418000Y-80733000D03*
%TD*%
D10*
%TO.P,J6,1,Pin_1*%
%TO.N,GND*%
X88336000Y-48186000D03*
D11*
%TO.P,J6,2,Pin_2*%
%TO.N,+3.3V*%
X88336000Y-45646000D03*
%TO.P,J6,3,Pin_3*%
%TO.N,D5*%
X88336000Y-43106000D03*
%TO.P,J6,4,Pin_4*%
%TO.N,D4*%
X88336000Y-40566000D03*
%TD*%
D10*
%TO.P,J11,1,Pin_1*%
%TO.N,Button1*%
X76711000Y-101386000D03*
D11*
%TO.P,J11,2,Pin_2*%
%TO.N,+3.3V*%
X76711000Y-98846000D03*
%TO.P,J11,3,Pin_3*%
%TO.N,GND*%
X76711000Y-96306000D03*
%TD*%
D10*
%TO.P,J17,1,Pin_1*%
%TO.N,D0*%
X90736000Y-67586000D03*
D11*
%TO.P,J17,2,Pin_2*%
%TO.N,Net-(J17-Pin_2)*%
X93276000Y-67586000D03*
%TD*%
D10*
%TO.P,J1,1,Pin_1*%
%TO.N,D0*%
X39436000Y-47366000D03*
D11*
%TO.P,J1,2,Pin_2*%
%TO.N,D1*%
X39436000Y-49906000D03*
%TO.P,J1,3,Pin_3*%
%TO.N,Button1*%
X39436000Y-52446000D03*
%TO.P,J1,4,Pin_4*%
%TO.N,Button2*%
X39436000Y-54986000D03*
%TO.P,J1,5,Pin_5*%
%TO.N,D4*%
X39436000Y-57526000D03*
%TO.P,J1,6,Pin_6*%
%TO.N,D5*%
X39436000Y-60066000D03*
%TO.P,J1,7,Pin_7*%
%TO.N,D6*%
X39436000Y-62606000D03*
%TD*%
D12*
%TO.P,RV1,1,1*%
%TO.N,+3.3V*%
X85086000Y-74511000D03*
D13*
%TO.P,RV1,2,2*%
%TO.N,Net-(J17-Pin_2)*%
X85086000Y-77011000D03*
%TO.P,RV1,3,3*%
%TO.N,GND*%
X85086000Y-79511000D03*
D14*
%TO.P,RV1,MP*%
%TO.N,N/C*%
X92086000Y-72611000D03*
X92086000Y-81411000D03*
%TD*%
D15*
%TO.P,J16,1,Pin_1*%
%TO.N,GND*%
X70261000Y-30361000D03*
%TD*%
D10*
%TO.P,J8,1,Pin_1*%
%TO.N,D1*%
X67161000Y-101386000D03*
D11*
%TO.P,J8,2,Pin_2*%
%TO.N,+3.3V*%
X67161000Y-98846000D03*
%TO.P,J8,3,Pin_3*%
%TO.N,GND*%
X67161000Y-96306000D03*
%TD*%
D15*
%TO.P,J15,1,Pin_1*%
%TO.N,+5V*%
X52836000Y-30361000D03*
%TD*%
D10*
%TO.P,J10,1,Pin_1*%
%TO.N,GND*%
X94536000Y-96336000D03*
D11*
%TO.P,J10,2,Pin_2*%
%TO.N,+3.3V*%
X94536000Y-98876000D03*
%TO.P,J10,3,Pin_3*%
%TO.N,D9*%
X94536000Y-101416000D03*
%TD*%
D10*
%TO.P,J5,1,Pin_1*%
%TO.N,GND*%
X95886000Y-48186000D03*
D11*
%TO.P,J5,2,Pin_2*%
%TO.N,+3.3V*%
X95886000Y-45646000D03*
%TO.P,J5,3,Pin_3*%
%TO.N,D5*%
X95886000Y-43106000D03*
%TO.P,J5,4,Pin_4*%
%TO.N,D4*%
X95886000Y-40566000D03*
%TD*%
D10*
%TO.P,J7,1,Pin_1*%
%TO.N,GND*%
X85536000Y-96336000D03*
D11*
%TO.P,J7,2,Pin_2*%
%TO.N,+3.3V*%
X85536000Y-98876000D03*
%TO.P,J7,3,Pin_3*%
%TO.N,D10*%
X85536000Y-101416000D03*
%TD*%
D10*
%TO.P,J13,1,Pin_1*%
%TO.N,Button1*%
X68546000Y-44021000D03*
D11*
%TO.P,J13,2,Pin_2*%
%TO.N,Net-(J13-Pin_2)*%
X71086000Y-44021000D03*
%TO.P,J13,3,Pin_3*%
%TO.N,Button2*%
X68546000Y-46561000D03*
%TO.P,J13,4,Pin_4*%
%TO.N,Net-(J13-Pin_4)*%
X71086000Y-46561000D03*
%TD*%
D16*
%TO.N,+5V*%
X57618000Y-37113000D03*
%TO.N,GND*%
X76443000Y-36288000D03*
%TO.N,+3.3V*%
X72343900Y-51563900D03*
%TO.N,GND*%
X70561000Y-50046000D03*
%TO.N,D9*%
X49318000Y-73513000D03*
%TO.N,D10*%
X60967800Y-69478000D03*
%TD*%
D17*
%TO.N,GND*%
X75493000Y-37238000D02*
X72405700Y-37238000D01*
X76443000Y-36288000D02*
X75493000Y-37238000D01*
%TO.N,+5V*%
X57618000Y-37113000D02*
X57618000Y-35143000D01*
X57618000Y-35143000D02*
X52836000Y-30361000D01*
%TO.N,GND*%
X72405700Y-32505700D02*
X72405700Y-37238000D01*
X72405700Y-37238000D02*
X72405700Y-48186000D01*
D18*
%TO.N,D4*%
X88336000Y-40566000D02*
X85893000Y-43009000D01*
X85893000Y-43009000D02*
X85893000Y-45463000D01*
X85893000Y-45463000D02*
X87293000Y-46863000D01*
X87293000Y-46863000D02*
X89893000Y-46863000D01*
X90343000Y-50013000D02*
X86974800Y-53381200D01*
X89893000Y-46863000D02*
X90343000Y-47313000D01*
X42122700Y-56016000D02*
X40612700Y-57526000D01*
X90343000Y-47313000D02*
X90343000Y-50013000D01*
X40612700Y-57526000D02*
X39436000Y-57526000D01*
X86974800Y-53381200D02*
X60660400Y-53381200D01*
X60660400Y-53381200D02*
X58025600Y-56016000D01*
X58025600Y-56016000D02*
X42122700Y-56016000D01*
%TO.N,D5*%
X91668000Y-45663000D02*
X91243000Y-45663000D01*
X39436000Y-60066000D02*
X40612700Y-60066000D01*
X91243000Y-50038000D02*
X91243000Y-45663000D01*
X40612700Y-60066000D02*
X42122700Y-58556000D01*
X91243000Y-45663000D02*
X90893000Y-45663000D01*
X42122700Y-58556000D02*
X63316200Y-58556000D01*
X90893000Y-45663000D02*
X88336000Y-43106000D01*
X63316200Y-58556000D02*
X67851000Y-54021200D01*
X67851000Y-54021200D02*
X87259800Y-54021200D01*
X87259800Y-54021200D02*
X91243000Y-50038000D01*
X95886000Y-43106000D02*
X94225000Y-43106000D01*
X94225000Y-43106000D02*
X91668000Y-45663000D01*
%TO.N,D9*%
X49318000Y-73513000D02*
X50768000Y-72063000D01*
X50768000Y-72063000D02*
X62351300Y-72063000D01*
X62351300Y-72063000D02*
X65394300Y-75106000D01*
X65394300Y-75106000D02*
X66571000Y-75106000D01*
%TO.N,D0*%
X39436000Y-47366000D02*
X37518000Y-49284000D01*
X37518000Y-49284000D02*
X37518000Y-63938000D01*
X37518000Y-63938000D02*
X41304200Y-67724200D01*
X41304200Y-67724200D02*
X42830500Y-67724200D01*
%TO.N,Button1*%
X39418000Y-86053000D02*
X39418000Y-86213000D01*
X57018000Y-103813000D02*
X70942700Y-103813000D01*
X39418000Y-86213000D02*
X57018000Y-103813000D01*
X70942700Y-103813000D02*
X73369700Y-101386000D01*
X73369700Y-101386000D02*
X76711000Y-101386000D01*
%TO.N,D9*%
X94536000Y-101416000D02*
X93359300Y-101416000D01*
X93359300Y-101416000D02*
X91737300Y-103038000D01*
X91737300Y-103038000D02*
X82363300Y-103038000D01*
X82363300Y-103038000D02*
X79441400Y-100116100D01*
X79441400Y-100116100D02*
X65817800Y-100116100D01*
X65817800Y-100116100D02*
X56594700Y-90893000D01*
X56594700Y-90893000D02*
X55418000Y-90893000D01*
D17*
%TO.N,+3.3V*%
X72343900Y-51563900D02*
X71701800Y-52206000D01*
X71701800Y-52206000D02*
X55436000Y-52206000D01*
D18*
%TO.N,D7*%
X55418000Y-95973000D02*
X54053000Y-95973000D01*
X54053000Y-95973000D02*
X52568000Y-94488000D01*
X52568000Y-94488000D02*
X52568000Y-89535200D01*
X58497300Y-87083000D02*
X65394300Y-80186000D01*
X52568000Y-89535200D02*
X55020200Y-87083000D01*
X55020200Y-87083000D02*
X58497300Y-87083000D01*
X65394300Y-80186000D02*
X66571000Y-80186000D01*
%TO.N,D1*%
X67161000Y-101386000D02*
X57216000Y-101386000D01*
X57216000Y-101386000D02*
X39418000Y-83588000D01*
X39418000Y-83588000D02*
X39418000Y-83513000D01*
%TO.N,D6*%
X89661000Y-57311000D02*
X87788000Y-55438000D01*
X40612700Y-62606000D02*
X39436000Y-62606000D01*
X87788000Y-55438000D02*
X82846300Y-55438000D01*
X82846300Y-55438000D02*
X77123100Y-61161200D01*
X77123100Y-61161200D02*
X42057500Y-61161200D01*
X42057500Y-61161200D02*
X40612700Y-62606000D01*
D17*
%TO.N,+3.3V*%
X85536000Y-98876000D02*
X94536000Y-98876000D01*
%TO.N,GND*%
X88336000Y-48186000D02*
X87034300Y-48186000D01*
X72405700Y-48186000D02*
X87034300Y-48186000D01*
X70261000Y-30361000D02*
X72405700Y-32505700D01*
X72405700Y-48201300D02*
X70561000Y-50046000D01*
X72405700Y-48186000D02*
X72405700Y-48201300D01*
X57117700Y-50046000D02*
X56737700Y-49666000D01*
X70561000Y-50046000D02*
X57117700Y-50046000D01*
X55436000Y-49666000D02*
X56737700Y-49666000D01*
X84204300Y-96306000D02*
X84234300Y-96336000D01*
X76711000Y-96306000D02*
X84204300Y-96306000D01*
X85536000Y-96336000D02*
X84234300Y-96336000D01*
D18*
%TO.N,D7*%
X80889300Y-62366000D02*
X55436000Y-62366000D01*
X85944300Y-57311000D02*
X80889300Y-62366000D01*
X87121000Y-57311000D02*
X85944300Y-57311000D01*
%TO.N,D10*%
X62306300Y-69478000D02*
X65394300Y-72566000D01*
X60967800Y-69478000D02*
X62306300Y-69478000D01*
X66571000Y-72566000D02*
X65394300Y-72566000D01*
X85536000Y-101416000D02*
X84359300Y-101416000D01*
X55418000Y-88353000D02*
X56594700Y-88353000D01*
X66571000Y-72566000D02*
X66571000Y-73742700D01*
X76219900Y-97576000D02*
X66085500Y-87441600D01*
X80519300Y-97576000D02*
X76219900Y-97576000D01*
X84359300Y-101416000D02*
X80519300Y-97576000D01*
X65174100Y-88353000D02*
X66085500Y-87441600D01*
X56594700Y-88353000D02*
X65174100Y-88353000D01*
X66938800Y-73742700D02*
X66571000Y-73742700D01*
X67747700Y-74551600D02*
X66938800Y-73742700D01*
X67747700Y-85779400D02*
X67747700Y-74551600D01*
X66085500Y-87441600D02*
X67747700Y-85779400D01*
%TO.N,Button1*%
X49037700Y-44021000D02*
X40612700Y-52446000D01*
X68546000Y-44021000D02*
X49037700Y-44021000D01*
X39436000Y-52446000D02*
X40612700Y-52446000D01*
%TO.N,Button2*%
X47202700Y-48396000D02*
X40612700Y-54986000D01*
X65534300Y-48396000D02*
X47202700Y-48396000D01*
X67369300Y-46561000D02*
X65534300Y-48396000D01*
X68546000Y-46561000D02*
X67369300Y-46561000D01*
X39436000Y-54986000D02*
X40612700Y-54986000D01*
%TO.N,D0*%
X39418000Y-80973000D02*
X40594700Y-80973000D01*
X42830500Y-78737200D02*
X40594700Y-80973000D01*
X42830500Y-67724200D02*
X42830500Y-78737200D01*
X89421100Y-67724200D02*
X89559300Y-67586000D01*
X42830500Y-67724200D02*
X89421100Y-67724200D01*
X90736000Y-67586000D02*
X89559300Y-67586000D01*
%TD*%
M02*
