%TF.GenerationSoftware,KiCad,Pcbnew,8.0.4-8.0.4-0~ubuntu22.04.1*%
%TF.CreationDate,2024-07-18T16:31:12+02:00*%
%TF.ProjectId,DevBoardESP32XIAO,44657642-6f61-4726-9445-535033325849,1.3*%
%TF.SameCoordinates,Original*%
%TF.FileFunction,Soldermask,Bot*%
%TF.FilePolarity,Negative*%
%FSLAX46Y46*%
G04 Gerber Fmt 4.6, Leading zero omitted, Abs format (unit mm)*
G04 Created by KiCad (PCBNEW 8.0.4-8.0.4-0~ubuntu22.04.1) date 2024-07-18 16:31:12*
%MOMM*%
%LPD*%
G01*
G04 APERTURE LIST*
G04 Aperture macros list*
%AMRoundRect*
0 Rectangle with rounded corners*
0 $1 Rounding radius*
0 $2 $3 $4 $5 $6 $7 $8 $9 X,Y pos of 4 corners*
0 Add a 4 corners polygon primitive as box body*
4,1,4,$2,$3,$4,$5,$6,$7,$8,$9,$2,$3,0*
0 Add four circle primitives for the rounded corners*
1,1,$1+$1,$2,$3*
1,1,$1+$1,$4,$5*
1,1,$1+$1,$6,$7*
1,1,$1+$1,$8,$9*
0 Add four rect primitives between the rounded corners*
20,1,$1+$1,$2,$3,$4,$5,0*
20,1,$1+$1,$4,$5,$6,$7,0*
20,1,$1+$1,$6,$7,$8,$9,0*
20,1,$1+$1,$8,$9,$2,$3,0*%
G04 Aperture macros list end*
%ADD10R,1.700000X1.700000*%
%ADD11O,1.700000X1.700000*%
%ADD12R,1.800000X1.800000*%
%ADD13C,1.800000*%
%ADD14RoundRect,0.750000X-1.250000X-0.750000X1.250000X-0.750000X1.250000X0.750000X-1.250000X0.750000X0*%
%ADD15C,10.160000*%
G04 APERTURE END LIST*
D10*
%TO.C,J12*%
X87121000Y-57311000D03*
D11*
X89661000Y-57311000D03*
X92201000Y-57311000D03*
X94741000Y-57311000D03*
%TD*%
D10*
%TO.C,J14*%
X66571000Y-72566000D03*
D11*
X69111000Y-72566000D03*
X66571000Y-75106000D03*
X69111000Y-75106000D03*
X66571000Y-77646000D03*
X69111000Y-77646000D03*
X66571000Y-80186000D03*
X69111000Y-80186000D03*
%TD*%
D10*
%TO.C,J9*%
X88336000Y-28946000D03*
D11*
X88336000Y-31486000D03*
%TD*%
D10*
%TO.C,J2*%
X39418000Y-80973000D03*
D11*
X39418000Y-83513000D03*
X39418000Y-86053000D03*
X39418000Y-88593000D03*
X39418000Y-91133000D03*
X39418000Y-93673000D03*
X39418000Y-96213000D03*
%TD*%
D10*
%TO.C,J3*%
X55436000Y-62366000D03*
D11*
X55436000Y-59826000D03*
X55436000Y-57286000D03*
X55436000Y-54746000D03*
X55436000Y-52206000D03*
X55436000Y-49666000D03*
X55436000Y-47126000D03*
%TD*%
D10*
%TO.C,J4*%
X55418000Y-95973000D03*
D11*
X55418000Y-93433000D03*
X55418000Y-90893000D03*
X55418000Y-88353000D03*
X55418000Y-85813000D03*
X55418000Y-83273000D03*
X55418000Y-80733000D03*
%TD*%
D10*
%TO.C,J6*%
X88336000Y-48186000D03*
D11*
X88336000Y-45646000D03*
X88336000Y-43106000D03*
X88336000Y-40566000D03*
%TD*%
D10*
%TO.C,J11*%
X76711000Y-101386000D03*
D11*
X76711000Y-98846000D03*
X76711000Y-96306000D03*
%TD*%
D10*
%TO.C,J17*%
X90736000Y-67586000D03*
D11*
X93276000Y-67586000D03*
%TD*%
D10*
%TO.C,J1*%
X39436000Y-47366000D03*
D11*
X39436000Y-49906000D03*
X39436000Y-52446000D03*
X39436000Y-54986000D03*
X39436000Y-57526000D03*
X39436000Y-60066000D03*
X39436000Y-62606000D03*
%TD*%
D12*
%TO.C,RV1*%
X85086000Y-74511000D03*
D13*
X85086000Y-77011000D03*
X85086000Y-79511000D03*
D14*
X92086000Y-72611000D03*
X92086000Y-81411000D03*
%TD*%
D15*
%TO.C,J16*%
X70261000Y-30361000D03*
%TD*%
D10*
%TO.C,J8*%
X67161000Y-101386000D03*
D11*
X67161000Y-98846000D03*
X67161000Y-96306000D03*
%TD*%
D15*
%TO.C,J15*%
X52836000Y-30361000D03*
%TD*%
D10*
%TO.C,J10*%
X94536000Y-96336000D03*
D11*
X94536000Y-98876000D03*
X94536000Y-101416000D03*
%TD*%
D10*
%TO.C,J5*%
X95886000Y-48186000D03*
D11*
X95886000Y-45646000D03*
X95886000Y-43106000D03*
X95886000Y-40566000D03*
%TD*%
D10*
%TO.C,J7*%
X85536000Y-96336000D03*
D11*
X85536000Y-98876000D03*
X85536000Y-101416000D03*
%TD*%
D10*
%TO.C,J13*%
X68546000Y-44021000D03*
D11*
X71086000Y-44021000D03*
X68546000Y-46561000D03*
X71086000Y-46561000D03*
%TD*%
M02*
